<svg width="899" height="242" viewBox="0 0 899 242" fill="none" xmlns="http://www.w3.org/2000/svg">
<g id="brands">
<g id="Group">
<path id="Vector" fill-rule="evenodd" clip-rule="evenodd" d="M129.101 7.03983C128.54 7.22116 128.053 7.56055 127.708 8.01116C127.363 8.46177 127.176 9.00138 127.173 9.55549C127.17 10.0967 135.909 113.396 135.989 113.762L136.041 113.998H164.637V6.83984L147.168 6.84296C130.494 6.84608 129.671 6.85491 129.101 7.03983ZM248.754 60.4188V113.998H277.324L277.385 113.553C277.744 110.913 286.229 9.23551 286.12 8.87242C285.841 7.94366 284.953 7.15151 283.971 6.95464C283.572 6.87465 278.176 6.84036 266.077 6.84036H248.754V60.4188Z" fill="#E4042C"/>
<path id="Vector_2" fill-rule="evenodd" clip-rule="evenodd" d="M127.312 0.77999C123.469 1.2958 120.446 4.54075 120.446 8.1488C120.446 9.62869 132.888 155.472 133.072 156.15C133.879 159.122 136.745 161.41 140.107 161.768C140.819 161.844 161.727 161.868 207.425 161.847L273.71 161.816L274.547 161.573C277.415 160.743 279.573 158.711 280.262 156.189C280.632 154.833 293.026 8.33268 292.861 7.26783C292.377 4.16883 290.135 1.79914 286.832 0.896345C286.075 0.689607 128.841 0.574291 127.312 0.77999ZM286.438 2.89568C288.874 3.65926 290.536 5.52665 290.767 7.75922C290.857 8.63811 278.426 154.816 278.191 155.636C277.643 157.542 276.066 159.023 273.933 159.633C273.032 159.891 140.735 159.94 139.625 159.683C137.583 159.21 135.841 157.709 135.246 155.912C135.03 155.26 122.578 10.0359 122.576 8.16438C122.576 5.65807 124.638 3.36993 127.4 2.81361C128.695 2.55233 285.601 2.63336 286.438 2.89568ZM203.611 8.16594C199.996 8.5228 195.067 9.78452 191.224 11.3366C189.067 12.2077 188.638 12.5168 188.638 13.1983C188.637 14.0814 186.864 16.0319 185.497 16.6526C184.146 17.2655 183.413 17.4328 180.92 17.6977C180.654 17.7258 180.41 17.8141 180.378 17.8941C180.183 18.3688 182.215 20.6004 183.226 21.0237C184.181 21.4221 183.56 21.6195 181.067 21.7094C178.556 21.7987 177.826 22.1244 177.183 23.4427C176.874 24.0754 176.917 24.2474 177.644 25.2816C179.298 27.6331 179.255 28.9836 177.485 30.2994C175.26 31.9522 175.241 32.2348 176.91 38.5819C177.554 41.0285 178.155 43.2257 178.246 43.4641C178.42 43.9155 178.341 44.1306 178.004 44.1306C177.676 44.1306 176.991 44.5887 176.773 44.9549C175.845 46.5091 176.113 48.9027 177.801 54.1345C178.995 57.8371 179.139 58.3337 179.503 60.0001C180.413 64.1764 181.505 65.6516 183.665 65.622C184.53 65.6095 184.56 65.6459 184.652 66.8089C184.819 68.9106 185.374 70.9525 186.276 72.7799C186.568 73.37 186.731 73.8957 186.83 74.56C187.266 77.5182 189.229 80.8152 192.19 83.5672C193.448 84.7369 194.447 85.4943 197.639 87.7009C198.919 88.585 199.966 89.3423 199.966 89.3828C199.966 89.4239 198.818 89.4836 197.414 89.5163C194.928 89.5745 193.854 89.7064 193.548 89.9921C193.205 90.3121 193.085 95.5086 193.407 96.0899C193.786 96.775 194.986 96.8342 202.574 96.5444C204.525 96.4701 204.418 96.3262 203.67 98.0191C203.086 99.3616 202.512 100.708 201.946 102.057C200.49 105.522 199.117 108.431 197.699 111.051C196.317 113.604 196.277 113.328 198.084 113.678C198.437 113.746 199.235 114.035 199.858 114.32C201.469 115.055 201.414 115.071 202.144 113.658C203.436 111.154 205.762 105.663 206.336 103.759C206.496 103.226 206.669 102.79 206.718 102.79C206.834 102.79 206.821 112.439 206.701 114.47C206.573 116.629 206.633 116.693 208.4 116.3C209.092 116.152 209.798 116.069 210.507 116.055C211.772 116.038 211.771 116.039 211.96 114.629C212.476 110.786 211.548 101.678 210.224 97.59C209.862 96.4706 209.865 96.4405 210.369 96.3626C211.184 96.2374 214.628 96.2935 216.738 96.467C219.099 96.6618 219.405 96.6353 219.632 96.2156C219.896 95.7273 219.976 90.6757 219.728 90.2108C219.353 89.5085 217.683 89.1906 215.023 89.3143C213.419 89.3886 213.403 89.3719 214.467 88.7605C217.978 86.7415 223.317 82.2935 224.792 80.1586C227.053 76.885 229.012 70.9099 229.014 67.2769C229.015 65.6994 229.052 65.648 230.216 65.5825C232.461 65.4578 233.153 64.3816 235.012 58.1311C236.961 51.5731 237.46 49.4164 237.473 47.4825C237.486 45.5606 237.286 45.2001 235.715 44.3015C235.341 44.088 235.307 44.2651 236.266 41.429C237.279 38.4318 237.536 37.4968 237.614 36.5155L237.683 35.6564L237.126 35.1541C236.138 34.2632 236.002 33.9853 235.801 32.4514C234.141 19.7386 224.844 10.4427 211.743 8.3945C210.385 8.18256 204.984 8.03089 203.611 8.16594M208.618 10.6156C213.941 11.1159 218.984 13.031 223.845 16.3986C228.657 19.7329 231.288 24.1778 232.29 30.6703C232.699 33.3199 232.427 39.3231 231.87 39.921C231.479 40.3418 231.361 40.1527 230.711 38.05C229.475 34.0565 228.492 31.7403 227.151 29.6599C226.318 28.3681 226.19 28.6263 226.172 31.6406L226.158 34.1495L226.493 34.5843C227.93 36.4522 228.284 37.1555 228.864 39.306C229.346 41.0908 229.481 42.5198 229.178 42.6283C229.065 42.6683 228.262 42.5993 227.395 42.4736C225.488 42.1977 222.913 42.1396 217.743 42.2564C212.916 42.3655 212.039 42.5764 209.723 44.1836C208.439 45.0749 208.312 45.1227 207.6 44.9799C206.779 44.8193 205.93 44.8342 205.116 45.0235C204.296 45.2219 204.054 45.1409 202.938 44.2973C200.477 42.4362 199.745 42.3027 191.961 42.3001L185.581 42.2975L185.638 41.4596C185.736 39.9979 186.222 39.3195 187.593 38.7284C188.6 38.2946 188.519 38.4567 189.132 35.6164C190.341 30.0085 192.145 26.9469 195.443 24.9019C197.88 23.3908 202.431 23.5238 205.995 25.2104C206.807 25.5948 206.861 25.5808 207.958 24.6946C209.269 23.6375 209.269 23.6396 207.789 22.2885C202.638 17.5865 196.741 16.5586 189.686 19.1319C188.832 19.443 188.118 19.6602 188.098 19.6134C187.776 18.8306 192.26 15.9223 195.284 14.9525C197.314 14.3016 197.144 13.6539 194.943 13.6502C194.093 13.6487 193.946 13.4767 194.406 13.0279C195.906 11.5662 204.041 10.185 208.618 10.6156ZM195.461 21.6704C195.978 21.8719 195.891 21.981 194.883 22.3904C191.773 23.6531 189.953 25.2733 188.163 28.3712C187.682 29.2034 187.427 29.514 186.79 30.0324C185.194 31.3346 185.006 31.5949 184.396 33.3412C183.555 35.753 183.123 37.9887 182.93 40.9241C182.82 42.6112 182.721 42.8335 181.915 43.2148C181.14 43.581 181.228 43.7109 180.515 41.1401C178.523 33.9469 178.523 33.9547 181.341 30.1622C182.036 29.2267 181.915 27.9821 180.936 26.0296C180.352 24.8645 180.284 24.9216 182.581 24.6489C184.718 24.3954 187.452 23.6266 189.498 22.7036C191.904 21.619 194.276 21.2081 195.461 21.6704ZM186.414 43.6755C187.029 44.196 186.347 44.8822 185.494 44.6001C185.234 44.5155 184.877 44.4454 184.702 44.4454C184.246 44.4454 184.062 44.0968 184.4 43.875C184.538 43.7857 184.803 43.7109 184.99 43.7103C185.177 43.7093 185.405 43.6631 185.497 43.607C185.756 43.4511 186.187 43.4833 186.414 43.6755ZM228.196 43.7031C229.005 43.8381 229.271 44.4454 228.52 44.4454C228.375 44.4454 228.043 44.5155 227.781 44.6022C227.16 44.8069 227.04 44.8007 226.771 44.5503C226.28 44.0906 226.651 43.4309 227.331 43.554C227.548 43.5935 227.937 43.6605 228.196 43.7031ZM191.421 45.0469C191.449 45.2308 191.345 45.3455 190.942 45.5705C190.658 45.7289 189.866 46.2006 189.182 46.6182C187.861 47.4254 187.546 47.5095 187.168 47.1579C186.766 46.7818 187.186 45.8053 187.988 45.2495C188.704 44.7539 191.353 44.5976 191.421 45.0469ZM223.458 44.8739C224.802 45.1897 225.068 47.1688 223.766 47.1688C222.947 47.1688 220.342 45.3757 220.523 44.9362C220.611 44.7227 222.633 44.6801 223.458 44.8739ZM197.428 45.2765C198.001 45.5362 198.582 46.2094 198.468 46.4842C198.414 46.6177 198.218 46.6332 197.25 46.5829C195.862 46.5101 195.003 46.6893 193.29 47.4072C191.946 47.9698 191.226 48.1344 190.86 47.9635C190.26 47.6846 190.513 47.3911 192.059 46.5704C192.523 46.3242 192.986 46.077 193.448 45.8286C194.976 45.0048 196.392 44.8079 197.428 45.2765ZM218.897 45.5861C219.153 45.7076 219.755 46.1398 220.235 46.546C220.715 46.9517 221.447 47.4966 221.862 47.7563C222.74 48.3058 222.787 48.3588 222.565 48.5303C222.16 48.8445 220.894 48.4019 219.661 47.5158C218.499 46.6795 217.702 46.5226 216.007 46.7958C214.348 47.0628 214.201 46.561 215.723 45.8317C216.975 45.2323 217.99 45.1539 218.897 45.5861ZM229.928 45.8333C230.192 46.292 230.23 46.9319 230.122 49.1505C229.984 52.0245 230.132 52.2048 231.546 50.8849C232.143 50.328 232.223 50.0616 232.077 49.112C231.842 47.5781 232.593 46.2779 233.573 46.5205C235.191 46.9195 235.205 48.1396 233.648 53.3486C233.299 54.5179 232.969 55.6917 232.657 56.8699C231.451 61.5501 230.612 62.7947 229.068 62.1921C228.391 61.9277 228.211 62.0378 227.471 63.1687C226.634 64.4465 226.582 64.6158 226.503 66.2853C226.126 74.3616 221.889 81.051 215.723 83.3022C214.122 83.8871 213.704 83.8799 212.987 83.2545C212.498 82.827 212.1 82.6571 212.065 82.8618C212.058 82.9049 212.043 83.4612 212.032 84.098C212.009 85.4683 211.908 85.7 210.735 87.0776C209.652 88.3497 209.372 88.932 209.109 90.455C208.783 92.3426 203.986 87.8915 202.648 84.459C202.262 83.4705 202.287 82.0374 202.711 80.7404C203.503 78.3224 203.663 77.1541 203.412 75.5911C203.342 75.1548 203.361 75.0182 203.509 74.8795C203.824 74.5855 204.091 74.8223 204.935 76.1428C205.479 76.9936 205.822 76.2051 205.632 74.5419C205.532 73.6739 205.131 73.2453 204.179 72.9861C202.194 72.4475 203.572 71.3769 206.135 71.4673C210.412 71.6174 211.337 71.54 213.738 70.8304C215.445 70.3261 215.585 70.3255 216.416 70.8273C217.258 71.3364 217.318 71.4855 217.39 73.251C217.513 76.2846 218.682 76.1209 219.371 72.9736C219.706 71.4413 219.907 70.9598 220.436 70.4284C221.751 69.1017 222.321 67.1715 222.124 64.7166C222.004 63.2206 221.735 62.8243 220.449 62.2544C219.637 61.8939 218.615 60.9387 217.625 59.6105C216.061 57.5145 215.337 56.8761 213.893 56.3214C212.568 55.8123 212.173 56.0424 212.477 57.1421C212.901 58.6672 212.714 59.0079 211.034 59.7731C208.498 60.9283 206.371 60.8545 204.34 59.5424C202.332 58.2454 202.07 56.6174 203.436 53.9247C204.052 52.7097 204.15 52.3783 204.396 50.6776C204.839 47.5999 205.168 46.9584 206.301 46.9584C207.264 46.9584 207.687 47.3267 207.986 48.4258C208.565 50.5524 209.495 51.4038 210.496 50.727C211.187 50.259 211.251 50.0533 210.917 49.3785C210.461 48.4601 210.703 48.3162 211.811 48.8461C213.261 49.54 215.848 49.8185 217.675 49.4762C219.663 49.1048 220.478 49.2564 220.93 50.0839C221.232 50.6376 221.347 50.7031 222.233 50.8329C223.637 51.0381 223.758 51.1555 223.455 52.009C223.082 53.0572 221.921 53.8083 220.103 54.1802C218.938 54.4176 218.921 54.4285 218.921 54.9028C218.921 55.8014 219.775 56.0009 221.676 55.5469C224.284 54.9235 225.401 53.3605 226.317 49.0538C226.898 46.3205 226.923 46.28 228.23 45.8723C229.32 45.5325 229.749 45.5227 229.928 45.8333ZM181.425 46.8499C182.143 47.2581 182.425 48.1485 182.101 48.9754C181.723 49.9343 181.747 50.2013 182.579 54.4483C183.252 57.8797 183.093 58.7638 181.97 57.8433C181.475 57.4382 181.286 57.1125 181.077 56.3131C180.99 55.9791 180.533 54.4093 180.06 52.825C179.096 49.5863 178.96 48.7328 179.258 47.775C179.583 46.7351 180.521 46.334 181.425 46.8499ZM196.279 49.2627C197.764 49.5052 198.322 49.5193 199.595 49.3473C200.807 49.1837 200.956 49.2876 200.376 49.8876C199.887 50.393 199.888 50.3847 200.259 51.0469C201.104 52.5585 199.185 53.9802 195.943 54.2441C194.936 54.3262 194.807 54.4145 194.807 55.0176C194.807 55.63 195.112 55.7708 196.411 55.7573C197.885 55.7417 197.835 55.7375 197.835 55.8793C197.835 55.9468 197.686 56.218 197.504 56.4829C197.322 56.7478 197.095 57.2455 196.999 57.5883C196.778 58.383 196.724 58.4277 195.441 58.8994C194.853 59.1154 194.053 59.504 193.664 59.7627C190.392 61.9376 188.814 61.2846 187.348 57.1488C186.328 54.2732 186.556 53.8208 188.571 54.723C189.92 55.3282 190.457 55.3734 190.762 54.9064C191.238 54.1771 191.116 53.9247 190.059 53.4556C188.206 52.6338 186.985 50.8142 187.907 50.2501C188.212 50.0636 188.442 50.1327 189.014 50.5846C190.074 51.422 190.502 51.4371 191.258 50.6652C192.726 49.166 193.82 48.8606 196.279 49.2627ZM200.763 55.9552C200.994 56.1302 201.008 56.1837 200.888 56.4305C200.645 56.9291 200.602 57.7607 200.794 58.2719C201.262 59.5118 200.651 60.0442 199.699 59.2287C198.239 57.9779 199.264 54.8217 200.763 55.9552ZM213.54 61.2311C213.746 61.361 214.325 61.9381 214.826 62.5142C215.78 63.6086 217.001 64.5753 217.687 64.7779C220.837 65.7103 215.137 67.0582 210.887 66.3861C210.278 66.2895 209.149 66.023 208.377 65.7934C206.742 65.3062 206.18 65.3004 204.954 65.7586C202.195 66.7892 197.327 66.8988 195.375 65.9747C194.192 65.4137 194.217 65.1114 195.486 64.6117C195.945 64.4309 196.99 63.8704 197.808 63.366C200.284 61.8394 201.419 61.588 202.545 62.3168C205.095 63.966 208.046 64.1182 209.553 62.6783C209.93 62.3178 210.311 62.0757 210.73 61.9298C211.118 61.7909 211.493 61.6251 211.855 61.4337C212.747 60.9361 213.021 60.9039 213.54 61.2311ZM191.322 64.7062C191.544 64.9265 191.591 65.127 191.676 66.1991C192.028 70.6263 193.593 75.3984 194.691 75.3984C194.917 75.3984 195.021 75.2649 195.374 74.5206C196.17 72.8448 196.513 72.7222 196.868 73.9845C197.258 75.3683 198.074 77.8491 198.398 78.6345C198.907 79.8693 198.717 80.1664 197.419 80.1617C192.745 80.1461 186.01 70.0866 188.064 66.1887C188.816 64.7628 190.574 63.9629 191.322 64.7062ZM210.832 68.1143C212.484 68.2633 212.413 68.5366 210.616 68.9423C208.898 69.3303 204.902 69.6025 204.058 69.389C203.179 69.1672 202.185 68.3787 202.573 68.2109C203.168 67.9532 208.376 67.8925 210.832 68.1143ZM245.95 121.968C233.434 122.784 225.82 129.261 225.83 139.086C225.839 148.926 236.47 153.966 251.351 151.182C254.454 150.602 254.261 150.775 254.806 148.087C255.374 145.288 255.347 145.256 252.884 145.837C241.907 148.429 234.794 143.442 237.14 134.801C238.378 130.247 241.756 127.22 246.22 126.668C249.786 126.226 252.138 127.631 252.317 130.309C252.395 131.483 252.41 131.491 254.314 131.491C256.222 131.491 255.986 131.834 256.999 127.582C258.133 122.827 258.189 123.112 256.01 122.647C252.718 121.943 249.582 121.732 245.95 121.968ZM162.239 122.614C162.059 122.882 161.608 124.653 161.608 125.097C161.608 125.437 161.758 125.573 162.543 125.939C163.357 126.318 163.772 126.903 163.829 127.749C163.871 128.381 160.684 142.517 160.029 144.603C159.439 146.48 158.46 147.675 157.248 147.997C156.089 148.306 156.084 148.31 155.803 149.353C155.165 151.722 154.342 151.498 163.679 151.498C172.683 151.498 171.733 151.653 172.104 150.13C172.527 148.392 172.478 148.154 171.624 147.839C171.125 147.655 170.514 147.074 170.36 146.637C170.248 146.32 171.508 140.279 171.998 138.787C172.087 138.515 172.084 138.512 173.614 141.076C177.964 148.367 180.024 150.419 183.821 151.244C184.967 151.492 193.616 151.599 193.948 151.368C194.155 151.225 194.685 149.445 194.691 148.87C194.696 148.436 194.332 148.22 193.447 148.131C191.62 147.949 191.368 147.705 185.966 140.875C181.837 135.657 181.675 135.434 181.872 135.26C183.032 134.236 192.942 126.708 193.439 126.474C194.243 126.095 195.354 125.773 196.189 125.676C197.097 125.569 197.237 125.425 197.497 124.316C197.998 122.178 198.717 122.378 190.544 122.378C183.142 122.378 183.457 122.354 183.309 122.935C182.752 125.12 182.772 125.365 183.533 125.763C184.717 126.383 184.721 126.378 179.191 130.673C173.02 135.466 172.826 135.614 172.782 135.566C172.711 135.487 174.615 127.564 174.797 127.181C175.053 126.642 175.69 126.099 176.417 125.799C177.221 125.467 177.24 125.441 177.52 124.235C178 122.171 178.852 122.378 169.873 122.378H162.398L162.239 122.614ZM200.149 122.614C199.967 122.882 199.517 124.653 199.517 125.097C199.517 125.439 199.601 125.514 200.418 125.913C200.797 126.098 201.153 126.377 201.359 126.651C201.997 127.5 202.065 127.112 199.136 139.506C196.235 151.786 196.398 150.994 196.713 151.289C197.041 151.595 209.21 151.62 209.591 151.315C209.856 151.103 210.46 148.709 210.34 148.353C210.3 148.237 210.076 148.052 209.842 147.94C207.96 147.043 207.932 146.518 209.444 140.526L209.504 140.29H214.696C218.673 140.29 219.931 140.259 220.076 140.159C220.261 140.031 221.276 136.126 221.276 135.544C221.276 134.943 221.322 134.948 215.855 134.948C211.158 134.948 210.845 134.937 210.847 134.765C210.848 134.664 211.243 132.908 211.724 130.863L212.599 127.144L216.181 127.116C221.576 127.074 222.171 127.338 222.172 129.781C222.173 130.91 222.322 130.993 224.27 130.949C225.477 130.922 225.79 130.882 225.942 130.74C226.121 130.573 227.893 123.495 227.893 122.949C227.893 122.343 228.744 122.378 213.895 122.378H200.308L200.149 122.614ZM283.972 151.393C283.972 151.705 283.978 151.708 284.588 151.708H285.206V155.583H285.991V151.708H286.608C287.218 151.708 287.224 151.705 287.224 151.393V151.079H283.972V151.393ZM288.346 153.331V155.583H289.018L289.022 153.986L289.026 152.389L289.488 153.305C290.074 154.469 290.179 154.474 290.782 153.357L291.249 152.494L291.255 154.038L291.262 155.583H291.935V151.079H291.591C291.264 151.079 291.22 151.134 290.709 152.153L290.171 153.227L289.594 152.153C289.055 151.151 288.995 151.079 288.681 151.079H288.346V153.331Z" fill="#050505"/>
<path id="Vector_3" fill-rule="evenodd" clip-rule="evenodd" d="M127.625 2.82717C124.735 3.28012 122.701 5.52412 122.692 8.26833C122.69 9.26046 134.952 154.019 135.132 155.112C135.497 157.331 137.506 159.247 139.898 159.659C141.051 159.856 272.589 159.814 273.598 159.615C275.705 159.2 277.418 157.769 278.032 155.909C278.251 155.251 290.701 10.0272 290.701 8.1447C290.701 5.9137 289.123 3.90501 286.686 3.03495L286.047 2.80691L206.976 2.79445C163.487 2.78821 127.779 2.80276 127.625 2.82717ZM164.637 60.4188V113.998H150.28C142.384 113.998 135.924 113.963 135.925 113.92C135.926 113.877 133.928 90.3319 131.487 61.5974C127.215 11.3237 127.054 9.33371 127.22 8.80128C127.441 8.08912 128.072 7.40346 128.795 7.08868L129.363 6.84246L146.999 6.84142L164.636 6.84038L164.637 60.4188ZM284.822 7.20919C285.473 7.5837 286.04 8.32079 286.193 8.99139C286.28 9.37007 285.381 20.308 281.887 61.3927C279.459 89.9517 277.471 113.47 277.469 113.657L277.467 113.998H248.642V6.83675L266.456 6.86428L284.27 6.89233L284.822 7.20919ZM211.574 8.29794C214.548 8.74829 217.768 9.6916 220.075 10.7871C228.979 15.0159 234.613 22.7738 235.906 32.5855C236.095 34.0228 236.324 34.4721 237.194 35.1152C238.047 35.7468 237.915 36.7816 236.421 41.1755C235.385 44.2205 235.409 44.0844 235.877 44.3181C238.37 45.5658 238.228 47.6966 234.918 58.6901C233.204 64.3889 232.431 65.5239 230.161 65.6802C229.104 65.7529 229.131 65.7155 229.129 67.0931C229.123 70.9998 226.841 77.7053 224.513 80.6563C222.978 82.6031 218.544 86.3156 215.5 88.2038C214.698 88.7009 214.001 89.1398 213.951 89.1777C213.901 89.2162 214.684 89.2473 215.69 89.2468C219.991 89.2442 220.053 89.306 219.941 93.4667C219.847 96.9938 220.008 96.8239 216.992 96.572C213.949 96.3185 212.646 96.2676 211.262 96.3486L209.977 96.4234L210.068 96.7522C211.64 102.437 212.402 108.54 212.137 113.337C211.991 115.997 211.916 116.117 210.374 116.143C209.61 116.156 208.889 116.241 208.244 116.395C207.323 116.614 207.248 116.618 206.913 116.456L206.557 116.284L206.625 114.277C206.772 109.991 206.832 105.172 206.754 104.09L206.671 102.957L206.298 104.104C205.436 106.756 202.347 113.79 201.689 114.6C201.322 115.051 201.206 115.038 199.722 114.364C198.968 114.021 198.178 113.744 197.779 113.68C196.719 113.512 196.63 113.486 196.562 113.319C196.525 113.23 197.158 111.901 197.995 110.306C199.659 107.137 200.752 104.784 202.413 100.8C203.025 99.3302 203.659 97.8353 203.821 97.4768C204.195 96.6504 204.202 96.4619 203.856 96.5429C203.713 96.5766 201.518 96.6546 198.98 96.7174C192.675 96.8727 193.073 97.1262 193.142 92.9961C193.2 89.4442 193.014 89.6078 197.139 89.4847C198.577 89.4416 199.776 89.385 199.804 89.3585C199.833 89.332 198.808 88.5861 197.528 87.7015C190.405 82.7808 187.444 79.1655 186.737 74.5211C186.649 73.9492 186.455 73.3295 186.176 72.7379C185.278 70.8326 184.804 69.1423 184.606 67.1341C184.456 65.6189 184.515 65.7083 183.66 65.7083C181.442 65.7083 180.366 64.2621 179.432 60.0276C179.045 58.2709 178.734 57.193 177.753 54.2135C176.194 49.4731 175.829 46.9839 176.46 45.3887C176.749 44.6579 177.506 44.0252 178.09 44.0252C178.375 44.0252 178.382 44.1083 177.997 42.8959C177.819 42.3365 177.436 40.9355 177.145 39.7829C176.835 38.5578 176.512 37.3356 176.175 36.1167C175.191 32.613 175.378 31.8536 177.666 30.0688C178.087 29.74 178.404 29.3769 178.605 28.9946L178.907 28.417L178.719 27.7105C178.475 26.7896 178.104 26.0395 177.402 25.0396C176.734 24.0864 176.751 23.7545 177.52 22.8054C178.272 21.8756 178.91 21.6637 181.003 21.6502C182.233 21.6419 182.879 21.5936 183.188 21.4861L183.625 21.3333L183.075 21.0331C182.305 20.6124 180.906 19.2566 180.506 18.5455C180.064 17.7565 180.142 17.6931 181.743 17.5378C185.318 17.1913 187.859 15.5873 188.54 13.2472C188.813 12.3096 189.07 12.1226 191.33 11.2198C198.271 8.44806 205.594 7.39099 211.574 8.29794ZM204.733 10.6754C199.093 11.2172 195.606 12.0255 194.428 13.0649C193.985 13.455 194.15 13.5646 195.228 13.5968C197.269 13.657 197.313 14.3874 195.313 15.0097C192.914 15.7561 189.38 17.8463 188.442 19.0732C187.959 19.7054 187.907 19.7085 189.882 18.9974C196.415 16.6443 202.113 17.4739 206.976 21.4855C209.339 23.435 209.398 23.621 208.014 24.7269C206.85 25.6582 206.799 25.665 205.479 25.0801C202.703 23.8469 198.542 23.5514 196.501 24.4422C192.712 26.0956 190.5 29.5094 189.184 35.7401C188.603 38.4859 188.689 38.3129 187.71 38.7347C186.23 39.3736 185.637 40.307 185.612 42.0352C185.61 42.1734 186.366 42.1926 191.751 42.1926C199.755 42.1926 200.379 42.311 203.131 44.3592C204.088 45.0719 204.406 45.1524 205.296 44.9108C205.945 44.7342 206.38 44.7373 207.929 44.9264C208.42 44.9867 208.465 44.9669 209.612 44.1784C212.337 42.3032 213.238 42.1422 221.066 42.1406C225.339 42.1401 225.983 42.1625 227.123 42.3484C227.824 42.4627 228.587 42.5572 228.818 42.5583L229.239 42.5588V41.9355C229.239 39.9226 228.082 36.6496 226.829 35.1219C226.039 34.1568 226.065 34.282 226.089 31.5742C226.111 28.9551 226.113 28.9416 226.432 28.9416C227.289 28.9416 229.176 32.8696 230.754 37.9373C231.709 41.0041 232.109 40.7511 232.392 36.9026C232.828 30.9965 231.447 25.1216 228.71 21.2424C224.138 14.764 213.051 9.87704 204.733 10.6754ZM193.181 21.6585C191.86 21.8543 191.101 22.086 189.506 22.7784C186.96 23.8833 183.17 24.8562 181.411 24.8562C180.548 24.8562 180.502 24.9876 181.007 26.0088C182.209 28.4409 182.193 29.219 180.906 30.8781C179.035 33.2909 178.853 34.1168 179.545 37.0595C180.162 39.6878 181.181 43.3967 181.287 43.3967C182.252 43.3967 182.718 42.6881 182.828 41.055C183.021 38.1638 183.579 35.3666 184.422 33.0473C184.936 31.6323 185.077 31.437 186.428 30.2683C187.447 29.3863 187.641 29.1587 188.189 28.1957C189.784 25.399 191.944 23.4724 194.688 22.3972C195.777 21.9712 195.862 21.8575 195.248 21.6507C194.766 21.4876 194.319 21.4897 193.181 21.6585ZM185.513 43.6631C185.306 43.7473 185.002 43.8169 184.84 43.8174C184.157 43.821 184.072 44.2688 184.733 44.3862C184.938 44.4226 185.314 44.5026 185.569 44.5633C186.176 44.7088 186.507 44.5576 186.507 44.1343C186.507 43.5681 186.157 43.4019 185.513 43.6631ZM226.794 43.7322C226.406 44.0943 226.767 44.7218 227.303 44.6184C227.474 44.5857 227.842 44.5181 228.121 44.4693C228.951 44.3239 229.219 43.9821 228.594 43.8688C228.425 43.8377 228.071 43.7665 227.808 43.7099C227.181 43.5748 226.957 43.58 226.794 43.7322ZM189.759 44.875C188.232 45.0365 187.29 45.6214 187.11 46.5216C186.907 47.533 187.599 47.5164 189.3 46.4676C190.03 46.0172 190.787 45.569 190.98 45.4703C191.526 45.1929 191.398 44.728 190.788 44.7727C190.685 44.7799 190.222 44.8262 189.759 44.875ZM220.654 44.8916C220.479 45.3165 222.522 46.879 223.55 47.1044C224.674 47.3522 224.895 45.5149 223.795 45.0604C223.101 44.7737 220.754 44.6475 220.654 44.8916ZM195.031 45.2744C193.845 45.6401 190.988 47.1205 190.729 47.5028C190.293 48.1485 191.408 48.1116 193.038 47.4265C195.041 46.585 196.483 46.3045 197.667 46.5247C198.395 46.6608 198.52 46.5507 198.226 46.038C197.744 45.1965 196.359 44.8651 195.031 45.2744ZM216.453 45.6007C214.836 46.1404 214.201 47.0073 215.598 46.7668C217.464 46.4458 218.576 46.639 219.719 47.4821C220.84 48.3095 222.091 48.7526 222.478 48.4586C222.611 48.3584 222.634 48.2898 222.548 48.256C222.2 48.1184 221.337 47.5096 220.323 46.6852C218.669 45.342 217.886 45.1228 216.453 45.6007ZM228.691 45.8225C227.052 46.2224 226.975 46.3273 226.432 48.8965C225.349 54.0172 223.627 55.8622 219.929 55.8622C218.311 55.8622 218.358 54.4358 219.986 54.1315C221.675 53.8162 222.795 53.172 223.254 52.2526C223.744 51.2693 223.629 51.1031 222.333 50.927C221.325 50.7904 221.233 50.7416 220.927 50.1821C220.491 49.3843 219.455 49.1619 217.855 49.5224C216.216 49.8923 213.237 49.5796 211.766 48.8835C210.713 48.3849 210.549 48.4784 210.994 49.3261C211.409 50.1146 210.936 50.8605 209.863 51.1125C209.274 51.2501 208.402 50.0606 207.93 48.4773C207.588 47.3278 207.267 47.0457 206.301 47.0457C205.168 47.0457 205.041 47.3278 204.346 51.4106C204.142 52.6043 204.039 52.9201 203.505 53.9767C202.304 56.3573 202.359 57.6917 203.714 58.9571C205.465 60.5923 208.137 60.9528 210.608 59.8869C212.601 59.0262 212.796 58.7773 212.48 57.5016C212.113 56.0253 212.324 55.7719 213.592 56.1604C215.057 56.6097 216.118 57.4777 217.542 59.3893C218.685 60.9242 219.594 61.7641 220.699 62.3049C222.008 62.9448 222.109 63.1474 222.154 65.2293C222.209 67.8203 221.825 69.0888 220.609 70.3209C220.005 70.9333 219.731 71.5426 219.484 72.8314C219.169 74.4676 218.597 75.4504 217.958 75.4504C217.506 75.4504 217.245 74.3284 217.24 72.3571C217.236 70.7282 216.034 70.2274 213.742 70.9001C211.236 71.6356 209.837 71.7826 207.421 71.5645C205.3 71.3733 205.04 71.3894 204.179 71.7655C203.158 72.2122 203.093 72.6979 204.03 72.8729C205.167 73.0854 205.633 73.6599 205.752 74.9938C205.902 76.6846 205.371 77.0493 204.618 75.7719C203.784 74.3565 203.342 74.4775 203.558 76.0618C203.732 77.3375 203.632 78.0429 202.976 80.1394C202.207 82.5995 202.251 83.5625 203.216 85.4533C204.302 87.583 206.515 89.9096 208.295 90.7927C208.835 91.0607 208.918 90.976 209.124 89.9584C209.348 88.8546 209.673 88.2235 210.553 87.1929C211.82 85.7084 211.885 85.566 211.959 84.1142C212.041 82.5091 212.153 82.3948 212.946 83.1169C213.658 83.7672 214.015 83.8233 215.108 83.4587C221.379 81.3653 225.549 75.4052 226.326 67.4255C226.654 64.057 226.552 64.473 227.335 63.2596C228.196 61.9236 228.351 61.8254 229.112 62.1309C230.575 62.7189 231.381 61.506 232.549 56.9624C232.844 55.8451 233.159 54.7324 233.494 53.625C235.157 48.1485 235.099 46.5398 233.238 46.5398C232.517 46.5398 231.965 47.8706 232.165 49.1271L232.303 49.9915L231.977 50.4819C231.636 50.994 230.71 51.6724 230.353 51.6724C229.971 51.6724 229.938 51.3722 230.051 49.0009C230.21 45.6666 230.127 45.4723 228.691 45.8225ZM179.75 47.0135C179.077 47.6421 179.044 49.0186 179.652 51.1483C181.427 57.3598 181.474 57.485 182.22 57.9623C183.087 58.5171 183.12 57.4512 182.352 53.6624C181.798 50.9317 181.69 49.7006 181.951 49.1194C182.653 47.5574 180.931 45.9102 179.75 47.0135ZM193.493 49.31C192.726 49.5339 192.065 49.9515 191.415 50.6231C190.545 51.5207 190.223 51.5114 188.861 50.5463C188.296 50.1458 188.042 50.1203 187.803 50.4387C187.262 51.1597 188.403 52.637 190.059 53.3585C191.205 53.8582 191.391 54.3143 190.753 55.0716C190.401 55.4903 189.861 55.3984 188.213 54.6384C186.771 53.9735 186.555 54.3439 187.178 56.4128C188.58 61.0785 190.203 61.908 193.639 59.7165C194.139 59.3981 194.972 58.9851 195.49 58.7986C196.683 58.3706 196.668 58.3831 196.936 57.5426C197.06 57.1551 197.309 56.6315 197.49 56.3806C197.922 55.7786 197.912 55.7724 196.574 55.8269C195.02 55.8908 194.863 55.8124 194.863 54.9714C194.863 54.2379 194.815 54.2639 196.51 54.0904C199.29 53.8058 201.027 52.397 200.204 51.0948C199.877 50.5774 199.905 50.2782 200.319 49.8372C200.807 49.3178 200.658 49.2627 199.266 49.4487C198.112 49.6019 197.996 49.5993 196.574 49.3817C194.902 49.1261 194.182 49.1095 193.493 49.31ZM199.521 56.1562C198.665 56.9562 198.901 58.6584 199.963 59.3482C200.671 59.8079 201.1 59.4609 200.826 58.6496C200.607 58.0018 200.584 57.0538 200.771 56.4679C200.988 55.7926 200.138 55.5802 199.521 56.1562ZM212.528 61.1767C212.435 61.2099 212.183 61.3408 211.967 61.4675C211.751 61.5943 211.248 61.8088 210.849 61.9444C210.291 62.1345 209.977 62.3314 209.482 62.8004C208.038 64.1702 205.297 64.0679 202.801 62.5506C201.295 61.6353 200.501 61.7776 197.809 63.444C197.102 63.8824 196.087 64.4294 195.553 64.6595C194.47 65.127 194.397 65.2517 194.968 65.6584C196.58 66.8064 201.793 66.824 204.926 65.6916C206.188 65.2361 206.821 65.2449 208.454 65.742C211.913 66.7955 216.898 66.73 218.376 65.6127C218.659 65.3987 218.447 64.9753 218.057 64.9753C217.443 64.9753 215.879 63.8378 214.872 62.6581C213.64 61.2146 213.198 60.9351 212.528 61.1767ZM189.891 64.6512C188.014 65.2569 187.314 67.2001 188.074 69.695C189.846 75.5024 193.993 80.0984 197.437 80.0703C198.818 80.0589 198.836 79.9898 198.017 77.7952C197.8 77.2124 197.387 75.9636 197.099 75.0193C196.812 74.0755 196.535 73.2615 196.485 73.2111C196.321 73.047 195.851 73.6531 195.468 74.5185C194.917 75.7647 194.569 75.8234 193.864 74.7886C192.807 73.2355 191.554 68.3096 191.554 65.7077C191.554 64.5946 191.054 64.2762 189.891 64.6512ZM203.801 68.1367C202.421 68.267 202.307 68.4525 203.268 69.0041L203.822 69.3225L205.904 69.3059C208.938 69.281 212.342 68.7475 211.928 68.3605C211.677 68.1268 205.67 67.9601 203.801 68.1367ZM252.119 121.971C254.746 122.209 257.319 122.761 257.699 123.167C258.044 123.537 258.056 123.452 257.1 127.51C256.057 131.936 256.293 131.596 254.256 131.596C252.362 131.596 252.321 131.568 252.221 130.248C252.032 127.749 250.116 126.511 246.741 126.705C241.688 126.997 237.763 130.791 236.914 136.204C235.69 144.013 242.686 148.215 252.849 145.775C255.405 145.16 255.463 145.228 254.868 148.172C254.37 150.632 254.442 150.539 252.68 150.968C247.451 152.241 240.294 152.258 235.856 151.01C227.443 148.643 223.79 141.863 226.604 133.838C229.593 125.317 239.287 120.809 252.119 121.971ZM177.681 122.609L177.908 122.893L177.644 124.067C177.346 125.393 177.198 125.606 176.392 125.879C175.815 126.074 175.058 126.712 174.852 127.175C174.718 127.478 172.828 135.396 172.877 135.448C172.915 135.488 183.73 127.089 183.896 126.89C184.243 126.471 184.022 126.037 183.284 125.688C183.061 125.582 182.892 125.406 182.844 125.23C182.724 124.789 183.201 122.812 183.498 122.516L183.743 122.273H197.347L197.607 122.531C197.897 122.819 197.891 123.037 197.546 124.45C197.289 125.506 197.187 125.594 196 125.785C194.912 125.959 193.657 126.377 192.956 126.797C192.581 127.022 182.398 134.881 181.922 135.313C181.791 135.433 182.427 136.288 186.014 140.824C191.511 147.779 191.578 147.844 193.404 148.034C194.784 148.179 194.916 148.384 194.577 149.855C194.13 151.788 194.603 151.64 189.065 151.575C180.658 151.474 179.172 150.485 173.687 141.338C173.188 140.502 172.686 139.668 172.181 138.836C172.046 138.627 170.311 146.075 170.399 146.486C170.504 146.975 170.846 147.343 171.498 147.669C172.621 148.229 172.631 148.259 172.255 149.84C171.95 151.125 171.853 151.343 171.521 151.484C171.324 151.568 169.052 151.602 163.637 151.602C154.369 151.602 155.106 151.794 155.669 149.538C155.969 148.34 156.08 148.193 156.797 148.049C158.34 147.74 159.33 146.657 159.964 144.584C160.128 144.048 163.624 129.177 163.785 128.333C163.969 127.361 163.412 126.39 162.429 125.969C161.441 125.547 161.402 125.425 161.756 123.913C162.187 122.07 161.186 122.267 169.993 122.298L177.454 122.325L177.681 122.609ZM227.73 122.53C228.083 122.86 228.138 122.485 227.11 126.818C226.03 131.373 226.316 130.967 224.183 130.967C222.119 130.967 222.061 130.929 222.061 129.572C222.061 128.468 221.803 127.938 221.069 127.535L220.547 127.248L216.602 127.217L212.658 127.186L212.523 127.793C212.449 128.128 212.05 129.839 211.636 131.595L210.884 134.79L215.928 134.842L220.972 134.895L221.203 135.184L221.433 135.473L220.908 137.689C220.508 139.378 220.324 139.964 220.136 140.151L219.892 140.395H209.552L208.952 142.963C208.123 146.501 208.178 146.863 209.691 147.807C210.036 148.022 210.354 148.292 210.398 148.408C210.536 148.775 209.905 151.192 209.613 151.412C209.308 151.643 197.43 151.712 196.899 151.486C196.263 151.216 196.177 151.697 199.003 139.734C202.091 126.657 201.81 127.969 201.647 127.396C201.456 126.728 201.053 126.293 200.291 125.934C199.352 125.491 199.314 125.371 199.641 123.927C199.832 123.083 199.98 122.677 200.157 122.509L200.404 122.273H227.455L227.73 122.53Z" fill="#FBFBFB"/>
<path id="Vector_4" fill-rule="evenodd" clip-rule="evenodd" d="M290.734 8.25513C290.735 8.54342 290.756 8.64887 290.782 8.48888C290.808 8.31531 290.807 8.13927 290.781 7.9658C290.754 7.83698 290.733 7.96684 290.734 8.25513ZM206.051 10.5796C206.159 10.6056 206.335 10.6056 206.443 10.5796C206.551 10.5531 206.463 10.5318 206.247 10.5318C206.031 10.5318 205.943 10.5526 206.051 10.5796ZM207.06 10.5796C207.169 10.6056 207.345 10.6056 207.453 10.5796C207.561 10.5531 207.472 10.5318 207.256 10.5318C207.041 10.5318 206.952 10.5526 207.06 10.5796ZM180.03 21.6827C180.138 21.7087 180.315 21.7087 180.423 21.6827C180.531 21.6567 180.442 21.6349 180.227 21.6349C180.011 21.6349 179.922 21.6562 180.03 21.6827ZM181.823 28.943C181.823 29.145 181.846 29.2276 181.874 29.1263C181.902 29.0055 181.902 28.8805 181.874 28.7596C181.846 28.6588 181.823 28.7414 181.823 28.943ZM226.125 30.6187C226.125 30.8207 226.148 30.9033 226.176 30.802C226.204 30.7013 226.204 30.5371 226.176 30.4358C226.148 30.3351 226.125 30.4177 226.125 30.6187ZM175.662 33.2377C175.662 33.5546 175.683 33.6844 175.709 33.5255C175.734 33.3342 175.734 33.1407 175.709 32.9494C175.683 32.7915 175.662 32.9209 175.662 33.2377ZM182.832 41.408C182.832 41.6096 182.855 41.6922 182.884 41.5914C182.911 41.4705 182.911 41.3455 182.884 41.2247C182.855 41.1239 182.832 41.2065 182.832 41.408ZM187.376 42.2152C187.515 42.2402 187.742 42.2402 187.881 42.2152C188.02 42.1903 187.906 42.17 187.629 42.17C187.351 42.17 187.237 42.1903 187.376 42.2152ZM196.35 42.2152C196.489 42.2407 196.692 42.2397 196.799 42.2137C196.906 42.1872 196.792 42.1669 196.546 42.1675C196.299 42.169 196.211 42.1908 196.351 42.2158M216.932 42.2168C217.102 42.2407 217.354 42.2402 217.492 42.2152C217.63 42.1903 217.491 42.1706 217.182 42.1711C216.874 42.1721 216.761 42.1924 216.932 42.2168ZM206.107 44.8337C206.246 44.8587 206.473 44.8587 206.612 44.8337C206.751 44.8088 206.636 44.7886 206.359 44.7886C206.081 44.7886 205.968 44.8093 206.107 44.8337ZM237.565 47.2741C237.565 47.4756 237.588 47.5582 237.616 47.4575C237.644 47.3366 237.644 47.2116 237.616 47.0907C237.588 46.99 237.565 47.0725 237.565 47.2741ZM179.137 48.7929C179.138 49.0812 179.159 49.1867 179.185 49.0267C179.211 48.8531 179.211 48.677 179.184 48.5036C179.157 48.3748 179.136 48.5052 179.137 48.7929ZM194.444 49.129C194.583 49.154 194.785 49.1529 194.893 49.1269C194.999 49.101 194.885 49.0802 194.639 49.0812C194.392 49.0828 194.304 49.1041 194.444 49.129ZM195.958 55.834C196.128 55.8579 196.381 55.8574 196.519 55.8324C196.657 55.8075 196.517 55.7878 196.209 55.7888C195.9 55.7893 195.788 55.8096 195.958 55.834ZM219.791 55.8329C219.931 55.8579 220.133 55.8568 220.24 55.8309C220.347 55.8049 220.233 55.7841 219.986 55.7852C219.739 55.7867 219.651 55.808 219.791 55.8329ZM229.66 65.679C229.799 65.7039 230.025 65.7039 230.164 65.679C230.303 65.654 230.19 65.6338 229.912 65.6338C229.634 65.6338 229.521 65.6546 229.66 65.679ZM198.648 66.6202C198.756 66.6462 198.933 66.6462 199.041 66.6202C199.149 66.5942 199.061 66.5719 198.845 66.5719C198.629 66.5719 198.541 66.5937 198.648 66.6202ZM206.445 67.9858C206.647 68.0087 206.949 68.0082 207.118 67.9843C207.287 67.9609 207.122 67.9411 206.752 67.9422C206.382 67.9422 206.244 67.9624 206.445 67.9858ZM203.581 77.0231C203.581 77.2246 203.605 77.3067 203.632 77.2059C203.661 77.0853 203.661 76.9603 203.632 76.8397C203.605 76.7384 203.581 76.821 203.581 77.0231ZM193.169 92.892C193.169 93.6987 193.187 94.0151 193.208 93.5949C193.229 93.1746 193.229 92.5144 193.208 92.1285C193.186 91.7415 193.169 92.0859 193.169 92.892ZM199.041 96.6866C199.241 96.7099 199.569 96.7099 199.77 96.6866C199.97 96.6632 199.806 96.6445 199.405 96.6445C199.004 96.6445 198.84 96.6632 199.041 96.6866ZM206.731 111.799C206.731 112.174 206.752 112.327 206.776 112.14C206.801 111.914 206.801 111.686 206.776 111.46C206.752 111.272 206.732 111.425 206.732 111.799M214.413 127.171C215.42 127.189 217.035 127.189 218.002 127.171C218.97 127.153 218.147 127.139 216.173 127.139C214.199 127.139 213.407 127.154 214.413 127.171ZM252.264 130.497C252.264 130.785 252.286 130.891 252.312 130.731C252.338 130.557 252.337 130.381 252.31 130.208C252.284 130.079 252.263 130.209 252.264 130.497ZM253.606 131.57C253.96 131.591 254.54 131.591 254.896 131.57C255.25 131.549 254.96 131.532 254.25 131.532C253.541 131.532 253.251 131.549 253.605 131.57M212.107 140.37C213.511 140.386 215.807 140.386 217.21 140.37C218.614 140.353 217.466 140.339 214.659 140.339C211.852 140.339 210.704 140.353 212.107 140.37ZM159.954 151.578C162.036 151.594 165.443 151.594 167.525 151.578C169.606 151.562 167.903 151.549 163.739 151.549C159.576 151.549 157.873 151.562 159.954 151.578ZM188.449 151.578C189.424 151.595 190.989 151.595 191.926 151.578C192.863 151.56 192.065 151.546 190.152 151.546C188.24 151.546 187.474 151.56 188.449 151.578ZM200.098 151.578C201.744 151.594 204.47 151.594 206.155 151.578C207.84 151.562 206.494 151.548 203.163 151.548C199.831 151.548 198.453 151.562 200.098 151.578Z" fill="#7C7C7C"/>
<path id="Vector_5" fill-rule="evenodd" clip-rule="evenodd" d="M167.29 2.72962C188.891 2.74416 224.271 2.74416 245.913 2.72962C267.554 2.71455 249.881 2.70312 206.639 2.70312C163.396 2.70312 145.69 2.71455 167.29 2.72962ZM206.499 8.07052C206.853 8.0913 207.433 8.0913 207.789 8.07052C208.143 8.04975 207.853 8.0326 207.144 8.0326C206.434 8.0326 206.144 8.04975 206.499 8.07052ZM199.321 23.8855C199.49 23.9094 199.768 23.9094 199.937 23.8855C200.107 23.8611 199.969 23.8413 199.629 23.8413C199.289 23.8413 199.151 23.8611 199.321 23.8855ZM226.124 29.9905C226.124 30.192 226.147 30.2741 226.175 30.1738C226.203 30.053 226.203 29.928 226.175 29.8071C226.147 29.7058 226.124 29.7884 226.124 29.9905ZM179.02 34.4421C179.022 34.6722 179.045 34.7548 179.071 34.6239C179.098 34.494 179.097 34.3055 179.069 34.2052C179.041 34.105 179.019 34.2115 179.02 34.4421ZM190.067 42.2197C191.193 42.2368 193.036 42.2368 194.161 42.2197C195.287 42.2026 194.366 42.1885 192.114 42.1885C189.863 42.1885 188.942 42.2026 190.067 42.2197ZM218.392 42.2192C218.878 42.2394 219.364 42.2392 219.85 42.2187C220.233 42.1984 219.89 42.1813 219.088 42.1823C218.286 42.1823 217.973 42.1994 218.392 42.2192ZM222.929 42.2187C223.377 42.2389 224.108 42.2389 224.556 42.2187C225.003 42.1994 224.637 42.1823 223.743 42.1823C222.848 42.1823 222.482 42.1994 222.929 42.2187ZM230.166 47.169C230.166 47.4287 230.189 47.5346 230.215 47.4048C230.241 47.2486 230.241 47.0894 230.215 46.9331C230.188 46.8038 230.166 46.9092 230.166 47.169ZM176.214 47.798C176.214 47.9995 176.237 48.0821 176.265 47.9808C176.293 47.86 176.293 47.735 176.265 47.6141C176.237 47.5139 176.214 47.5965 176.214 47.798ZM182.948 57.2254C182.948 57.4846 182.97 57.5905 182.997 57.4607C183.023 57.3308 183.023 57.1189 182.997 56.9895C182.97 56.8597 182.948 56.9662 182.948 57.2254ZM203.33 58.7245C203.33 58.7421 203.494 58.8959 203.694 59.0647L204.059 59.3727L203.729 59.032C203.422 58.7151 203.33 58.6434 203.33 58.7245ZM206.781 63.6903C207.005 63.7136 207.231 63.7134 207.454 63.6898C207.623 63.6654 207.458 63.6467 207.087 63.6472C206.717 63.6477 206.579 63.667 206.781 63.6903ZM191.58 65.605C191.58 65.8065 191.603 65.8891 191.631 65.7884C191.659 65.6675 191.659 65.5425 191.631 65.4216C191.603 65.3209 191.58 65.4035 191.58 65.605ZM229.053 66.8621C229.053 67.3514 229.072 67.5519 229.096 67.3072C229.12 67.0626 229.12 66.6615 229.096 66.4169C229.072 66.1717 229.053 66.3722 229.053 66.8621ZM199.378 66.6215C199.517 66.6465 199.719 66.646 199.826 66.62C199.934 66.594 199.82 66.5732 199.573 66.5743C199.326 66.5753 199.238 66.5966 199.378 66.6215ZM205.546 67.9835C205.686 68.0085 205.888 68.0074 205.995 67.9814C206.102 67.9555 205.989 67.9347 205.741 67.9357C205.495 67.9373 205.407 67.9586 205.547 67.9835M207.564 67.9835C207.703 68.0085 207.93 68.0085 208.069 67.9835C208.208 67.9586 208.094 67.9378 207.816 67.9378C207.539 67.9378 207.425 67.9586 207.564 67.9835ZM220.602 80.2174C220.33 80.4772 220.132 80.6891 220.163 80.6891C220.194 80.6891 220.442 80.4766 220.715 80.2174C220.987 79.9582 221.185 79.7463 221.154 79.7463C221.123 79.7463 220.875 79.9582 220.602 80.2174ZM222.506 82.6526L221.78 83.3601L222.537 82.6822C222.954 82.3092 223.294 81.9913 223.294 81.9747C223.294 81.8978 223.18 81.9955 222.506 82.6526ZM212 84.1455C212 84.4623 212.021 84.5922 212.047 84.4332C212.072 84.2421 212.072 84.0488 212.047 83.8577C212.021 83.6993 212 83.8286 212 84.1455ZM219.863 93.7821C219.863 94.7327 219.88 95.1218 219.901 94.6465C219.922 94.1712 219.922 93.3936 219.901 92.9183C219.88 92.443 219.863 92.8316 219.863 93.7821ZM193.157 94.8299C193.157 95.1467 193.178 95.2766 193.204 95.1176C193.23 94.9264 193.23 94.7329 193.204 94.5416C193.178 94.3837 193.157 94.513 193.157 94.8299ZM202.685 96.5783C202.793 96.6043 202.97 96.6043 203.078 96.5783C203.186 96.5518 203.098 96.53 202.881 96.53C202.665 96.53 202.578 96.5518 202.685 96.5783ZM197.863 96.6858C198.032 96.7097 198.309 96.7097 198.479 96.6858C198.649 96.6614 198.51 96.6417 198.171 96.6417C197.832 96.6417 197.693 96.6614 197.862 96.6858M194.78 96.7913C195.004 96.8148 195.229 96.8144 195.453 96.7902C195.622 96.7663 195.457 96.7471 195.086 96.7476C194.717 96.7487 194.578 96.7679 194.78 96.7913ZM211.992 109.599C211.992 109.801 212.015 109.884 212.044 109.783C212.072 109.682 212.072 109.517 212.044 109.416C212.016 109.316 211.992 109.398 211.992 109.599ZM206.727 112.899C206.728 113.187 206.75 113.293 206.776 113.133C206.801 112.974 206.801 112.738 206.774 112.61C206.747 112.481 206.726 112.611 206.727 112.899ZM166.234 122.353C168.255 122.369 171.56 122.369 173.581 122.353C175.601 122.336 173.948 122.323 169.907 122.323C165.867 122.323 164.214 122.337 166.234 122.353ZM187.208 122.353C189.043 122.369 192.046 122.369 193.881 122.353C195.716 122.336 194.214 122.323 190.544 122.323C186.874 122.323 185.373 122.336 187.208 122.353ZM207.236 122.353C210.958 122.368 217.014 122.368 220.696 122.353C224.377 122.337 221.331 122.324 213.929 122.324C206.526 122.324 203.515 122.337 207.236 122.353ZM246.929 126.644C247.19 126.668 247.453 126.668 247.714 126.645C247.946 126.622 247.784 126.604 247.352 126.603C246.92 126.603 246.729 126.621 246.929 126.644M213.284 134.923C214.656 134.939 216.902 134.939 218.275 134.923C219.647 134.905 218.524 134.892 215.779 134.892C213.034 134.892 211.911 134.905 213.284 134.923ZM236.675 137.934C236.676 138.28 236.697 138.408 236.722 138.22C236.746 138.012 236.746 137.801 236.72 137.592C236.695 137.435 236.674 137.588 236.675 137.934ZM225.682 139.139C225.682 139.456 225.704 139.586 225.729 139.427C225.755 139.235 225.755 139.042 225.729 138.851C225.704 138.692 225.682 138.821 225.682 139.139ZM246.706 146.547C246.907 146.57 247.234 146.57 247.435 146.547C247.635 146.524 247.472 146.505 247.071 146.505C246.67 146.505 246.506 146.524 246.707 146.547M241.715 151.885C241.823 151.911 242 151.911 242.108 151.885C242.216 151.859 242.128 151.838 241.911 151.838C241.696 151.838 241.608 151.859 241.715 151.885ZM244.968 151.885C245.076 151.911 245.253 151.911 245.361 151.885C245.469 151.859 245.38 151.838 245.164 151.838C244.949 151.838 244.86 151.859 244.968 151.885ZM173.692 159.853C191.844 159.867 221.546 159.867 239.697 159.853C257.848 159.838 242.997 159.827 206.695 159.827C170.392 159.827 155.541 159.838 173.692 159.853Z" fill="#6C6C6C"/>
<path id="Vector_6" fill-rule="evenodd" clip-rule="evenodd" d="M227.445 15.7964C227.654 15.9985 227.851 16.1631 227.881 16.1631C227.912 16.1631 227.766 15.9985 227.557 15.7964C227.347 15.5949 227.151 15.4297 227.12 15.4297C227.09 15.4297 227.235 15.5949 227.445 15.7964ZM229.239 147.466C229.448 147.667 229.645 147.832 229.676 147.832C229.707 147.832 229.561 147.667 229.351 147.466C229.142 147.264 228.945 147.099 228.915 147.099C228.884 147.099 229.03 147.264 229.239 147.466Z" fill="#9C9C9C"/>
<path id="Vector_7" fill-rule="evenodd" clip-rule="evenodd" d="M122.611 8.30722C122.611 8.62408 122.632 8.75394 122.658 8.59499C122.684 8.40353 122.684 8.20987 122.658 8.01841C122.632 7.8605 122.611 7.99036 122.611 8.30722ZM195.004 13.619C195.143 13.644 195.346 13.6424 195.453 13.6164C195.561 13.5905 195.446 13.5697 195.2 13.5707C194.953 13.5723 194.865 13.5936 195.005 13.619M196.014 17.7039C196.153 17.7289 196.355 17.7278 196.463 17.7019C196.57 17.6759 196.456 17.6551 196.209 17.6561C195.963 17.6572 195.874 17.6785 196.014 17.7039ZM226.135 31.5616C226.135 31.9356 226.155 32.0888 226.18 31.9019C226.205 31.7149 226.205 31.4084 226.18 31.2214C226.155 31.0339 226.135 31.1866 226.135 31.5616ZM237.68 36.2226C237.681 36.4532 237.703 36.5353 237.73 36.4049C237.757 36.2745 237.756 36.086 237.728 35.9857C237.7 35.886 237.678 35.9919 237.68 36.2226ZM232.406 36.4849C232.406 36.6859 232.429 36.7685 232.457 36.6677C232.485 36.5471 232.485 36.4222 232.457 36.3015C232.429 36.2002 232.406 36.2828 232.406 36.4849ZM216.032 42.2133C216.14 42.2393 216.317 42.2393 216.425 42.2133C216.532 42.1873 216.444 42.165 216.229 42.165C216.012 42.165 215.924 42.1868 216.032 42.2133ZM230.05 48.845C230.05 49.0466 230.073 49.1292 230.102 49.0284C230.129 48.9075 230.129 48.7825 230.102 48.6617C230.073 48.5609 230.05 48.643 230.05 48.845ZM187.659 67.9091C187.659 68.1688 187.681 68.2748 187.707 68.1449C187.734 68.015 187.734 67.8031 187.707 67.6738C187.681 67.5439 187.659 67.6499 187.659 67.9091ZM204.592 69.4477C204.7 69.4742 204.877 69.4742 204.985 69.4477C205.092 69.4217 205.004 69.4004 204.789 69.4004C204.572 69.4004 204.484 69.4212 204.592 69.4477ZM208.293 71.6475C208.401 71.674 208.578 71.674 208.686 71.6475C208.794 71.6215 208.705 71.5997 208.489 71.5997C208.274 71.5997 208.185 71.6215 208.293 71.6475ZM209.527 71.6475C209.635 71.674 209.812 71.674 209.919 71.6475C210.028 71.6215 209.939 71.5997 209.723 71.5997C209.507 71.5997 209.419 71.6215 209.527 71.6475ZM217.274 72.8324C217.274 73.2069 217.294 73.3601 217.318 73.1731C217.343 72.9469 217.343 72.7189 217.318 72.4926C217.294 72.3051 217.274 72.4578 217.274 72.8324ZM215.585 89.2488C215.755 89.2722 216.008 89.2722 216.146 89.2467C216.284 89.2218 216.145 89.2021 215.836 89.2031C215.527 89.2041 215.415 89.2244 215.585 89.2488ZM199.154 89.4566C199.293 89.482 199.495 89.481 199.602 89.455C199.71 89.4291 199.596 89.4083 199.349 89.4093C199.102 89.4104 199.014 89.4317 199.154 89.4566ZM219.956 91.0586C219.956 91.2606 219.979 91.3432 220.007 91.2419C220.035 91.1211 220.035 90.996 220.007 90.8752C219.979 90.7744 219.956 90.857 219.956 91.0586ZM214.013 96.3688C214.121 96.3948 214.298 96.3948 214.406 96.3688C214.514 96.3418 214.426 96.3205 214.21 96.3205C213.994 96.3205 213.906 96.3418 214.013 96.3688ZM200.501 96.6862C200.724 96.7097 200.95 96.7093 201.174 96.6852C201.342 96.6613 201.177 96.6426 200.806 96.6431C200.437 96.6436 200.299 96.6628 200.501 96.6862ZM206.727 103.472C206.728 103.759 206.75 103.865 206.776 103.705C206.801 103.546 206.801 103.311 206.774 103.182C206.748 103.053 206.726 103.183 206.727 103.472ZM206.737 110.071C206.737 110.704 206.756 110.95 206.778 110.617C206.8 110.284 206.8 109.765 206.778 109.464C206.755 109.164 206.737 109.437 206.737 110.071ZM212.122 112.061C212.122 112.81 212.14 113.103 212.162 112.712C212.184 112.258 212.184 111.803 212.162 111.35C212.14 110.992 212.122 111.311 212.122 112.061ZM186.087 151.57C186.194 151.596 186.371 151.596 186.479 151.57C186.587 151.545 186.499 151.523 186.283 151.523C186.067 151.523 185.979 151.544 186.087 151.57Z" fill="#BCBCBC"/>
<path id="Vector_8" fill-rule="evenodd" clip-rule="evenodd" d="M127.898 7.70352L127.568 8.04427L127.932 7.73676C128.133 7.5669 128.297 7.41419 128.297 7.39601C128.297 7.31497 128.205 7.38614 127.898 7.70352ZM127.09 9.56312C127.09 9.76466 127.112 9.84726 127.141 9.74648C127.169 9.64519 127.169 9.48053 127.141 9.37924C127.113 9.27899 127.09 9.36158 127.09 9.56312Z" fill="#F4839A"/>
<path id="Vector_9" fill-rule="evenodd" clip-rule="evenodd" d="M248.697 60.4195C248.697 89.9166 248.71 101.968 248.725 87.2004C248.742 72.4327 248.742 48.2989 248.725 33.569C248.71 18.8397 248.697 30.9225 248.697 60.4195ZM207.761 22.2384C208.064 22.5262 208.338 22.762 208.369 22.762C208.4 22.762 208.176 22.5262 207.872 22.2384C207.569 21.9507 207.294 21.7148 207.264 21.7148C207.233 21.7148 207.456 21.9507 207.761 22.2384ZM190.707 24.8834L190.264 25.3286L190.74 24.9146C191.184 24.5292 191.269 24.4383 191.184 24.4383C191.165 24.4383 190.951 24.6388 190.707 24.8834ZM224.017 54.4226L223.687 54.7628L224.051 54.4553C224.251 54.286 224.415 54.1333 224.415 54.1151C224.415 54.034 224.323 54.1052 224.016 54.4226M215.331 63.2282C215.331 63.2464 215.495 63.3996 215.695 63.5684L216.06 63.8759L215.731 63.5357C215.424 63.2188 215.331 63.1471 215.331 63.2282ZM230.691 127.485L230.304 127.878L230.725 127.516C231.116 127.181 231.197 127.092 231.111 127.092C231.092 127.092 230.903 127.269 230.691 127.485ZM238.883 143.57C238.883 143.589 239.048 143.742 239.249 143.911L239.613 144.219L239.284 143.878C238.976 143.561 238.883 143.49 238.883 143.57Z" fill="#CCCCCC"/>
</g>
<g id="AdSpend = $250,000">
<path d="M4.2081 233.443H0.514915L11.1967 204.352H14.8331L25.5149 233.443H21.8217L13.1286 208.955H12.9013L4.2081 233.443ZM5.57173 222.08H20.4581V225.205H5.57173V222.08ZM37.8303 233.898C36.0121 233.898 34.407 233.439 33.0149 232.52C31.6229 231.592 30.5339 230.285 29.7479 228.6C28.9619 226.905 28.5689 224.902 28.5689 222.591C28.5689 220.299 28.9619 218.311 29.7479 216.625C30.5339 214.94 31.6276 213.637 33.0291 212.719C34.4306 211.8 36.05 211.341 37.8871 211.341C39.3075 211.341 40.4297 211.578 41.2536 212.051C42.0869 212.515 42.7214 213.046 43.157 213.642C43.602 214.229 43.9477 214.712 44.1939 215.091H44.478V204.352H47.8303V233.443H44.5916V230.091H44.1939C43.9477 230.489 43.5973 230.991 43.1428 231.597C42.6882 232.193 42.0395 232.728 41.1967 233.202C40.3539 233.666 39.2318 233.898 37.8303 233.898ZM38.2848 230.887C39.6295 230.887 40.7659 230.536 41.6939 229.835C42.6219 229.125 43.3274 228.145 43.8104 226.895C44.2933 225.636 44.5348 224.182 44.5348 222.534C44.5348 220.905 44.2981 219.48 43.8246 218.259C43.3511 217.028 42.6503 216.071 41.7223 215.389C40.7943 214.698 39.6484 214.352 38.2848 214.352C36.8643 214.352 35.6806 214.717 34.7337 215.446C33.7962 216.166 33.0907 217.146 32.6172 218.387C32.1532 219.618 31.9212 221 31.9212 222.534C31.9212 224.087 32.1579 225.498 32.6314 226.767C33.1143 228.027 33.8246 229.03 34.7621 229.779C35.709 230.517 36.8833 230.887 38.2848 230.887ZM70.799 211.625C70.6286 210.186 69.9373 209.068 68.7251 208.273C67.513 207.477 66.0263 207.08 64.2649 207.08C62.977 207.08 61.8501 207.288 60.8842 207.705C59.9278 208.121 59.1797 208.694 58.6399 209.423C58.1096 210.153 57.8445 210.981 57.8445 211.909C57.8445 212.686 58.0291 213.353 58.3984 213.912C58.7772 214.461 59.2602 214.921 59.8473 215.29C60.4344 215.65 61.05 215.948 61.6939 216.185C62.3378 216.412 62.9297 216.597 63.4695 216.739L66.424 217.534C67.1816 217.733 68.0244 218.008 68.9524 218.358C69.8899 218.709 70.7848 219.187 71.6371 219.793C72.4988 220.389 73.209 221.156 73.7678 222.094C74.3265 223.031 74.6058 224.182 74.6058 225.546C74.6058 227.118 74.1939 228.538 73.37 229.807C72.5556 231.076 71.3625 232.084 69.7905 232.833C68.228 233.581 66.3293 233.955 64.0945 233.955C62.0111 233.955 60.2071 233.619 58.6825 232.946C57.1674 232.274 55.9742 231.336 55.103 230.134C54.2412 228.931 53.7536 227.534 53.6399 225.943H57.2763C57.371 227.042 57.7403 227.951 58.3842 228.671C59.0376 229.381 59.8615 229.911 60.8558 230.262C61.8596 230.602 62.9392 230.773 64.0945 230.773C65.4392 230.773 66.6465 230.555 67.7166 230.119C68.7867 229.674 69.6342 229.059 70.2592 228.273C70.8842 227.477 71.1967 226.549 71.1967 225.489C71.1967 224.523 70.9268 223.737 70.3871 223.131C69.8473 222.525 69.1371 222.032 68.2564 221.654C67.3757 221.275 66.424 220.943 65.4013 220.659L61.8217 219.637C59.549 218.983 57.7498 218.05 56.424 216.838C55.0982 215.626 54.4354 214.04 54.4354 212.08C54.4354 210.451 54.8757 209.03 55.7564 207.818C56.6465 206.597 57.8397 205.65 59.3359 204.977C60.8416 204.296 62.5225 203.955 64.3786 203.955C66.2536 203.955 67.9202 204.291 69.3786 204.963C70.8369 205.626 71.9922 206.535 72.8445 207.691C73.7062 208.846 74.1607 210.157 74.2081 211.625H70.799ZM79.9432 241.625V211.625H83.1818V215.091H83.5795C83.8258 214.712 84.1667 214.229 84.6023 213.642C85.0473 213.046 85.6818 212.515 86.5057 212.051C87.339 211.578 88.4659 211.341 89.8864 211.341C91.7235 211.341 93.3428 211.8 94.7443 212.719C96.1458 213.637 97.2396 214.94 98.0256 216.625C98.8116 218.311 99.2045 220.299 99.2045 222.591C99.2045 224.902 98.8116 226.905 98.0256 228.6C97.2396 230.285 96.1506 231.592 94.7585 232.52C93.3665 233.439 91.7614 233.898 89.9432 233.898C88.5417 233.898 87.4195 233.666 86.5767 233.202C85.7339 232.728 85.0852 232.193 84.6307 231.597C84.1761 230.991 83.8258 230.489 83.5795 230.091H83.2955V241.625H79.9432ZM83.2386 222.534C83.2386 224.182 83.4801 225.636 83.9631 226.895C84.446 228.145 85.1515 229.125 86.0795 229.835C87.0076 230.536 88.1439 230.887 89.4886 230.887C90.8902 230.887 92.0597 230.517 92.9972 229.779C93.9441 229.03 94.6544 228.027 95.1278 226.767C95.6108 225.498 95.8523 224.087 95.8523 222.534C95.8523 221 95.6155 219.618 95.142 218.387C94.678 217.146 93.9725 216.166 93.0256 215.446C92.0881 214.717 90.9091 214.352 89.4886 214.352C88.125 214.352 86.9792 214.698 86.0511 215.389C85.1231 216.071 84.4223 217.028 83.9489 218.259C83.4754 219.48 83.2386 220.905 83.2386 222.534ZM113.466 233.898C111.364 233.898 109.55 233.434 108.026 232.506C106.51 231.568 105.341 230.262 104.517 228.585C103.703 226.9 103.295 224.94 103.295 222.705C103.295 220.47 103.703 218.5 104.517 216.796C105.341 215.082 106.487 213.746 107.955 212.79C109.432 211.824 111.155 211.341 113.125 211.341C114.261 211.341 115.384 211.53 116.491 211.909C117.599 212.288 118.608 212.904 119.517 213.756C120.426 214.599 121.151 215.716 121.69 217.108C122.23 218.5 122.5 220.214 122.5 222.25V223.671H105.682V220.773H119.091C119.091 219.542 118.845 218.443 118.352 217.477C117.869 216.512 117.178 215.749 116.278 215.191C115.388 214.632 114.337 214.352 113.125 214.352C111.79 214.352 110.634 214.684 109.659 215.347C108.693 216 107.95 216.852 107.429 217.904C106.908 218.955 106.648 220.082 106.648 221.284V223.216C106.648 224.864 106.932 226.261 107.5 227.406C108.078 228.543 108.878 229.409 109.901 230.006C110.923 230.593 112.112 230.887 113.466 230.887C114.347 230.887 115.142 230.763 115.852 230.517C116.572 230.262 117.192 229.883 117.713 229.381C118.234 228.869 118.636 228.235 118.92 227.477L122.159 228.387C121.818 229.485 121.245 230.451 120.44 231.284C119.635 232.108 118.641 232.752 117.457 233.216C116.274 233.671 114.943 233.898 113.466 233.898ZM130.952 220.318V233.443H127.599V211.625H130.838V215.034H131.122C131.634 213.926 132.41 213.036 133.452 212.364C134.493 211.682 135.838 211.341 137.486 211.341C138.963 211.341 140.256 211.644 141.364 212.25C142.472 212.847 143.333 213.756 143.949 214.977C144.564 216.19 144.872 217.724 144.872 219.58V233.443H141.52V219.807C141.52 218.093 141.075 216.758 140.185 215.801C139.295 214.835 138.073 214.352 136.52 214.352C135.45 214.352 134.493 214.584 133.651 215.048C132.817 215.512 132.159 216.19 131.676 217.08C131.193 217.97 130.952 219.049 130.952 220.318ZM159.237 233.898C157.418 233.898 155.813 233.439 154.421 232.52C153.029 231.592 151.94 230.285 151.154 228.6C150.368 226.905 149.975 224.902 149.975 222.591C149.975 220.299 150.368 218.311 151.154 216.625C151.94 214.94 153.034 213.637 154.435 212.719C155.837 211.8 157.456 211.341 159.293 211.341C160.714 211.341 161.836 211.578 162.66 212.051C163.493 212.515 164.128 213.046 164.563 213.642C165.008 214.229 165.354 214.712 165.6 215.091H165.884V204.352H169.237V233.443H165.998V230.091H165.6C165.354 230.489 165.004 230.991 164.549 231.597C164.094 232.193 163.446 232.728 162.603 233.202C161.76 233.666 160.638 233.898 159.237 233.898ZM159.691 230.887C161.036 230.887 162.172 230.536 163.1 229.835C164.028 229.125 164.734 228.145 165.217 226.895C165.7 225.636 165.941 224.182 165.941 222.534C165.941 220.905 165.704 219.48 165.231 218.259C164.757 217.028 164.057 216.071 163.129 215.389C162.201 214.698 161.055 214.352 159.691 214.352C158.271 214.352 157.087 214.717 156.14 215.446C155.202 216.166 154.497 217.146 154.023 218.387C153.559 219.618 153.327 221 153.327 222.534C153.327 224.087 153.564 225.498 154.038 226.767C154.521 228.027 155.231 229.03 156.168 229.779C157.115 230.517 158.29 230.887 159.691 230.887ZM188.455 219.409V216.341H205.955V219.409H188.455ZM188.455 227.818V224.75H205.955V227.818H188.455Z" fill="white"/>
<path d="M233.232 237.08V200.716H235.561V237.08H233.232ZM241.072 211.625C240.902 210.186 240.211 209.068 238.999 208.273C237.786 207.477 236.3 207.08 234.538 207.08C233.25 207.08 232.124 207.288 231.158 207.705C230.201 208.121 229.453 208.694 228.913 209.423C228.383 210.153 228.118 210.981 228.118 211.909C228.118 212.686 228.303 213.353 228.672 213.912C229.051 214.461 229.534 214.921 230.121 215.29C230.708 215.65 231.323 215.948 231.967 216.185C232.611 216.412 233.203 216.597 233.743 216.739L236.697 217.534C237.455 217.733 238.298 218.008 239.226 218.358C240.163 218.709 241.058 219.187 241.911 219.793C242.772 220.389 243.482 221.156 244.041 222.094C244.6 223.031 244.879 224.182 244.879 225.546C244.879 227.118 244.467 228.538 243.643 229.807C242.829 231.076 241.636 232.084 240.064 232.833C238.501 233.581 236.603 233.955 234.368 233.955C232.285 233.955 230.481 233.619 228.956 232.946C227.441 232.274 226.248 231.336 225.376 230.134C224.515 228.931 224.027 227.534 223.913 225.943H227.55C227.644 227.042 228.014 227.951 228.658 228.671C229.311 229.381 230.135 229.911 231.129 230.262C232.133 230.602 233.213 230.773 234.368 230.773C235.713 230.773 236.92 230.555 237.99 230.119C239.06 229.674 239.908 229.059 240.533 228.273C241.158 227.477 241.47 226.549 241.47 225.489C241.47 224.523 241.2 223.737 240.661 223.131C240.121 222.525 239.411 222.032 238.53 221.654C237.649 221.275 236.697 220.943 235.675 220.659L232.095 219.637C229.822 218.983 228.023 218.05 226.697 216.838C225.372 215.626 224.709 214.04 224.709 212.08C224.709 210.451 225.149 209.03 226.03 207.818C226.92 206.597 228.113 205.65 229.609 204.977C231.115 204.296 232.796 203.955 234.652 203.955C236.527 203.955 238.194 204.291 239.652 204.963C241.11 205.626 242.266 206.535 243.118 207.691C243.98 208.846 244.434 210.157 244.482 211.625H241.072ZM250.16 233.443V230.887L259.762 220.375C260.889 219.144 261.817 218.074 262.546 217.165C263.275 216.246 263.815 215.385 264.165 214.58C264.525 213.765 264.705 212.913 264.705 212.023C264.705 211 264.459 210.115 263.967 209.367C263.484 208.619 262.821 208.041 261.978 207.634C261.135 207.227 260.188 207.023 259.137 207.023C258.02 207.023 257.044 207.255 256.211 207.719C255.387 208.173 254.748 208.813 254.293 209.637C253.848 210.46 253.626 211.426 253.626 212.534H250.273C250.273 210.83 250.666 209.334 251.452 208.046C252.238 206.758 253.308 205.754 254.663 205.034C256.026 204.315 257.556 203.955 259.251 203.955C260.955 203.955 262.466 204.315 263.782 205.034C265.098 205.754 266.13 206.725 266.879 207.946C267.627 209.168 268.001 210.527 268.001 212.023C268.001 213.093 267.807 214.139 267.418 215.162C267.04 216.175 266.377 217.307 265.43 218.557C264.492 219.798 263.19 221.313 261.523 223.102L254.989 230.091V230.318H268.512V233.443H250.16ZM283.469 233.841C281.803 233.841 280.302 233.51 278.967 232.847C277.631 232.184 276.561 231.275 275.756 230.119C274.951 228.964 274.511 227.648 274.435 226.171H277.844C277.977 227.487 278.574 228.576 279.634 229.438C280.704 230.29 281.983 230.716 283.469 230.716C284.663 230.716 285.723 230.437 286.651 229.878C287.589 229.319 288.323 228.552 288.853 227.577C289.393 226.592 289.663 225.479 289.663 224.239C289.663 222.97 289.383 221.838 288.825 220.844C288.275 219.84 287.518 219.049 286.552 218.472C285.586 217.894 284.483 217.601 283.242 217.591C282.352 217.582 281.438 217.719 280.501 218.003C279.563 218.278 278.791 218.633 278.185 219.068L274.89 218.671L276.651 204.352H291.765V207.477H279.606L278.583 216.057H278.754C279.35 215.584 280.098 215.191 280.998 214.878C281.897 214.566 282.835 214.409 283.81 214.409C285.591 214.409 287.177 214.835 288.569 215.688C289.97 216.53 291.069 217.686 291.864 219.154C292.669 220.621 293.072 222.298 293.072 224.182C293.072 226.038 292.655 227.695 291.822 229.154C290.998 230.602 289.862 231.748 288.413 232.591C286.964 233.424 285.316 233.841 283.469 233.841ZM308.203 233.841C306.063 233.841 304.24 233.259 302.734 232.094C301.229 230.92 300.078 229.22 299.283 226.994C298.487 224.76 298.089 222.061 298.089 218.898C298.089 215.754 298.487 213.069 299.283 210.844C300.088 208.609 301.243 206.905 302.749 205.73C304.264 204.547 306.082 203.955 308.203 203.955C310.324 203.955 312.138 204.547 313.643 205.73C315.159 206.905 316.314 208.609 317.109 210.844C317.914 213.069 318.317 215.754 318.317 218.898C318.317 222.061 317.919 224.76 317.124 226.994C316.328 229.22 315.178 230.92 313.672 232.094C312.166 233.259 310.343 233.841 308.203 233.841ZM308.203 230.716C310.324 230.716 311.972 229.693 313.146 227.648C314.321 225.602 314.908 222.686 314.908 218.898C314.908 216.379 314.638 214.234 314.098 212.463C313.568 210.692 312.801 209.343 311.797 208.415C310.803 207.487 309.605 207.023 308.203 207.023C306.101 207.023 304.458 208.06 303.274 210.134C302.09 212.198 301.499 215.119 301.499 218.898C301.499 221.417 301.764 223.557 302.294 225.318C302.824 227.08 303.587 228.42 304.581 229.338C305.585 230.257 306.792 230.716 308.203 230.716ZM327.756 229.466L327.528 231C327.367 232.08 327.121 233.235 326.79 234.466C326.468 235.697 326.132 236.857 325.781 237.946C325.431 239.035 325.142 239.902 324.915 240.546H322.358C322.481 239.94 322.642 239.139 322.841 238.145C323.04 237.151 323.239 236.038 323.438 234.807C323.646 233.585 323.816 232.335 323.949 231.057L324.119 229.466H327.756ZM342.383 233.841C340.243 233.841 338.42 233.259 336.914 232.094C335.408 230.92 334.258 229.22 333.462 226.994C332.667 224.76 332.269 222.061 332.269 218.898C332.269 215.754 332.667 213.069 333.462 210.844C334.267 208.609 335.423 206.905 336.928 205.73C338.443 204.547 340.262 203.955 342.383 203.955C344.504 203.955 346.317 204.547 347.823 205.73C349.338 206.905 350.494 208.609 351.289 210.844C352.094 213.069 352.496 215.754 352.496 218.898C352.496 222.061 352.099 224.76 351.303 226.994C350.508 229.22 349.357 230.92 347.852 232.094C346.346 233.259 344.523 233.841 342.383 233.841ZM342.383 230.716C344.504 230.716 346.152 229.693 347.326 227.648C348.5 225.602 349.087 222.686 349.087 218.898C349.087 216.379 348.817 214.234 348.278 212.463C347.747 210.692 346.98 209.343 345.977 208.415C344.982 207.487 343.784 207.023 342.383 207.023C340.281 207.023 338.638 208.06 337.454 210.134C336.27 212.198 335.678 215.119 335.678 218.898C335.678 221.417 335.943 223.557 336.474 225.318C337.004 227.08 337.766 228.42 338.761 229.338C339.764 230.257 340.972 230.716 342.383 230.716ZM367.383 233.841C365.243 233.841 363.42 233.259 361.914 232.094C360.408 230.92 359.258 229.22 358.462 226.994C357.667 224.76 357.269 222.061 357.269 218.898C357.269 215.754 357.667 213.069 358.462 210.844C359.267 208.609 360.423 206.905 361.928 205.73C363.443 204.547 365.262 203.955 367.383 203.955C369.504 203.955 371.317 204.547 372.823 205.73C374.338 206.905 375.494 208.609 376.289 210.844C377.094 213.069 377.496 215.754 377.496 218.898C377.496 222.061 377.099 224.76 376.303 226.994C375.508 229.22 374.357 230.92 372.852 232.094C371.346 233.259 369.523 233.841 367.383 233.841ZM367.383 230.716C369.504 230.716 371.152 229.693 372.326 227.648C373.5 225.602 374.087 222.686 374.087 218.898C374.087 216.379 373.817 214.234 373.278 212.463C372.747 210.692 371.98 209.343 370.977 208.415C369.982 207.487 368.784 207.023 367.383 207.023C365.281 207.023 363.638 208.06 362.454 210.134C361.27 212.198 360.678 215.119 360.678 218.898C360.678 221.417 360.943 223.557 361.474 225.318C362.004 227.08 362.766 228.42 363.761 229.338C364.764 230.257 365.972 230.716 367.383 230.716ZM392.383 233.841C390.243 233.841 388.42 233.259 386.914 232.094C385.408 230.92 384.258 229.22 383.462 226.994C382.667 224.76 382.269 222.061 382.269 218.898C382.269 215.754 382.667 213.069 383.462 210.844C384.267 208.609 385.423 206.905 386.928 205.73C388.443 204.547 390.262 203.955 392.383 203.955C394.504 203.955 396.317 204.547 397.823 205.73C399.338 206.905 400.494 208.609 401.289 210.844C402.094 213.069 402.496 215.754 402.496 218.898C402.496 222.061 402.099 224.76 401.303 226.994C400.508 229.22 399.357 230.92 397.852 232.094C396.346 233.259 394.523 233.841 392.383 233.841ZM392.383 230.716C394.504 230.716 396.152 229.693 397.326 227.648C398.5 225.602 399.087 222.686 399.087 218.898C399.087 216.379 398.817 214.234 398.278 212.463C397.747 210.692 396.98 209.343 395.977 208.415C394.982 207.487 393.784 207.023 392.383 207.023C390.281 207.023 388.638 208.06 387.454 210.134C386.27 212.198 385.678 215.119 385.678 218.898C385.678 221.417 385.943 223.557 386.474 225.318C387.004 227.08 387.766 228.42 388.761 229.338C389.764 230.257 390.972 230.716 392.383 230.716Z" fill="#14E742"/>
</g>
<g id="AdSpend = $500,000">
<path d="M499.423 233.443H495.73L506.412 204.352H510.048L520.73 233.443H517.037L508.343 208.955H508.116L499.423 233.443ZM500.787 222.08H515.673V225.205H500.787V222.08ZM533.045 233.898C531.227 233.898 529.622 233.439 528.23 232.52C526.838 231.592 525.749 230.285 524.963 228.6C524.177 226.905 523.784 224.902 523.784 222.591C523.784 220.299 524.177 218.311 524.963 216.625C525.749 214.94 526.842 213.637 528.244 212.719C529.645 211.8 531.265 211.341 533.102 211.341C534.522 211.341 535.645 211.578 536.468 212.051C537.302 212.515 537.936 213.046 538.372 213.642C538.817 214.229 539.163 214.712 539.409 215.091H539.693V204.352H543.045V233.443H539.806V230.091H539.409C539.163 230.489 538.812 230.991 538.358 231.597C537.903 232.193 537.254 232.728 536.412 233.202C535.569 233.666 534.447 233.898 533.045 233.898ZM533.5 230.887C534.844 230.887 535.981 230.536 536.909 229.835C537.837 229.125 538.542 228.145 539.025 226.895C539.508 225.636 539.75 224.182 539.75 222.534C539.75 220.905 539.513 219.48 539.039 218.259C538.566 217.028 537.865 216.071 536.937 215.389C536.009 214.698 534.863 214.352 533.5 214.352C532.079 214.352 530.895 214.717 529.949 215.446C529.011 216.166 528.306 217.146 527.832 218.387C527.368 219.618 527.136 221 527.136 222.534C527.136 224.087 527.373 225.498 527.846 226.767C528.329 228.027 529.039 229.03 529.977 229.779C530.924 230.517 532.098 230.887 533.5 230.887ZM566.014 211.625C565.843 210.186 565.152 209.068 563.94 208.273C562.728 207.477 561.241 207.08 559.48 207.08C558.192 207.08 557.065 207.288 556.099 207.705C555.143 208.121 554.395 208.694 553.855 209.423C553.324 210.153 553.059 210.981 553.059 211.909C553.059 212.686 553.244 213.353 553.613 213.912C553.992 214.461 554.475 214.921 555.062 215.29C555.649 215.65 556.265 215.948 556.909 216.185C557.553 216.412 558.145 216.597 558.684 216.739L561.639 217.534C562.396 217.733 563.239 218.008 564.167 218.358C565.105 218.709 566 219.187 566.852 219.793C567.714 220.389 568.424 221.156 568.983 222.094C569.541 223.031 569.821 224.182 569.821 225.546C569.821 227.118 569.409 228.538 568.585 229.807C567.77 231.076 566.577 232.084 565.005 232.833C563.443 233.581 561.544 233.955 559.309 233.955C557.226 233.955 555.422 233.619 553.897 232.946C552.382 232.274 551.189 231.336 550.318 230.134C549.456 228.931 548.968 227.534 548.855 225.943H552.491C552.586 227.042 552.955 227.951 553.599 228.671C554.252 229.381 555.076 229.911 556.071 230.262C557.074 230.602 558.154 230.773 559.309 230.773C560.654 230.773 561.861 230.555 562.931 230.119C564.002 229.674 564.849 229.059 565.474 228.273C566.099 227.477 566.412 226.549 566.412 225.489C566.412 224.523 566.142 223.737 565.602 223.131C565.062 222.525 564.352 222.032 563.471 221.654C562.591 221.275 561.639 220.943 560.616 220.659L557.037 219.637C554.764 218.983 552.965 218.05 551.639 216.838C550.313 215.626 549.65 214.04 549.65 212.08C549.65 210.451 550.091 209.03 550.971 207.818C551.861 206.597 553.055 205.65 554.551 204.977C556.056 204.296 557.737 203.955 559.593 203.955C561.468 203.955 563.135 204.291 564.593 204.963C566.052 205.626 567.207 206.535 568.059 207.691C568.921 208.846 569.376 210.157 569.423 211.625H566.014ZM575.158 241.625V211.625H578.397V215.091H578.794C579.041 214.712 579.382 214.229 579.817 213.642C580.262 213.046 580.897 212.515 581.721 212.051C582.554 211.578 583.681 211.341 585.101 211.341C586.938 211.341 588.558 211.8 589.959 212.719C591.361 213.637 592.454 214.94 593.24 216.625C594.026 218.311 594.419 220.299 594.419 222.591C594.419 224.902 594.026 226.905 593.24 228.6C592.454 230.285 591.365 231.592 589.973 232.52C588.581 233.439 586.976 233.898 585.158 233.898C583.757 233.898 582.634 233.666 581.792 233.202C580.949 232.728 580.3 232.193 579.846 231.597C579.391 230.991 579.041 230.489 578.794 230.091H578.51V241.625H575.158ZM578.453 222.534C578.453 224.182 578.695 225.636 579.178 226.895C579.661 228.145 580.366 229.125 581.294 229.835C582.222 230.536 583.359 230.887 584.703 230.887C586.105 230.887 587.275 230.517 588.212 229.779C589.159 229.03 589.869 228.027 590.343 226.767C590.826 225.498 591.067 224.087 591.067 222.534C591.067 221 590.83 219.618 590.357 218.387C589.893 217.146 589.187 216.166 588.24 215.446C587.303 214.717 586.124 214.352 584.703 214.352C583.34 214.352 582.194 214.698 581.266 215.389C580.338 216.071 579.637 217.028 579.164 218.259C578.69 219.48 578.453 220.905 578.453 222.534ZM608.681 233.898C606.578 233.898 604.765 233.434 603.24 232.506C601.725 231.568 600.556 230.262 599.732 228.585C598.917 226.9 598.51 224.94 598.51 222.705C598.51 220.47 598.917 218.5 599.732 216.796C600.556 215.082 601.702 213.746 603.169 212.79C604.647 211.824 606.37 211.341 608.34 211.341C609.476 211.341 610.598 211.53 611.706 211.909C612.814 212.288 613.823 212.904 614.732 213.756C615.641 214.599 616.365 215.716 616.905 217.108C617.445 218.5 617.715 220.214 617.715 222.25V223.671H600.897V220.773H614.306C614.306 219.542 614.06 218.443 613.567 217.477C613.084 216.512 612.393 215.749 611.493 215.191C610.603 214.632 609.552 214.352 608.34 214.352C607.005 214.352 605.849 214.684 604.874 215.347C603.908 216 603.165 216.852 602.644 217.904C602.123 218.955 601.863 220.082 601.863 221.284V223.216C601.863 224.864 602.147 226.261 602.715 227.406C603.292 228.543 604.093 229.409 605.115 230.006C606.138 230.593 607.327 230.887 608.681 230.887C609.561 230.887 610.357 230.763 611.067 230.517C611.787 230.262 612.407 229.883 612.928 229.381C613.449 228.869 613.851 228.235 614.135 227.477L617.374 228.387C617.033 229.485 616.46 230.451 615.655 231.284C614.85 232.108 613.856 232.752 612.672 233.216C611.489 233.671 610.158 233.898 608.681 233.898ZM626.167 220.318V233.443H622.814V211.625H626.053V215.034H626.337C626.848 213.926 627.625 213.036 628.667 212.364C629.708 211.682 631.053 211.341 632.701 211.341C634.178 211.341 635.471 211.644 636.578 212.25C637.686 212.847 638.548 213.756 639.164 214.977C639.779 216.19 640.087 217.724 640.087 219.58V233.443H636.735V219.807C636.735 218.093 636.29 216.758 635.4 215.801C634.509 214.835 633.288 214.352 631.735 214.352C630.665 214.352 629.708 214.584 628.865 215.048C628.032 215.512 627.374 216.19 626.891 217.08C626.408 217.97 626.167 219.049 626.167 220.318ZM654.451 233.898C652.633 233.898 651.028 233.439 649.636 232.52C648.244 231.592 647.155 230.285 646.369 228.6C645.583 226.905 645.19 224.902 645.19 222.591C645.19 220.299 645.583 218.311 646.369 216.625C647.155 214.94 648.249 213.637 649.65 212.719C651.052 211.8 652.671 211.341 654.508 211.341C655.929 211.341 657.051 211.578 657.875 212.051C658.708 212.515 659.342 213.046 659.778 213.642C660.223 214.229 660.569 214.712 660.815 215.091H661.099V204.352H664.451V233.443H661.213V230.091H660.815C660.569 230.489 660.218 230.991 659.764 231.597C659.309 232.193 658.661 232.728 657.818 233.202C656.975 233.666 655.853 233.898 654.451 233.898ZM654.906 230.887C656.251 230.887 657.387 230.536 658.315 229.835C659.243 229.125 659.949 228.145 660.431 226.895C660.914 225.636 661.156 224.182 661.156 222.534C661.156 220.905 660.919 219.48 660.446 218.259C659.972 217.028 659.271 216.071 658.343 215.389C657.415 214.698 656.27 214.352 654.906 214.352C653.485 214.352 652.302 214.717 651.355 215.446C650.417 216.166 649.712 217.146 649.238 218.387C648.774 219.618 648.542 221 648.542 222.534C648.542 224.087 648.779 225.498 649.252 226.767C649.735 228.027 650.446 229.03 651.383 229.779C652.33 230.517 653.504 230.887 654.906 230.887ZM683.67 219.409V216.341H701.17V219.409H683.67ZM683.67 227.818V224.75H701.17V227.818H683.67Z" fill="white"/>
<path d="M728.446 237.08V200.716H730.776V237.08H728.446ZM736.287 211.625C736.117 210.186 735.426 209.068 734.213 208.273C733.001 207.477 731.515 207.08 729.753 207.08C728.465 207.08 727.338 207.288 726.373 207.705C725.416 208.121 724.668 208.694 724.128 209.423C723.598 210.153 723.333 210.981 723.333 211.909C723.333 212.686 723.517 213.353 723.887 213.912C724.266 214.461 724.748 214.921 725.336 215.29C725.923 215.65 726.538 215.948 727.182 216.185C727.826 216.412 728.418 216.597 728.958 216.739L731.912 217.534C732.67 217.733 733.513 218.008 734.441 218.358C735.378 218.709 736.273 219.187 737.125 219.793C737.987 220.389 738.697 221.156 739.256 222.094C739.815 223.031 740.094 224.182 740.094 225.546C740.094 227.118 739.682 228.538 738.858 229.807C738.044 231.076 736.851 232.084 735.279 232.833C733.716 233.581 731.818 233.955 729.583 233.955C727.499 233.955 725.695 233.619 724.171 232.946C722.656 232.274 721.462 231.336 720.591 230.134C719.73 228.931 719.242 227.534 719.128 225.943H722.765C722.859 227.042 723.229 227.951 723.873 228.671C724.526 229.381 725.35 229.911 726.344 230.262C727.348 230.602 728.427 230.773 729.583 230.773C730.927 230.773 732.135 230.555 733.205 230.119C734.275 229.674 735.123 229.059 735.748 228.273C736.373 227.477 736.685 226.549 736.685 225.489C736.685 224.523 736.415 223.737 735.875 223.131C735.336 222.525 734.625 222.032 733.745 221.654C732.864 221.275 731.912 220.943 730.89 220.659L727.31 219.637C725.037 218.983 723.238 218.05 721.912 216.838C720.587 215.626 719.924 214.04 719.924 212.08C719.924 210.451 720.364 209.03 721.245 207.818C722.135 206.597 723.328 205.65 724.824 204.977C726.33 204.296 728.011 203.955 729.867 203.955C731.742 203.955 733.408 204.291 734.867 204.963C736.325 205.626 737.48 206.535 738.333 207.691C739.194 208.846 739.649 210.157 739.696 211.625H736.287ZM754.466 233.841C752.799 233.841 751.298 233.51 749.963 232.847C748.627 232.184 747.557 231.275 746.752 230.119C745.948 228.964 745.507 227.648 745.431 226.171H748.841C748.973 227.487 749.57 228.576 750.63 229.438C751.7 230.29 752.979 230.716 754.466 230.716C755.659 230.716 756.719 230.437 757.647 229.878C758.585 229.319 759.319 228.552 759.849 227.577C760.389 226.592 760.659 225.479 760.659 224.239C760.659 222.97 760.379 221.838 759.821 220.844C759.271 219.84 758.514 219.049 757.548 218.472C756.582 217.894 755.479 217.601 754.238 217.591C753.348 217.582 752.434 217.719 751.497 218.003C750.559 218.278 749.788 218.633 749.181 219.068L745.886 218.671L747.647 204.352H762.761V207.477H750.602L749.579 216.057H749.75C750.346 215.584 751.094 215.191 751.994 214.878C752.894 214.566 753.831 214.409 754.806 214.409C756.587 214.409 758.173 214.835 759.565 215.688C760.967 216.53 762.065 217.686 762.86 219.154C763.665 220.621 764.068 222.298 764.068 224.182C764.068 226.038 763.651 227.695 762.818 229.154C761.994 230.602 760.858 231.748 759.409 232.591C757.96 233.424 756.312 233.841 754.466 233.841ZM779.199 233.841C777.059 233.841 775.236 233.259 773.73 232.094C772.225 230.92 771.074 229.22 770.279 226.994C769.483 224.76 769.086 222.061 769.086 218.898C769.086 215.754 769.483 213.069 770.279 210.844C771.084 208.609 772.239 206.905 773.745 205.73C775.26 204.547 777.078 203.955 779.199 203.955C781.32 203.955 783.134 204.547 784.64 205.73C786.155 206.905 787.31 208.609 788.105 210.844C788.91 213.069 789.313 215.754 789.313 218.898C789.313 222.061 788.915 224.76 788.12 226.994C787.324 229.22 786.174 230.92 784.668 232.094C783.162 233.259 781.339 233.841 779.199 233.841ZM779.199 230.716C781.32 230.716 782.968 229.693 784.142 227.648C785.317 225.602 785.904 222.686 785.904 218.898C785.904 216.379 785.634 214.234 785.094 212.463C784.564 210.692 783.797 209.343 782.793 208.415C781.799 207.487 780.601 207.023 779.199 207.023C777.097 207.023 775.454 208.06 774.27 210.134C773.087 212.198 772.495 215.119 772.495 218.898C772.495 221.417 772.76 223.557 773.29 225.318C773.82 227.08 774.583 228.42 775.577 229.338C776.581 230.257 777.788 230.716 779.199 230.716ZM804.199 233.841C802.059 233.841 800.236 233.259 798.73 232.094C797.225 230.92 796.074 229.22 795.279 226.994C794.483 224.76 794.086 222.061 794.086 218.898C794.086 215.754 794.483 213.069 795.279 210.844C796.084 208.609 797.239 206.905 798.745 205.73C800.26 204.547 802.078 203.955 804.199 203.955C806.32 203.955 808.134 204.547 809.64 205.73C811.155 206.905 812.31 208.609 813.105 210.844C813.91 213.069 814.313 215.754 814.313 218.898C814.313 222.061 813.915 224.76 813.12 226.994C812.324 229.22 811.174 230.92 809.668 232.094C808.162 233.259 806.339 233.841 804.199 233.841ZM804.199 230.716C806.32 230.716 807.968 229.693 809.142 227.648C810.317 225.602 810.904 222.686 810.904 218.898C810.904 216.379 810.634 214.234 810.094 212.463C809.564 210.692 808.797 209.343 807.793 208.415C806.799 207.487 805.601 207.023 804.199 207.023C802.097 207.023 800.454 208.06 799.27 210.134C798.087 212.198 797.495 215.119 797.495 218.898C797.495 221.417 797.76 223.557 798.29 225.318C798.82 227.08 799.583 228.42 800.577 229.338C801.581 230.257 802.788 230.716 804.199 230.716ZM823.752 229.466L823.525 231C823.364 232.08 823.117 233.235 822.786 234.466C822.464 235.697 822.128 236.857 821.777 237.946C821.427 239.035 821.138 239.902 820.911 240.546H818.354C818.477 239.94 818.638 239.139 818.837 238.145C819.036 237.151 819.235 236.038 819.434 234.807C819.642 233.585 819.812 232.335 819.945 231.057L820.115 229.466H823.752ZM838.379 233.841C836.239 233.841 834.416 233.259 832.91 232.094C831.404 230.92 830.254 229.22 829.458 226.994C828.663 224.76 828.265 222.061 828.265 218.898C828.265 215.754 828.663 213.069 829.458 210.844C830.263 208.609 831.419 206.905 832.924 205.73C834.44 204.547 836.258 203.955 838.379 203.955C840.5 203.955 842.314 204.547 843.819 205.73C845.334 206.905 846.49 208.609 847.285 210.844C848.09 213.069 848.493 215.754 848.493 218.898C848.493 222.061 848.095 224.76 847.299 226.994C846.504 229.22 845.353 230.92 843.848 232.094C842.342 233.259 840.519 233.841 838.379 233.841ZM838.379 230.716C840.5 230.716 842.148 229.693 843.322 227.648C844.496 225.602 845.083 222.686 845.083 218.898C845.083 216.379 844.814 214.234 844.274 212.463C843.743 210.692 842.976 209.343 841.973 208.415C840.978 207.487 839.78 207.023 838.379 207.023C836.277 207.023 834.634 208.06 833.45 210.134C832.266 212.198 831.674 215.119 831.674 218.898C831.674 221.417 831.94 223.557 832.47 225.318C833 227.08 833.762 228.42 834.757 229.338C835.761 230.257 836.968 230.716 838.379 230.716ZM863.379 233.841C861.239 233.841 859.416 233.259 857.91 232.094C856.404 230.92 855.254 229.22 854.458 226.994C853.663 224.76 853.265 222.061 853.265 218.898C853.265 215.754 853.663 213.069 854.458 210.844C855.263 208.609 856.419 206.905 857.924 205.73C859.44 204.547 861.258 203.955 863.379 203.955C865.5 203.955 867.314 204.547 868.819 205.73C870.334 206.905 871.49 208.609 872.285 210.844C873.09 213.069 873.493 215.754 873.493 218.898C873.493 222.061 873.095 224.76 872.299 226.994C871.504 229.22 870.353 230.92 868.848 232.094C867.342 233.259 865.519 233.841 863.379 233.841ZM863.379 230.716C865.5 230.716 867.148 229.693 868.322 227.648C869.496 225.602 870.083 222.686 870.083 218.898C870.083 216.379 869.814 214.234 869.274 212.463C868.743 210.692 867.976 209.343 866.973 208.415C865.978 207.487 864.78 207.023 863.379 207.023C861.277 207.023 859.634 208.06 858.45 210.134C857.266 212.198 856.674 215.119 856.674 218.898C856.674 221.417 856.94 223.557 857.47 225.318C858 227.08 858.762 228.42 859.757 229.338C860.761 230.257 861.968 230.716 863.379 230.716ZM888.379 233.841C886.239 233.841 884.416 233.259 882.91 232.094C881.404 230.92 880.254 229.22 879.458 226.994C878.663 224.76 878.265 222.061 878.265 218.898C878.265 215.754 878.663 213.069 879.458 210.844C880.263 208.609 881.419 206.905 882.924 205.73C884.44 204.547 886.258 203.955 888.379 203.955C890.5 203.955 892.314 204.547 893.819 205.73C895.334 206.905 896.49 208.609 897.285 210.844C898.09 213.069 898.493 215.754 898.493 218.898C898.493 222.061 898.095 224.76 897.299 226.994C896.504 229.22 895.353 230.92 893.848 232.094C892.342 233.259 890.519 233.841 888.379 233.841ZM888.379 230.716C890.5 230.716 892.148 229.693 893.322 227.648C894.496 225.602 895.083 222.686 895.083 218.898C895.083 216.379 894.814 214.234 894.274 212.463C893.743 210.692 892.976 209.343 891.973 208.415C890.978 207.487 889.78 207.023 888.379 207.023C886.277 207.023 884.634 208.06 883.45 210.134C882.266 212.198 881.674 215.119 881.674 218.898C881.674 221.417 881.94 223.557 882.47 225.318C883 227.08 883.762 228.42 884.757 229.338C885.761 230.257 886.968 230.716 888.379 230.716Z" fill="#14E742"/>
</g>
<path id="Vector_10" d="M738.063 11.9256C753.926 11.9256 766.793 79.0073 766.793 161.853H789.941C789.941 72.6608 766.589 0.460938 737.995 0.460938C721.655 0.460938 707.222 22.0936 697.691 56.078C688.159 22.0936 673.726 0.460938 657.523 0.460938C628.928 0.460938 605.645 72.5926 605.645 161.785H628.792C628.792 78.939 641.523 11.9256 657.386 11.9256C673.249 11.9256 686.117 73.8892 686.117 150.32H709.128C709.128 73.8892 722.064 11.9256 737.927 11.9256" fill="#FFCC00"/>
</g>
</svg>
