<svg width="24" height="68" viewBox="0 0 24 68" fill="none" xmlns="http://www.w3.org/2000/svg">
<path d="M3.51855 45.8009V24.9974V0.0332031H21.152V24.9974V45.8009C19.633 47.2539 15.8025 50.1597 12.6324 50.1597C9.46239 50.1597 5.23566 47.2539 3.51855 45.8009Z" fill="#C2C2C2"/>
<path d="M2.52741 56.4989L0.942383 47.7812C4.0464 49.4323 10.9677 52.7345 13.8207 52.7345C16.6738 52.7345 21.0855 50.6211 22.9347 49.5644V56.4989C22.6705 56.8952 20.2797 57.6877 12.8301 57.6877C5.38047 57.6877 2.85763 56.8952 2.52741 56.4989Z" fill="#7A7474" stroke="black"/>
<path d="M10.2256 64.4204V57.4199H13.7258V64.4204C13.5463 65.3179 12.9181 67.1129 11.8411 67.1129C10.7641 67.1129 10.3153 65.3179 10.2256 64.4204Z" fill="black" stroke="#0D0D0D"/>
</svg>
