<svg width="379" height="388" viewBox="0 0 379 388" fill="none" xmlns="http://www.w3.org/2000/svg">
<path fill-rule="evenodd" clip-rule="evenodd" d="M107.454 88.2809C107.454 88.2809 87.767 133.375 74.6194 174.63C61.471 215.868 71.9598 252.331 75.0655 255.349C78.1713 258.366 96.2378 245.271 104.01 235.295C111.774 225.327 107.118 185.767 117.341 251.173C127.564 316.58 142.579 354.531 149.507 342.271C176.18 321.474 180.401 227.762 199.828 264.146C219.238 300.531 246.68 368.066 248.502 305.597C250.323 243.128 234.272 198.334 259.192 224.007C284.121 249.69 298.291 285.358 306.514 251.009C314.746 216.669 287.07 123.941 274.968 84.4468C245.51 74.8015 181.576 62.4808 107.454 88.2809Z" fill="#FF4000"/>
<path fill-rule="evenodd" clip-rule="evenodd" d="M127.812 79.4386C127.812 79.4386 94.9293 134.232 92.4454 158.01C89.9514 181.779 94.1308 182.558 114.261 166.118C134.4 149.668 133.962 113.246 145.662 163.89C157.372 214.544 159.991 266.191 174.108 219.34C188.216 172.499 191.114 160.587 202.164 192.592C213.225 224.608 225.818 253.21 228.842 197.24C229.876 155.686 274.907 187.99 284.164 192.061C298.054 210.477 257.032 78.9622 248.457 70.6313C237.421 63.1914 137.624 75.8853 127.812 79.4386Z" fill="#FFFF33" fill-opacity="0.6963"/>
</svg>
