<svg width="173" height="162" viewBox="0 0 173 162" fill="none" xmlns="http://www.w3.org/2000/svg">
<path fill-rule="evenodd" clip-rule="evenodd" d="M8.94628 7.02811C8.38563 7.20944 7.89908 7.54883 7.55379 7.99944C7.20849 8.45005 7.02147 8.98966 7.01856 9.54377C7.01577 10.085 15.755 113.384 15.8346 113.75L15.8863 113.986H44.4823V6.82812L27.0138 6.83124C10.3395 6.83436 9.51692 6.84319 8.94628 7.02811ZM128.6 60.4071V113.987H157.17L157.231 113.541C157.59 110.901 166.075 9.22379 165.966 8.8607C165.687 7.93194 164.799 7.13979 163.817 6.94292C163.418 6.86293 158.022 6.82864 145.923 6.82864H128.6V60.4071Z" fill="#E4042C"/>
<path fill-rule="evenodd" clip-rule="evenodd" d="M7.15748 0.768271C3.31428 1.28408 0.291992 4.52903 0.291992 8.13708C0.291992 9.61697 12.7337 155.46 12.9173 156.138C13.7243 159.11 16.5903 161.399 19.953 161.756C20.6649 161.832 41.5723 161.857 87.2703 161.835L153.555 161.804L154.393 161.562C157.261 160.732 159.419 158.7 160.108 156.178C160.478 154.821 172.872 8.32096 172.706 7.25611C172.222 4.15711 169.98 1.78742 166.677 0.884627C165.92 0.677889 8.68642 0.562572 7.15748 0.768271ZM166.284 2.88396C168.72 3.64754 170.382 5.51494 170.612 7.7475C170.702 8.6264 158.272 154.805 158.037 155.624C157.489 157.53 155.912 159.011 153.779 159.622C152.878 159.88 20.5803 159.928 19.4702 159.671C17.4285 159.198 15.6865 157.698 15.092 155.9C14.8762 155.248 2.42328 10.0242 2.42216 8.15266C2.42216 5.64635 4.48337 3.35821 7.24536 2.80189C8.5407 2.54061 165.447 2.62164 166.284 2.88396ZM83.4565 8.15422C79.8419 8.51108 74.9131 9.77281 71.0699 11.3249C68.9124 12.196 68.4836 12.5051 68.4836 13.1866C68.4831 14.0696 66.7094 16.0201 65.3429 16.6409C63.9919 17.2538 63.2589 17.4211 60.7661 17.686C60.5002 17.714 60.256 17.8023 60.2232 17.8823C60.0286 18.3571 62.0603 20.5886 63.072 21.012C64.0269 21.4104 63.4057 21.6078 60.9129 21.6976C58.4017 21.787 57.672 22.1127 57.0285 23.431C56.7198 24.0637 56.7627 24.2356 57.4902 25.2698C59.1437 27.6214 59.1008 28.9719 57.3305 30.2877C55.1058 31.9405 55.0863 32.2231 56.756 38.5702C57.3995 41.0167 58.0007 43.214 58.0919 43.4524C58.2655 43.9038 58.187 44.1189 57.8494 44.1189C57.5213 44.1189 56.8372 44.577 56.6186 44.9432C55.6909 46.4974 55.959 48.891 57.6464 54.1228C58.8406 57.8254 58.9846 58.322 59.3483 59.9883C60.2583 64.1647 61.3506 65.6399 63.5102 65.6103C64.3757 65.5978 64.4057 65.6342 64.498 66.7972C64.6649 68.8989 65.2199 70.9408 66.1221 72.7682C66.4141 73.3583 66.577 73.8839 66.6755 74.5483C67.1121 77.5065 69.0743 80.8034 72.0354 83.5554C73.2935 84.7252 74.2924 85.4826 77.4843 87.6892C78.7646 88.5733 79.8113 89.3306 79.8113 89.3711C79.8113 89.4122 78.6634 89.4719 77.2601 89.5046C74.774 89.5628 73.6995 89.6947 73.3936 89.9804C73.051 90.3004 72.9308 95.4969 73.2523 96.0782C73.6316 96.7633 74.8319 96.8225 82.4193 96.5327C84.3703 96.4584 84.2641 96.3145 83.5161 98.0074C82.932 99.3499 82.3572 100.696 81.7919 102.046C80.3358 105.51 78.9626 108.419 77.5449 111.04C76.1628 113.592 76.1228 113.316 77.9298 113.666C78.283 113.735 79.0811 114.023 79.704 114.308C81.3147 115.044 81.2596 115.059 81.9893 113.646C83.2819 111.143 85.6078 105.651 86.1818 103.747C86.342 103.215 86.5144 102.778 86.5634 102.778C86.6802 102.778 86.6668 112.427 86.5467 114.458C86.4188 116.617 86.4783 116.681 88.2458 116.289C88.9373 116.14 89.6432 116.058 90.3526 116.043C91.6174 116.026 91.6163 116.027 91.8054 114.617C92.3215 110.774 91.3938 101.666 90.0701 97.5783C89.7075 96.4589 89.7108 96.4288 90.2147 96.3509C91.0301 96.2257 94.4734 96.2818 96.5841 96.4553C98.9451 96.6501 99.251 96.6236 99.4773 96.2039C99.7415 95.7156 99.8222 90.664 99.5741 90.1991C99.1987 89.4968 97.5285 89.1789 94.8688 89.3026C93.2648 89.3768 93.2487 89.3602 94.3126 88.7488C97.8238 86.7297 103.163 82.2818 104.638 80.1469C106.899 76.8733 108.857 70.8982 108.86 67.2652C108.861 65.6877 108.897 65.6362 110.062 65.5708C112.307 65.4461 112.999 64.3698 114.857 58.1194C116.807 51.5614 117.306 49.4047 117.318 47.4708C117.331 45.5489 117.132 45.1884 115.56 44.2897C115.187 44.0763 115.153 44.2534 116.112 41.4172C117.124 38.4201 117.381 37.4851 117.46 36.5038L117.529 35.6447L116.971 35.1424C115.984 34.2515 115.848 33.9736 115.647 32.4397C113.987 19.7269 104.689 10.4309 91.5885 8.38278C90.2303 8.17084 84.8298 8.01917 83.4571 8.15422M88.4638 10.6039C93.7865 11.1041 98.8299 13.0193 103.69 16.3869C108.503 19.7212 111.134 24.166 112.135 30.6585C112.545 33.3082 112.272 39.3114 111.716 39.9093C111.325 40.33 111.207 40.141 110.556 38.0383C109.321 34.0448 108.338 31.7286 106.996 29.6482C106.164 28.3564 106.036 28.6145 106.018 31.6289L106.004 34.1378L106.338 34.5725C107.776 36.4405 108.129 37.1438 108.71 39.2943C109.192 41.0791 109.327 42.5081 109.024 42.6166C108.911 42.6566 108.108 42.5875 107.24 42.4618C105.334 42.186 102.759 42.1278 97.5885 42.2447C92.7614 42.3538 91.8844 42.5647 89.569 44.1718C88.2848 45.0632 88.1579 45.111 87.4455 44.9681C86.6246 44.8076 85.7754 44.8225 84.9616 45.0118C84.1418 45.2102 83.8993 45.1292 82.7836 44.2856C80.323 42.4244 79.5911 42.2909 71.8062 42.2883L65.4268 42.2857L65.4836 41.4479C65.582 39.9862 66.0676 39.3078 67.4391 38.7167C68.4452 38.2829 68.3646 38.445 68.9775 35.6047C70.1866 29.9968 71.9909 26.9352 75.2885 24.8901C77.7257 23.3791 82.2769 23.5121 85.8403 25.1987C86.6524 25.5831 86.7063 25.569 87.8036 24.6829C89.1146 23.6258 89.1146 23.6279 87.6346 22.2768C82.4832 17.5748 76.5872 16.5469 69.532 19.1202C68.6777 19.4313 67.9636 19.6484 67.9441 19.6017C67.6215 18.8189 72.106 15.9105 75.13 14.9407C77.16 14.2899 76.9898 13.6421 74.789 13.6385C73.9392 13.6369 73.7912 13.465 74.2518 13.0162C75.7512 11.5545 83.8865 10.1733 88.4638 10.6039ZM75.3068 21.6587C75.8241 21.8602 75.7368 21.9693 74.7284 22.3786C71.6188 23.6414 69.7984 25.2615 68.0092 28.3595C67.5281 29.1916 67.2723 29.5023 66.636 30.0207C65.0397 31.3229 64.8518 31.5832 64.2422 33.3295C63.4007 35.7413 62.9685 37.977 62.7761 40.9123C62.666 42.5995 62.567 42.8218 61.7605 43.2031C60.9857 43.5693 61.0736 43.6991 60.3612 41.1284C58.3689 33.9352 58.3684 33.943 61.1865 30.1505C61.8817 29.215 61.7605 27.9704 60.7816 26.0178C60.1976 24.8527 60.1298 24.9099 62.4268 24.6372C64.5637 24.3837 67.2978 23.6149 69.344 22.6919C71.7495 21.6073 74.1216 21.1964 75.3068 21.6587ZM66.2594 43.6638C66.8751 44.1843 66.1927 44.8705 65.3395 44.5884C65.0792 44.5038 64.7227 44.4336 64.5481 44.4336C64.092 44.4336 63.9074 44.0851 64.2461 43.8633C64.3834 43.7739 64.6487 43.6991 64.8356 43.6986C65.0225 43.6976 65.2511 43.6514 65.3429 43.5953C65.6015 43.4394 66.0325 43.4716 66.2594 43.6638ZM108.041 43.6914C108.851 43.8264 109.116 44.4336 108.366 44.4336C108.221 44.4336 107.889 44.5038 107.626 44.5905C107.005 44.7952 106.886 44.7889 106.617 44.5386C106.125 44.0789 106.496 43.4192 107.177 43.5423C107.393 43.5818 107.783 43.6488 108.041 43.6914ZM71.2667 45.0352C71.2951 45.219 71.1905 45.3338 70.7873 45.5587C70.5037 45.7172 69.7117 46.1888 69.0276 46.6065C67.7072 47.4137 67.3913 47.4978 67.0142 47.1462C66.6121 46.7701 67.0314 45.7935 67.834 45.2377C68.5498 44.7422 71.1983 44.5858 71.2667 45.0352ZM103.304 44.8622C104.648 45.178 104.913 47.1571 103.612 47.1571C102.793 47.1571 100.188 45.364 100.369 44.9245C100.456 44.711 102.479 44.6684 103.304 44.8622ZM77.2735 45.2647C77.8469 45.5245 78.4276 46.1977 78.3141 46.4724C78.2596 46.6059 78.0638 46.6215 77.0955 46.5711C75.7078 46.4984 74.8485 46.6776 73.1355 47.3955C71.7918 47.9581 71.0721 48.1227 70.7056 47.9518C70.106 47.6729 70.3591 47.3794 71.9047 46.5587C72.3684 46.3125 72.8316 46.0652 73.294 45.8169C74.8213 44.9931 76.2379 44.7962 77.2735 45.2647ZM98.7426 45.5743C98.9985 45.6959 99.6002 46.1281 100.08 46.5343C100.56 46.9399 101.293 47.4848 101.708 47.7446C102.585 48.2941 102.633 48.3471 102.411 48.5185C102.006 48.8328 100.74 48.3902 99.5068 47.5041C98.3444 46.6678 97.5474 46.5109 95.8527 46.7841C94.1936 47.0511 94.0462 46.5493 95.569 45.82C96.821 45.2206 97.8355 45.1422 98.7426 45.5743ZM109.773 45.8216C110.038 46.2803 110.075 46.9202 109.968 49.1387C109.83 52.0128 109.978 52.1931 111.392 50.8732C111.989 50.3163 112.069 50.0498 111.923 49.1003C111.688 47.5664 112.439 46.2662 113.419 46.5088C115.037 46.9077 115.05 48.1279 113.494 53.3369C113.145 54.5061 112.815 55.68 112.503 56.8582C111.297 61.5384 110.458 62.7829 108.914 62.1804C108.237 61.916 108.056 62.0261 107.317 63.1569C106.48 64.4348 106.427 64.6041 106.349 66.2736C105.972 74.3499 101.734 81.0393 95.5685 83.2905C93.9678 83.8754 93.5496 83.8681 92.8332 83.2427C92.3438 82.8152 91.9461 82.6454 91.911 82.85C91.9033 82.8932 91.8888 83.4495 91.8777 84.0863C91.8543 85.4566 91.7537 85.6883 90.5807 87.0658C89.4978 88.3379 89.218 88.9202 88.9544 90.4432C88.6285 92.3309 83.832 87.8798 82.4932 84.4473C82.1078 83.4588 82.1323 82.0257 82.5572 80.7286C83.3492 78.3106 83.5083 77.1424 83.258 75.5794C83.1879 75.1431 83.2068 75.0065 83.3548 74.8678C83.6696 74.5738 83.9371 74.8106 84.7808 76.1311C85.3248 76.9819 85.6679 76.1934 85.4777 74.5301C85.3776 73.6621 84.9771 73.2336 84.0244 72.9744C82.0394 72.4357 83.4176 71.3652 85.9805 71.4555C90.2575 71.6057 91.183 71.5283 93.584 70.8187C95.291 70.3143 95.4306 70.3138 96.2615 70.8156C97.1041 71.3247 97.1642 71.4737 97.2359 73.2393C97.3583 76.2729 98.5274 76.1092 99.2165 72.9619C99.5519 71.4296 99.7532 70.9481 100.282 70.4167C101.596 69.09 102.167 67.1598 101.97 64.7049C101.85 63.2089 101.58 62.8125 100.295 62.2427C99.4823 61.8822 98.4612 60.927 97.4706 59.5988C95.9066 57.5028 95.1825 56.8644 93.7387 56.3096C92.4138 55.8006 92.0184 56.0307 92.3232 57.1304C92.7464 58.6554 92.5601 58.9962 90.8799 59.7613C88.3437 60.9166 86.2169 60.8428 84.1857 59.5307C82.1779 58.2337 81.9159 56.6057 83.2819 53.9129C83.8982 52.698 83.996 52.3666 84.2413 50.6659C84.6851 47.5882 85.0133 46.9467 86.1462 46.9467C87.1095 46.9467 87.5322 47.315 87.8315 48.4141C88.411 50.5407 89.3404 51.3921 90.3415 50.7153C91.0328 50.2472 91.0968 50.0415 90.7625 49.3668C90.3065 48.4484 90.5484 48.3045 91.6563 48.8344C93.1068 49.5283 95.6942 49.8067 97.5207 49.4644C99.509 49.093 100.324 49.2447 100.775 50.0722C101.078 50.6259 101.193 50.6914 102.079 50.8212C103.482 51.0264 103.604 51.1438 103.301 51.9972C102.928 53.0455 101.767 53.7966 99.949 54.1685C98.7838 54.4059 98.7665 54.4168 98.7665 54.8911C98.7665 55.7897 99.6208 55.9892 101.522 55.5352C104.129 54.9118 105.247 53.3488 106.163 49.0421C106.744 46.3088 106.768 46.2683 108.076 45.8605C109.165 45.5208 109.594 45.511 109.773 45.8216ZM61.2711 46.8381C61.9885 47.2464 62.2711 48.1367 61.9463 48.9637C61.5692 49.9226 61.5925 50.1896 62.4246 54.4365C63.0976 57.868 62.9385 58.7521 61.8156 57.8316C61.3206 57.4265 61.1315 57.1008 60.9229 56.3013C60.8356 55.9673 60.3784 54.3976 59.9062 52.8133C58.9418 49.5746 58.8061 48.7211 59.1042 47.7633C59.4284 46.7233 60.3667 46.3223 61.2711 46.8381ZM76.1244 49.2509C77.6094 49.4935 78.1673 49.5076 79.4409 49.3356C80.6523 49.172 80.8019 49.2759 80.2212 49.8758C79.7324 50.3813 79.7335 50.3729 80.1045 51.0352C80.9498 52.5468 79.031 53.9685 75.7885 54.2324C74.7818 54.3145 74.6522 54.4028 74.6522 55.0058C74.6522 55.6183 74.9581 55.759 76.2568 55.7455C77.7307 55.7299 77.6806 55.7258 77.6806 55.8676C77.6806 55.9351 77.5316 56.2063 77.3497 56.4712C77.1678 56.7361 76.9403 57.2337 76.8447 57.5766C76.6233 58.3713 76.5699 58.416 75.2863 58.8876C74.6984 59.1037 73.8986 59.4923 73.5093 59.751C70.2373 61.9259 68.6594 61.2729 67.1938 57.1371C66.1738 54.2615 66.4018 53.8091 68.4163 54.7113C69.7662 55.3165 70.3029 55.3617 70.6077 54.8947C71.0838 54.1654 70.9614 53.9129 69.9047 53.4439C68.0515 52.6221 66.8306 50.8025 67.7522 50.2384C68.0581 50.0519 68.2878 50.121 68.8601 50.5729C69.9197 51.4103 70.3479 51.4253 71.1038 50.6534C72.5721 49.1543 73.6655 48.8489 76.1244 49.2509ZM80.6083 55.9434C80.8397 56.1185 80.8536 56.172 80.7335 56.4187C80.4904 56.9174 80.4482 57.749 80.6401 58.2602C81.1072 59.5001 80.4971 60.0325 79.5444 59.217C78.085 57.9662 79.1094 54.81 80.6083 55.9434ZM93.386 61.2194C93.5918 61.3493 94.1702 61.9264 94.6719 62.5024C95.6252 63.5969 96.8466 64.5636 97.5324 64.7662C100.683 65.6986 94.9828 67.0465 90.7331 66.3744C90.1235 66.2777 88.9944 66.0113 88.223 65.7817C86.5878 65.2944 86.0261 65.2887 84.7997 65.7469C82.0411 66.7775 77.1728 66.8871 75.2212 65.963C74.0376 65.402 74.0627 65.0997 75.3319 64.5999C75.7907 64.4192 76.8358 63.8587 77.6534 63.3543C80.1295 61.8277 81.2646 61.5763 82.3909 62.3051C84.9404 63.9543 87.8921 64.1065 89.3982 62.6666C89.7759 62.3061 90.1563 62.064 90.5757 61.9181C90.9633 61.7792 91.3392 61.6134 91.7003 61.422C92.5929 60.9244 92.8671 60.8922 93.386 61.2194ZM71.1677 64.6945C71.3897 64.9147 71.4369 65.1152 71.522 66.1874C71.8741 70.6146 73.4386 75.3867 74.5371 75.3867C74.7623 75.3867 74.8663 75.2532 75.2201 74.5088C76.016 72.8331 76.3586 72.7105 76.714 73.9728C77.1033 75.3566 77.9198 77.8374 78.2435 78.6228C78.7529 79.8575 78.5627 80.1547 77.2646 80.15C72.5905 80.1344 65.8557 70.0749 67.9096 66.177C68.6616 64.7511 70.4197 63.9512 71.1677 64.6945ZM90.678 68.1025C92.3298 68.2516 92.2587 68.5249 90.4616 68.9305C88.7436 69.3186 84.748 69.5907 83.9037 69.3773C83.0244 69.1555 82.0311 68.3669 82.4187 68.1992C83.0138 67.9415 88.2213 67.8807 90.678 68.1025ZM125.796 121.957C113.28 122.772 105.666 129.25 105.675 139.074C105.684 148.914 116.316 153.954 131.196 151.17C134.3 150.59 134.106 150.763 134.651 148.075C135.22 145.276 135.192 145.244 132.73 145.826C121.753 148.418 114.639 143.431 116.986 134.79C118.223 130.235 121.602 127.208 126.066 126.656C129.632 126.215 131.984 127.619 132.163 130.297C132.241 131.471 132.255 131.479 134.16 131.479C136.067 131.479 135.832 131.823 136.845 127.57C137.978 122.815 138.035 123.101 135.856 122.635C132.563 121.931 129.428 121.72 125.796 121.957ZM42.0851 122.602C41.9043 122.87 41.4538 124.642 41.4538 125.085C41.4538 125.425 41.604 125.561 42.3887 125.927C43.2024 126.307 43.6179 126.891 43.6746 127.737C43.7169 128.369 40.53 142.505 39.8742 144.591C39.2847 146.468 38.3058 147.663 37.0933 147.986C35.9343 148.294 35.9298 148.298 35.6484 149.342C35.0104 151.71 34.1879 151.487 43.5245 151.487C52.5285 151.487 51.5791 151.641 51.95 150.118C52.3727 148.38 52.3232 148.142 51.4695 147.827C50.9712 147.643 50.3594 147.062 50.2053 146.626C50.0935 146.309 51.3538 140.268 51.8433 138.775C51.9322 138.504 51.93 138.5 53.4595 141.064C57.81 148.355 59.87 150.408 63.6671 151.232C64.8128 151.48 73.4614 151.587 73.794 151.357C74.0009 151.213 74.5304 149.433 74.5371 148.858C74.5421 148.424 74.1778 148.208 73.2929 148.12C71.4653 147.938 71.2139 147.694 65.8117 140.863C61.6832 135.646 61.5208 135.422 61.7177 135.248C62.8773 134.224 72.7873 126.696 73.2851 126.462C74.0882 126.084 75.1995 125.761 76.0343 125.664C76.9431 125.558 77.0827 125.413 77.3425 124.304C77.8441 122.166 78.5627 122.367 70.3902 122.367C62.9874 122.367 63.3022 122.342 63.1543 122.923C62.5981 125.108 62.6176 125.353 63.379 125.751C64.5631 126.371 64.567 126.366 59.0363 130.662C52.8655 135.454 52.6714 135.603 52.628 135.554C52.5568 135.476 54.4612 127.553 54.6431 127.169C54.8989 126.63 55.5357 126.087 56.2627 125.787C57.0669 125.456 57.0852 125.43 57.3661 124.223C57.8461 122.159 58.6982 122.367 49.7186 122.367H42.2436L42.0851 122.602ZM79.9943 122.602C79.813 122.87 79.3631 124.642 79.3631 125.085C79.3631 125.427 79.4465 125.502 80.2635 125.901C80.6423 126.086 80.9988 126.365 81.2046 126.639C81.8431 127.488 81.9104 127.1 78.9815 139.495C76.081 151.774 76.2434 150.983 76.5588 151.277C76.8869 151.583 89.0562 151.608 89.4372 151.303C89.7013 151.092 90.3059 148.697 90.1852 148.341C90.1457 148.225 89.9221 148.04 89.688 147.928C87.8059 147.031 87.7775 146.506 89.2898 140.514L89.3493 140.279H94.5412C98.519 140.279 99.7766 140.247 99.9217 140.148C100.106 140.019 101.121 136.115 101.121 135.532C101.121 134.931 101.168 134.936 95.7009 134.936C91.0034 134.936 90.6908 134.925 90.693 134.753C90.6941 134.652 91.089 132.896 91.5701 130.851L92.445 127.132L96.0262 127.104C101.422 127.062 102.016 127.327 102.018 129.769C102.019 130.898 102.168 130.982 104.115 130.937C105.322 130.91 105.635 130.87 105.788 130.728C105.966 130.561 107.739 123.483 107.739 122.937C107.739 122.331 108.59 122.366 93.7409 122.366H80.1534L79.9943 122.602ZM163.817 151.382C163.817 151.693 163.824 151.696 164.434 151.696H165.052V155.571H165.836V151.696H166.454C167.064 151.696 167.07 151.693 167.07 151.382V151.067H163.817V151.382ZM168.192 153.32V155.571H168.864L168.868 153.974L168.872 152.377L169.334 153.294C169.92 154.457 170.024 154.462 170.627 153.346L171.094 152.482L171.101 154.027L171.108 155.571H171.78V151.067H171.437C171.11 151.067 171.066 151.122 170.555 152.142L170.017 153.215L169.44 152.142C168.901 151.139 168.84 151.067 168.527 151.067H168.192V153.32Z" fill="#050505"/>
<path fill-rule="evenodd" clip-rule="evenodd" d="M7.4703 2.81545C4.58094 3.26841 2.54699 5.5124 2.53809 8.25661C2.53531 9.24875 14.7974 154.007 14.9776 155.1C15.3425 157.319 17.3514 159.236 19.7441 159.647C20.8965 159.844 152.434 159.802 153.443 159.603C155.551 159.188 157.264 157.757 157.878 155.898C158.096 155.239 170.547 10.0154 170.547 8.13298C170.547 5.90198 168.968 3.89329 166.532 3.02323L165.892 2.79519L86.8217 2.78273C43.3328 2.77649 7.62491 2.79104 7.4703 2.81545ZM44.4824 60.4071V113.987H30.1258C22.2297 113.987 15.7702 113.951 15.7707 113.908C15.7718 113.865 13.774 90.3202 11.3324 61.5857C7.06095 11.312 6.89965 9.32199 7.0654 8.78956C7.28676 8.0774 7.91746 7.39174 8.64106 7.07696L9.20836 6.83074L26.8448 6.8297L44.4813 6.82866L44.4824 60.4071ZM164.667 7.19747C165.319 7.57199 165.886 8.30907 166.039 8.97967C166.125 9.35835 165.227 20.2962 161.733 61.381C159.304 89.94 157.316 113.458 157.315 113.646L157.313 113.986H128.488V6.82503L146.302 6.85256L164.116 6.88061L164.667 7.19747ZM91.4196 8.28622C94.3935 8.73658 97.6138 9.67988 99.9209 10.7754C108.825 15.0042 114.459 22.762 115.751 32.5738C115.941 34.0111 116.17 34.4604 117.04 35.1035C117.893 35.7351 117.761 36.7698 116.266 41.1638C115.231 44.2088 115.255 44.0727 115.722 44.3064C118.215 45.5541 118.073 47.6849 114.764 58.6784C113.049 64.3772 112.276 65.5121 110.007 65.6685C108.949 65.7412 108.977 65.7038 108.974 67.0814C108.969 70.9881 106.686 77.6936 104.359 80.6445C102.824 82.5914 98.3897 86.3039 95.3457 88.192C94.5437 88.6891 93.8462 89.1281 93.7967 89.166C93.7467 89.2044 94.5292 89.2356 95.5354 89.2351C99.8363 89.2325 99.8986 89.2943 99.7868 93.455C99.6923 96.982 99.8536 96.8122 96.8374 96.5603C93.7945 96.3068 92.4914 96.2559 91.1076 96.3369L89.8228 96.4117L89.9141 96.7405C91.4858 102.425 92.2472 108.529 91.983 113.326C91.8368 115.985 91.7617 116.105 90.22 116.131C89.4558 116.144 88.7349 116.229 88.0892 116.383C87.1687 116.602 87.0937 116.606 86.7583 116.444L86.4023 116.273L86.4707 114.265C86.6176 109.98 86.6782 105.161 86.5992 104.079L86.5169 102.945L86.1437 104.092C85.2816 106.744 82.1926 113.778 81.5346 114.589C81.1681 115.039 81.0519 115.026 79.568 114.352C78.8138 114.009 78.024 113.732 77.6247 113.668C76.5646 113.5 76.4756 113.474 76.4072 113.307C76.3711 113.219 77.004 111.89 77.841 110.294C79.5046 107.126 80.598 104.772 82.2588 100.788C82.8706 99.3185 83.5046 97.8235 83.667 97.4651C84.0408 96.6387 84.048 96.4501 83.7015 96.5312C83.5586 96.5649 81.3639 96.6428 78.8255 96.7057C72.5212 96.861 72.9188 97.1145 72.9872 92.9844C73.0456 89.4325 72.8593 89.5961 76.9851 89.473C78.4222 89.4299 79.6214 89.3733 79.6497 89.3468C79.6787 89.3203 78.6542 88.5744 77.3733 87.6897C70.2503 82.7691 67.2897 79.1537 66.5823 74.5094C66.495 73.9375 66.3003 73.3178 66.0216 72.7262C65.124 70.8209 64.6501 69.1306 64.4515 67.1224C64.3014 65.6072 64.3603 65.6965 63.506 65.6965C61.288 65.6965 60.2118 64.2504 59.278 60.0159C58.8909 58.2592 58.5794 57.1813 57.5988 54.2018C56.0399 49.4614 55.6745 46.9722 56.3057 45.377C56.5949 44.6461 57.3513 44.0135 57.9353 44.0135C58.2207 44.0135 58.2273 44.0966 57.8425 42.8842C57.6645 42.3248 57.2813 40.9238 56.9904 39.7712C56.6806 38.546 56.3575 37.3239 56.021 36.105C55.0365 32.6013 55.2234 31.8419 57.5115 30.0571C57.9331 29.7283 58.2496 29.3652 58.4504 28.9829L58.7529 28.4053L58.5649 27.6988C58.3202 26.7778 57.9498 26.0278 57.2479 25.0278C56.5794 24.0747 56.5972 23.7427 57.3652 22.7937C58.1178 21.8639 58.7557 21.652 60.8492 21.6385C62.0783 21.6302 62.7252 21.5819 63.0333 21.4743L63.471 21.3216L62.9209 21.0214C62.1506 20.6006 60.7513 19.2449 60.3519 18.5338C59.9098 17.7447 59.9876 17.6814 61.5883 17.5261C65.164 17.1796 67.7052 15.5756 68.386 13.2355C68.6585 12.2979 68.916 12.1109 71.1758 11.2081C78.1169 8.43634 85.4396 7.37927 91.4196 8.28622ZM84.5786 10.6637C78.9389 11.2055 75.4517 12.0137 74.2737 13.0531C73.831 13.4432 73.9956 13.5528 75.0735 13.585C77.1147 13.6453 77.1592 14.3756 75.1586 14.9979C72.7592 15.7444 69.2252 17.8346 68.2881 19.0615C67.8048 19.6937 67.753 19.6968 69.7275 18.9857C76.2609 16.6326 81.959 17.4622 86.8217 21.4738C89.1843 23.4233 89.2439 23.6093 87.8601 24.7151C86.6954 25.6465 86.6448 25.6533 85.325 25.0684C82.5485 23.8352 78.3872 23.5396 76.3471 24.4305C72.5573 26.0839 70.3459 29.4976 69.0295 35.7284C68.4488 38.4741 68.5345 38.3012 67.5556 38.7229C66.0762 39.3619 65.4827 40.2953 65.4577 42.0235C65.456 42.1617 66.2113 42.1809 71.5962 42.1809C79.6002 42.1809 80.2243 42.2993 82.9768 44.3475C83.9334 45.0601 84.2516 45.1407 85.142 44.8991C85.7905 44.7225 86.2255 44.7256 87.775 44.9147C88.2661 44.975 88.3111 44.9552 89.4574 44.1667C92.1827 42.2915 93.0837 42.1305 100.912 42.1289C105.185 42.1284 105.829 42.1507 106.969 42.3367C107.67 42.451 108.433 42.5455 108.664 42.5466L109.085 42.5471V41.9237C109.085 39.9109 107.928 36.6379 106.675 35.1102C105.884 34.1451 105.91 34.2703 105.934 31.5624C105.957 28.9434 105.959 28.9299 106.277 28.9299C107.135 28.9299 109.022 32.8579 110.6 37.9256C111.555 40.9924 111.954 40.7394 112.238 36.8909C112.674 30.9848 111.293 25.1099 108.556 21.2307C103.984 14.7522 92.8963 9.86532 84.5786 10.6637ZM73.0267 21.6468C71.7052 21.8426 70.9466 22.0743 69.3515 22.7667C66.8053 23.8716 63.0155 24.8445 61.2563 24.8445C60.3937 24.8445 60.3475 24.9759 60.8525 25.9971C62.055 28.4292 62.0383 29.2073 60.7513 30.8664C58.8808 33.2792 58.699 34.1051 59.3903 37.0477C60.0077 39.6761 61.0271 43.3849 61.1328 43.3849C62.0978 43.3849 62.5639 42.6764 62.6734 41.0433C62.867 38.1521 63.4243 35.3549 64.2675 33.0356C64.7819 31.6206 64.9226 31.4253 66.2742 30.2566C67.2931 29.3745 67.4866 29.147 68.035 28.184C69.6301 25.3873 71.7892 23.4607 74.534 22.3854C75.6224 21.9595 75.7075 21.8457 75.0941 21.639C74.6119 21.4759 74.1647 21.478 73.0267 21.6468ZM65.3587 43.6514C65.1512 43.7356 64.8481 43.8052 64.6857 43.8057C64.0027 43.8093 63.9182 44.2571 64.5789 44.3745C64.7836 44.4108 65.1596 44.4908 65.4143 44.5516C66.0222 44.6971 66.3531 44.5459 66.3531 44.1225C66.3531 43.5564 66.0027 43.3901 65.3587 43.6514ZM106.64 43.7205C106.252 44.0826 106.613 44.71 107.149 44.6067C107.32 44.5739 107.687 44.5064 107.967 44.4576C108.797 44.3121 109.065 43.9704 108.44 43.8571C108.27 43.8259 107.917 43.7548 107.653 43.6982C107.027 43.5631 106.803 43.5683 106.64 43.7205ZM69.6051 44.8633C68.0773 45.0248 67.1357 45.6097 66.9555 46.5099C66.7525 47.5213 67.4449 47.5046 69.1457 46.4559C69.876 46.0055 70.6324 45.5572 70.8254 45.4586C71.3715 45.1812 71.2442 44.7163 70.634 44.7609C70.5306 44.7682 70.0679 44.8144 69.6051 44.8633ZM100.499 44.8799C100.325 45.3048 102.368 46.8673 103.395 47.0927C104.52 47.3405 104.741 45.5032 103.641 45.0487C102.946 44.762 100.599 44.6358 100.499 44.8799ZM74.8772 45.2627C73.6908 45.6284 70.8337 47.1088 70.5751 47.4911C70.139 48.1368 71.2536 48.0999 72.8832 47.4148C74.8872 46.5733 76.3288 46.2928 77.5129 46.513C78.2404 46.6491 78.3661 46.539 78.0719 46.0263C77.5896 45.1848 76.2042 44.8534 74.8772 45.2627ZM96.299 45.5889C94.6822 46.1286 94.0465 46.9956 95.4436 46.7551C97.3096 46.4341 98.4219 46.6273 99.5649 47.4704C100.686 48.2978 101.936 48.7409 102.324 48.4469C102.456 48.3467 102.48 48.2781 102.394 48.2443C102.045 48.1067 101.183 47.4979 100.168 46.6735C98.5143 45.3303 97.7317 45.111 96.299 45.5889ZM108.537 45.8107C106.898 46.2107 106.821 46.3156 106.278 48.8848C105.195 54.0055 103.473 55.8505 99.7751 55.8505C98.1566 55.8505 98.2034 54.4241 99.8319 54.1197C101.521 53.8044 102.641 53.1603 103.099 52.2409C103.589 51.2576 103.474 51.0914 102.178 50.9153C101.171 50.7787 101.078 50.7299 100.772 50.1704C100.337 49.3726 99.3007 49.1502 97.7011 49.5107C96.0621 49.8806 93.0826 49.5679 91.6121 48.8718C90.5587 48.3731 90.3951 48.4666 90.8401 49.3144C91.2544 50.1029 90.7817 50.8488 89.7083 51.1007C89.1198 51.2384 88.2477 50.0489 87.7761 48.4656C87.4335 47.3161 87.1126 47.034 86.1465 47.034C85.0135 47.034 84.8867 47.3161 84.1915 51.3989C83.9879 52.5926 83.8845 52.9084 83.3511 53.9649C82.1492 56.3455 82.2048 57.68 83.5597 58.9454C85.3105 60.5806 87.983 60.9411 90.4541 59.8752C92.4469 59.0144 92.6421 58.7656 92.3256 57.4899C91.9586 56.0136 92.1699 55.7601 93.438 56.1487C94.9024 56.598 95.9642 57.466 97.388 59.3775C98.531 60.9125 99.4398 61.7524 100.544 62.2932C101.854 62.9331 101.954 63.1357 101.999 65.2176C102.055 67.8086 101.671 69.0771 100.454 70.3092C99.8502 70.9216 99.5771 71.5309 99.3296 72.8197C99.0148 74.4559 98.4425 75.4387 97.804 75.4387C97.3519 75.4387 97.091 74.3167 97.086 72.3454C97.0816 70.7164 95.8802 70.2157 93.5882 70.8884C91.082 71.6239 89.6827 71.7709 87.2672 71.5527C85.1459 71.3616 84.8856 71.3777 84.0247 71.7538C83.0035 72.2005 82.9384 72.6862 83.8756 72.8612C85.013 73.0737 85.4791 73.6482 85.5975 74.9821C85.7477 76.6729 85.2165 77.0375 84.4635 75.7602C83.6292 74.3447 83.1876 74.4658 83.404 76.0501C83.578 77.3258 83.4779 78.0312 82.8222 80.1277C82.053 82.5878 82.0969 83.5508 83.0619 85.4416C84.1481 87.5713 86.3612 89.8979 88.1409 90.7809C88.6804 91.049 88.7639 90.9643 88.9697 89.9467C89.1932 88.8429 89.5192 88.2118 90.399 87.1812C91.6655 85.6966 91.7311 85.5543 91.8045 84.1025C91.8863 82.4974 91.9992 82.3831 92.7917 83.1051C93.5036 83.7555 93.8607 83.8116 94.9542 83.4469C101.225 81.3536 105.394 75.3935 106.171 67.4138C106.499 64.0452 106.398 64.4613 107.181 63.2479C108.042 61.9119 108.197 61.8137 108.958 62.1191C110.42 62.7072 111.227 61.4943 112.395 56.9507C112.69 55.8333 113.004 54.7207 113.339 53.6133C115.002 48.1368 114.944 46.5281 113.083 46.5281C112.363 46.5281 111.81 47.8589 112.011 49.1154L112.148 49.9798L111.823 50.4701C111.482 50.9823 110.556 51.6607 110.199 51.6607C109.817 51.6607 109.784 51.3605 109.897 48.9892C110.056 45.6549 109.973 45.4606 108.537 45.8107ZM59.5955 47.0018C58.9226 47.6303 58.8897 49.0069 59.4982 51.1366C61.2724 57.3481 61.3197 57.4733 62.0655 57.9506C62.9332 58.5054 62.966 57.4395 62.1973 53.6507C61.6439 50.92 61.5355 49.6889 61.7969 49.1076C62.4982 47.5457 60.7763 45.8985 59.5955 47.0018ZM73.3388 49.2983C72.5718 49.5222 71.9105 49.9398 71.2603 50.6114C70.3904 51.509 70.069 51.4997 68.7069 50.5345C68.1412 50.1341 67.8876 50.1086 67.649 50.427C67.1079 51.148 68.2491 52.6253 69.9049 53.3468C71.0512 53.8465 71.2364 54.3026 70.599 55.0599C70.2464 55.4786 69.7063 55.3867 68.0584 54.6267C66.6168 53.9618 66.401 54.3322 67.0239 56.4011C68.4255 61.0668 70.0489 61.8963 73.485 59.7048C73.9845 59.3864 74.8176 58.9734 75.336 58.7869C76.5285 58.3589 76.514 58.3714 76.7821 57.5309C76.9061 57.1434 77.1547 56.6198 77.336 56.3689C77.7682 55.7669 77.7576 55.7607 76.42 55.8152C74.8655 55.8791 74.7086 55.8007 74.7086 54.9597C74.7086 54.2262 74.6602 54.2522 76.3555 54.0787C79.1353 53.794 80.8728 52.3853 80.0502 51.0831C79.7232 50.5657 79.751 50.2665 80.1648 49.8255C80.6531 49.3061 80.504 49.251 79.1114 49.437C77.9578 49.5902 77.8422 49.5876 76.4194 49.37C74.7476 49.1144 74.0273 49.0978 73.3388 49.2983ZM79.3672 56.1445C78.5107 56.9445 78.7465 58.6467 79.8088 59.3365C80.5168 59.7962 80.9456 59.4492 80.6714 58.6378C80.4529 57.9901 80.4295 57.0421 80.6169 56.4562C80.8338 55.7809 79.984 55.5685 79.3672 56.1445ZM92.3735 61.1649C92.2806 61.1982 92.0286 61.3291 91.8123 61.4558C91.5965 61.5826 91.0937 61.7971 90.6944 61.9327C90.1365 62.1228 89.8223 62.3197 89.3278 62.7887C87.8834 64.1585 85.1431 64.0561 82.647 62.5389C81.1409 61.6236 80.3466 61.7659 77.6547 63.4323C76.9473 63.8707 75.9322 64.4177 75.3988 64.6478C74.316 65.1153 74.2431 65.24 74.8138 65.6467C76.4256 66.7946 81.6392 66.8123 84.7722 65.6799C86.0336 65.2244 86.6671 65.2332 88.2995 65.7303C91.7589 66.7837 96.7439 66.7183 98.2217 65.601C98.5043 65.387 98.2929 64.9636 97.903 64.9636C97.2884 64.9636 95.725 63.826 94.7178 62.6464C93.4853 61.2029 93.0437 60.9234 92.3735 61.1649ZM69.7369 64.6395C67.8593 65.2452 67.1596 67.1884 67.9199 69.6833C69.6913 75.4906 73.8382 80.0867 77.2826 80.0586C78.6642 80.0472 78.682 79.9781 77.8627 77.7835C77.6458 77.2006 77.2326 75.9519 76.945 75.0076C76.6575 74.0637 76.3811 73.2498 76.3305 73.1994C76.1669 73.0352 75.6964 73.6414 75.3138 74.5068C74.7631 75.753 74.4144 75.8117 73.7097 74.7769C72.653 73.2238 71.3999 68.2979 71.3999 65.696C71.3999 64.5829 70.8993 64.2644 69.7369 64.6395ZM83.647 68.1249C82.2666 68.2553 82.1531 68.4408 83.1142 68.9924L83.6681 69.3108L85.7499 69.2942C88.7839 69.2693 92.1877 68.7358 91.7739 68.3488C91.5231 68.1151 85.5158 67.9483 83.647 68.1249ZM131.965 121.959C134.591 122.197 137.164 122.749 137.545 123.156C137.89 123.525 137.902 123.44 136.946 127.498C135.902 131.924 136.139 131.584 134.102 131.584C132.208 131.584 132.167 131.557 132.066 130.237C131.877 127.737 129.962 126.499 126.586 126.693C121.533 126.985 117.609 130.779 116.76 136.193C115.536 144.001 122.532 148.203 132.694 145.763C135.251 145.148 135.308 145.216 134.713 148.161C134.216 150.62 134.287 150.528 132.526 150.957C127.297 152.229 120.14 152.247 115.702 150.998C107.289 148.631 103.636 141.851 106.45 133.827C109.439 125.306 119.133 120.797 131.965 121.959ZM57.5265 122.597L57.7535 122.881L57.4893 124.055C57.1917 125.381 57.0438 125.594 56.2373 125.868C55.6611 126.062 54.9036 126.7 54.6978 127.164C54.5638 127.466 52.6733 135.384 52.7223 135.436C52.7612 135.476 63.5761 127.077 63.7419 126.878C64.0889 126.459 63.8681 126.026 63.1301 125.677C62.907 125.571 62.7374 125.395 62.6896 125.218C62.5694 124.777 63.0466 122.8 63.3436 122.504L63.5884 122.261H77.1931L77.4528 122.519C77.7432 122.808 77.7365 123.025 77.3916 124.438C77.1347 125.494 77.0329 125.582 75.8455 125.773C74.7576 125.948 73.5023 126.365 72.8015 126.786C72.4272 127.01 62.2441 134.87 61.768 135.301C61.6367 135.421 62.2724 136.276 65.8592 140.813C71.3571 147.767 71.4233 147.832 73.2492 148.022C74.6297 148.167 74.762 148.373 74.4228 149.844C73.9761 151.776 74.4489 151.628 68.911 151.563C60.5032 151.463 59.0177 150.474 53.5326 141.326C53.0337 140.49 52.5316 139.656 52.0265 138.824C51.8913 138.615 50.1572 146.063 50.245 146.475C50.3496 146.963 50.6916 147.332 51.3435 147.657C52.467 148.218 52.477 148.247 52.101 149.829C51.7957 151.114 51.6983 151.331 51.3668 151.473C51.1694 151.557 48.8974 151.59 43.4824 151.59C34.2148 151.59 34.9517 151.782 35.5151 149.526C35.8144 148.328 35.9262 148.181 36.6425 148.037C38.1859 147.728 39.1759 146.645 39.81 144.572C39.9735 144.037 43.4696 129.166 43.6304 128.321C43.815 127.35 43.2577 126.378 42.275 125.958C41.2872 125.535 41.2477 125.413 41.602 123.902C42.033 122.058 41.0313 122.255 49.839 122.287L57.3002 122.314L57.5265 122.597ZM107.576 122.518C107.929 122.848 107.983 122.474 106.955 126.806C105.875 131.361 106.162 130.955 104.029 130.955C101.964 130.955 101.907 130.918 101.907 129.56C101.907 128.457 101.648 127.926 100.915 127.523L100.393 127.236L96.4481 127.205L92.5036 127.175L92.3685 127.781C92.2945 128.116 91.8957 129.827 91.4814 131.584L90.7294 134.779L95.7734 134.831L100.817 134.884L101.048 135.172L101.279 135.461L100.754 137.678C100.354 139.366 100.17 139.952 99.982 140.139L99.7373 140.383H89.3979L88.7972 142.952C87.9685 146.489 88.0242 146.852 89.537 147.795C89.8818 148.01 90.1999 148.281 90.2433 148.396C90.3812 148.763 89.7511 151.18 89.4591 151.4C89.1538 151.632 77.276 151.701 76.7448 151.475C76.1091 151.204 76.0229 151.685 78.8483 139.722C81.9368 126.645 81.6553 127.957 81.4924 127.384C81.3022 126.716 80.8984 126.281 80.1364 125.922C79.1981 125.48 79.1597 125.359 79.4868 123.915C79.6781 123.072 79.826 122.665 80.0024 122.497L80.2499 122.261H107.3L107.576 122.518Z" fill="#FBFBFB"/>
<path fill-rule="evenodd" clip-rule="evenodd" d="M170.579 8.24341C170.58 8.5317 170.602 8.63715 170.628 8.47716C170.653 8.3036 170.653 8.12755 170.627 7.95408C170.6 7.82526 170.579 7.95512 170.579 8.24341ZM85.8969 10.5679C86.0043 10.5939 86.1806 10.5939 86.289 10.5679C86.3969 10.5414 86.3085 10.5201 86.0927 10.5201C85.8769 10.5201 85.7885 10.5409 85.8969 10.5679ZM86.9058 10.5679C87.0143 10.5939 87.1906 10.5939 87.2985 10.5679C87.4064 10.5414 87.318 10.5201 87.1022 10.5201C86.8864 10.5201 86.7979 10.5409 86.9058 10.5679ZM59.8755 21.671C59.9839 21.697 60.1602 21.697 60.2687 21.671C60.3766 21.645 60.2881 21.6232 60.0723 21.6232C59.8565 21.6232 59.7676 21.6445 59.8755 21.671ZM61.6686 28.9312C61.6686 29.1333 61.6919 29.2159 61.7198 29.1146C61.7476 28.9937 61.7476 28.8687 61.7198 28.7479C61.6919 28.6471 61.6686 28.7297 61.6686 28.9312ZM105.971 30.607C105.971 30.809 105.993 30.8916 106.022 30.7903C106.05 30.6896 106.05 30.5254 106.022 30.4241C105.994 30.3234 105.971 30.4059 105.971 30.607ZM55.5072 33.226C55.5072 33.5429 55.5284 33.6727 55.5545 33.5138C55.5799 33.3225 55.5799 33.129 55.5545 32.9377C55.5284 32.7798 55.5072 32.9091 55.5072 33.226ZM62.6781 41.3963C62.6781 41.5979 62.7009 41.6804 62.7292 41.5797C62.757 41.4588 62.757 41.3338 62.7292 41.2129C62.7009 41.1122 62.6781 41.1948 62.6781 41.3963ZM67.222 42.2035C67.3611 42.2285 67.588 42.2285 67.7271 42.2035C67.8661 42.1786 67.7521 42.1583 67.4746 42.1583C67.197 42.1583 67.083 42.1786 67.222 42.2035ZM76.196 42.2035C76.3351 42.229 76.5375 42.2279 76.6449 42.202C76.7522 42.1755 76.6376 42.1552 76.3912 42.1557C76.1443 42.1573 76.0564 42.1791 76.1966 42.204M96.7775 42.2051C96.9477 42.229 97.2002 42.2285 97.3381 42.2035C97.476 42.1786 97.337 42.1588 97.0278 42.1594C96.7196 42.1604 96.6067 42.1807 96.7775 42.2051ZM85.9525 44.822C86.0916 44.847 86.3185 44.847 86.4576 44.822C86.5966 44.7971 86.482 44.7768 86.205 44.7768C85.9269 44.7768 85.814 44.7976 85.9525 44.822ZM117.411 47.2624C117.411 47.4639 117.433 47.5465 117.462 47.4457C117.49 47.3249 117.49 47.1999 117.462 47.079C117.434 46.9782 117.411 47.0608 117.411 47.2624ZM58.9828 48.7812C58.9833 49.0695 59.005 49.175 59.0312 49.015C59.0569 48.8414 59.0563 48.6653 59.0295 48.4919C59.0028 48.3631 58.9817 48.4934 58.9828 48.7812ZM74.29 49.1173C74.429 49.1422 74.6309 49.1412 74.7383 49.1152C74.8451 49.0892 74.731 49.0685 74.4846 49.0695C74.2377 49.0711 74.1498 49.0924 74.29 49.1173ZM75.8039 55.8223C75.9741 55.8462 76.2266 55.8456 76.3645 55.8207C76.5025 55.7958 76.3629 55.776 76.0547 55.7771C75.7461 55.7776 75.6337 55.7978 75.8039 55.8223ZM99.6368 55.8212C99.777 55.8462 99.9783 55.8451 100.086 55.8191C100.193 55.7932 100.078 55.7724 99.832 55.7734C99.5851 55.775 99.4972 55.7963 99.6368 55.8212ZM109.506 65.6673C109.645 65.6922 109.871 65.6922 110.01 65.6673C110.149 65.6423 110.036 65.6221 109.758 65.6221C109.48 65.6221 109.367 65.6428 109.506 65.6673ZM78.4942 66.6085C78.6021 66.6345 78.7784 66.6345 78.8868 66.6085C78.9947 66.5825 78.9063 66.5602 78.6905 66.5602C78.4747 66.5602 78.3863 66.582 78.4942 66.6085ZM86.2907 67.9741C86.4926 67.997 86.7951 67.9964 86.9637 67.9725C87.1327 67.9492 86.9676 67.9294 86.5977 67.9305C86.2273 67.9305 86.0894 67.9507 86.2907 67.9741ZM83.4269 77.0114C83.4269 77.2129 83.4503 77.295 83.4781 77.1942C83.5065 77.0736 83.5065 76.9486 83.4781 76.828C83.4503 76.7267 83.4269 76.8093 83.4269 77.0114ZM73.0147 92.8803C73.0147 93.687 73.0325 94.0034 73.0536 93.5831C73.0747 93.1629 73.0747 92.5027 73.0536 92.1167C73.0314 91.7298 73.0147 92.0742 73.0147 92.8803ZM78.8868 96.6749C79.087 96.6982 79.4152 96.6982 79.6154 96.6749C79.8156 96.6515 79.6521 96.6328 79.2511 96.6328C78.8501 96.6328 78.686 96.6515 78.8868 96.6749ZM86.5771 111.788C86.5771 112.163 86.5977 112.315 86.6222 112.128C86.6472 111.902 86.6472 111.674 86.6222 111.448C86.5977 111.26 86.5777 111.413 86.5777 111.788M94.2591 127.159C95.2658 127.177 96.8804 127.177 97.8481 127.159C98.8159 127.142 97.9927 127.128 96.0188 127.128C94.0444 127.128 93.253 127.142 94.2591 127.159ZM132.109 130.485C132.11 130.774 132.132 130.879 132.158 130.719C132.183 130.546 132.183 130.369 132.156 130.196C132.129 130.067 132.108 130.197 132.109 130.485ZM133.451 131.558C133.806 131.579 134.386 131.579 134.741 131.558C135.096 131.537 134.805 131.52 134.096 131.52C133.386 131.52 133.097 131.537 133.451 131.558M91.9532 140.358C93.3564 140.375 95.6529 140.375 97.0561 140.358C98.4599 140.341 97.3114 140.328 94.5049 140.328C91.6979 140.328 90.5499 140.341 91.9532 140.358ZM39.8001 151.566C41.8819 151.582 45.2885 151.582 47.3703 151.566C49.4521 151.55 47.7491 151.537 43.5849 151.537C39.4214 151.537 37.7183 151.55 39.8001 151.566ZM68.2949 151.566C69.2699 151.583 70.8344 151.583 71.7716 151.566C72.7082 151.548 71.9106 151.534 69.9979 151.534C68.0858 151.534 67.3194 151.549 68.2949 151.566ZM79.9441 151.566C81.5899 151.583 84.3157 151.583 86.0009 151.566C87.6862 151.55 86.3396 151.536 83.0087 151.536C79.6772 151.536 78.2984 151.55 79.9441 151.566Z" fill="#7C7C7C"/>
<path fill-rule="evenodd" clip-rule="evenodd" d="M47.1359 2.7179C68.7368 2.73244 104.117 2.73244 125.759 2.7179C147.4 2.70283 129.726 2.69141 86.4846 2.69141C43.2421 2.69141 25.5355 2.70283 47.1359 2.7179ZM86.3444 8.0588C86.6987 8.07958 87.2788 8.07958 87.6347 8.0588C87.9885 8.03803 87.6987 8.02089 86.9896 8.02089C86.2799 8.02089 85.9895 8.03803 86.3444 8.0588ZM79.1663 23.8737C79.336 23.8976 79.6135 23.8976 79.7831 23.8737C79.9528 23.8493 79.8143 23.8296 79.4745 23.8296C79.1352 23.8296 78.9967 23.8493 79.1663 23.8737ZM105.97 29.9788C105.97 30.1803 105.993 30.2624 106.021 30.1621C106.049 30.0413 106.049 29.9163 106.021 29.7954C105.993 29.6941 105.97 29.7767 105.97 29.9788ZM58.8657 34.4304C58.8674 34.6605 58.8902 34.7431 58.9169 34.6122C58.9442 34.4823 58.943 34.2938 58.9147 34.1935C58.8869 34.0933 58.8646 34.1997 58.8657 34.4304ZM69.9132 42.208C71.0389 42.2251 72.8815 42.2251 74.0066 42.208C75.1329 42.1908 74.2119 42.1768 71.9599 42.1768C69.7085 42.1768 68.7874 42.1908 69.9132 42.208ZM98.2378 42.2075C98.7234 42.2276 99.2098 42.2275 99.6955 42.2069C100.079 42.1867 99.7356 42.1695 98.9341 42.1706C98.1321 42.1706 97.8184 42.1877 98.2378 42.2075ZM102.775 42.2069C103.222 42.2272 103.954 42.2272 104.401 42.2069C104.849 42.1877 104.483 42.1706 103.589 42.1706C102.694 42.1706 102.328 42.1877 102.775 42.2069ZM110.012 47.1572C110.012 47.417 110.034 47.5229 110.06 47.3931C110.087 47.2368 110.087 47.0776 110.06 46.9214C110.034 46.7921 110.012 46.8975 110.012 47.1572ZM56.0598 47.7863C56.0598 47.9878 56.0832 48.0704 56.111 47.9691C56.1388 47.8483 56.1388 47.7233 56.111 47.6024C56.0832 47.5021 56.0598 47.5847 56.0598 47.7863ZM62.7935 57.2136C62.7935 57.4728 62.8157 57.5788 62.8424 57.4489C62.8691 57.3191 62.8691 57.1072 62.8424 56.9778C62.8157 56.848 62.7935 56.9544 62.7935 57.2136ZM83.1758 58.7128C83.1758 58.7304 83.3399 58.8842 83.5401 59.053L83.905 59.361L83.5752 59.0203C83.2682 58.7034 83.1758 58.6317 83.1758 58.7128ZM86.6269 63.6786C86.8506 63.7019 87.0763 63.7017 87.2999 63.6781C87.4684 63.6537 87.3033 63.635 86.9328 63.6355C86.563 63.636 86.425 63.6552 86.6269 63.6786ZM71.4254 65.5933C71.4254 65.7948 71.4482 65.8774 71.4766 65.7766C71.5044 65.6558 71.5044 65.5308 71.4766 65.4099C71.4488 65.3091 71.4254 65.3917 71.4254 65.5933ZM108.899 66.8503C108.899 67.3397 108.918 67.5402 108.942 67.2955C108.966 67.0508 108.966 66.6498 108.942 66.4052C108.918 66.16 108.899 66.3605 108.899 66.8503ZM79.2236 66.6098C79.3627 66.6348 79.5651 66.6342 79.6719 66.6083C79.7792 66.5823 79.6652 66.5615 79.4188 66.5626C79.1719 66.5636 79.084 66.5849 79.2236 66.6098ZM85.3917 67.9718C85.5318 67.9967 85.7337 67.9957 85.841 67.9697C85.9478 67.9438 85.8344 67.923 85.5869 67.924C85.3405 67.9256 85.2532 67.9469 85.3922 67.9718M87.41 67.9718C87.5485 67.9967 87.7755 67.9967 87.9145 67.9718C88.0535 67.9469 87.9395 67.9261 87.662 67.9261C87.3845 67.9261 87.271 67.9469 87.41 67.9718ZM100.448 80.2057C100.175 80.4654 99.978 80.6774 100.009 80.6774C100.04 80.6774 100.288 80.4649 100.56 80.2057C100.833 79.9465 101.03 79.7346 101 79.7346C100.969 79.7346 100.721 79.9465 100.448 80.2057ZM102.351 82.6409L101.625 83.3483L102.383 82.6705C102.8 82.2975 103.14 81.9796 103.14 81.963C103.14 81.8861 103.026 81.9838 102.351 82.6409ZM91.8456 84.1337C91.8456 84.4506 91.8667 84.5805 91.8923 84.4215C91.9181 84.2304 91.9181 84.0371 91.8923 83.846C91.8667 83.6875 91.8456 83.8169 91.8456 84.1337ZM99.7089 93.7704C99.7089 94.721 99.7255 95.1101 99.7467 94.6348C99.7673 94.1595 99.7673 93.3819 99.7467 92.9066C99.7255 92.4313 99.7089 92.8199 99.7089 93.7704ZM73.0027 94.8182C73.0027 95.135 73.0239 95.2649 73.05 95.1059C73.0755 94.9146 73.0755 94.7211 73.05 94.5299C73.0239 94.3719 73.0027 94.5013 73.0027 94.8182ZM82.5307 96.5666C82.6391 96.5926 82.8154 96.5926 82.9233 96.5666C83.0318 96.5401 82.9433 96.5183 82.727 96.5183C82.5112 96.5183 82.4233 96.5401 82.5307 96.5666ZM77.7086 96.6741C77.8777 96.698 78.1552 96.698 78.3248 96.6741C78.495 96.6497 78.356 96.63 78.0167 96.63C77.6774 96.63 77.5384 96.6497 77.708 96.6741M74.6257 96.7796C74.8493 96.803 75.0751 96.8027 75.2986 96.7785C75.4677 96.7546 75.3025 96.7354 74.9321 96.7359C74.5623 96.737 74.4238 96.7562 74.6257 96.7796ZM91.8378 109.587C91.8378 109.79 91.8611 109.872 91.8895 109.771C91.9173 109.67 91.9173 109.505 91.8895 109.405C91.8617 109.304 91.8378 109.386 91.8378 109.587ZM86.5724 112.887C86.5735 113.175 86.5952 113.281 86.6214 113.121C86.6464 112.962 86.6464 112.726 86.6197 112.598C86.593 112.469 86.5719 112.599 86.5724 112.887ZM46.0797 122.341C48.1003 122.357 51.4057 122.357 53.4263 122.341C55.4463 122.325 53.7934 122.312 49.7527 122.312C45.7126 122.312 44.0597 122.325 46.0797 122.341ZM67.0533 122.341C68.8887 122.357 71.892 122.357 73.7263 122.341C75.5617 122.325 74.06 122.312 70.3898 122.312C66.7196 122.312 65.2184 122.325 67.0533 122.341ZM87.0819 122.341C90.8033 122.356 96.8595 122.356 100.541 122.341C104.222 122.326 101.177 122.313 93.775 122.313C86.3722 122.313 83.3605 122.326 87.0819 122.341ZM126.774 126.632C127.035 126.656 127.298 126.656 127.56 126.633C127.792 126.611 127.63 126.592 127.198 126.591C126.766 126.591 126.575 126.61 126.775 126.632M93.1292 134.911C94.5019 134.927 96.7478 134.927 98.1204 134.911C99.4931 134.894 98.3701 134.881 95.6248 134.881C92.8795 134.881 91.7566 134.894 93.1292 134.911ZM116.521 137.922C116.522 138.268 116.542 138.397 116.567 138.209C116.592 138 116.592 137.789 116.566 137.58C116.541 137.423 116.52 137.577 116.521 137.922ZM105.528 139.127C105.528 139.444 105.549 139.574 105.575 139.415C105.601 139.224 105.601 139.03 105.575 138.839C105.549 138.68 105.528 138.81 105.528 139.127ZM126.552 146.535C126.753 146.558 127.08 146.558 127.281 146.535C127.481 146.512 127.318 146.493 126.917 146.493C126.516 146.493 126.352 146.512 126.552 146.535M121.561 151.874C121.669 151.9 121.845 151.9 121.954 151.874C122.062 151.847 121.973 151.826 121.757 151.826C121.542 151.826 121.453 151.847 121.561 151.874ZM124.814 151.874C124.922 151.9 125.098 151.9 125.206 151.874C125.314 151.847 125.226 151.826 125.01 151.826C124.794 151.826 124.706 151.847 124.814 151.874ZM53.5381 159.841C71.6896 159.855 101.392 159.855 119.543 159.841C137.694 159.826 122.843 159.815 86.5407 159.815C50.2377 159.815 35.3871 159.826 53.5381 159.841Z" fill="#6C6C6C"/>
<path fill-rule="evenodd" clip-rule="evenodd" d="M107.29 15.7847C107.5 15.9868 107.696 16.1514 107.727 16.1514C107.757 16.1514 107.612 15.9868 107.403 15.7847C107.193 15.5832 106.997 15.418 106.966 15.418C106.935 15.418 107.081 15.5832 107.29 15.7847ZM109.085 147.454C109.294 147.656 109.49 147.821 109.522 147.821C109.552 147.821 109.406 147.656 109.197 147.454C108.988 147.252 108.791 147.087 108.76 147.087C108.73 147.087 108.875 147.252 109.085 147.454Z" fill="#9C9C9C"/>
<path fill-rule="evenodd" clip-rule="evenodd" d="M2.45703 8.2955C2.45703 8.61236 2.47817 8.74222 2.50375 8.58327C2.52922 8.39181 2.52922 8.19815 2.50375 8.00669C2.47817 7.84878 2.45703 7.97864 2.45703 8.2955ZM74.85 13.6073C74.9891 13.6323 75.1921 13.6307 75.2989 13.6047C75.4062 13.5787 75.2917 13.558 75.0453 13.559C74.7983 13.5606 74.7104 13.5819 74.8506 13.6073M75.8601 17.6922C75.9991 17.7171 76.201 17.7161 76.3084 17.6901C76.4157 17.6642 76.3017 17.6434 76.0547 17.6444C75.8083 17.6455 75.7199 17.6668 75.8601 17.6922ZM105.981 31.5499C105.981 31.9239 106.001 32.0771 106.026 31.8901C106.051 31.7031 106.051 31.3967 106.026 31.2097C106.001 31.0221 105.981 31.1749 105.981 31.5499ZM117.525 36.2109C117.526 36.4415 117.549 36.5236 117.576 36.3932C117.603 36.2628 117.602 36.0742 117.574 35.974C117.546 35.8743 117.524 35.9802 117.525 36.2109ZM112.252 36.4732C112.252 36.6742 112.275 36.7568 112.303 36.656C112.331 36.5354 112.331 36.4104 112.303 36.2898C112.275 36.1885 112.252 36.2711 112.252 36.4732ZM95.8776 42.2016C95.986 42.2276 96.1623 42.2276 96.2708 42.2016C96.3781 42.1756 96.2897 42.1533 96.0745 42.1533C95.8581 42.1533 95.7697 42.1751 95.8776 42.2016ZM109.896 48.8333C109.896 49.0349 109.918 49.1174 109.947 49.0167C109.975 48.8958 109.975 48.7708 109.947 48.6499C109.918 48.5492 109.896 48.6312 109.896 48.8333ZM67.5046 67.8974C67.5046 68.1571 67.5268 68.2631 67.553 68.1332C67.5797 68.0033 67.5797 67.7914 67.553 67.6621C67.5263 67.5322 67.5046 67.6382 67.5046 67.8974ZM84.438 69.4359C84.5459 69.4624 84.7223 69.4624 84.8307 69.4359C84.9381 69.41 84.8502 69.3887 84.6344 69.3887C84.418 69.3887 84.3296 69.4095 84.438 69.4359ZM88.1389 71.6358C88.2468 71.6623 88.4236 71.6623 88.5315 71.6358C88.6394 71.6098 88.551 71.588 88.3352 71.588C88.1194 71.588 88.031 71.6098 88.1389 71.6358ZM89.373 71.6358C89.4804 71.6623 89.6572 71.6623 89.7651 71.6358C89.8736 71.6098 89.7852 71.588 89.5688 71.588C89.353 71.588 89.2651 71.6098 89.373 71.6358ZM97.1195 72.8206C97.1195 73.1952 97.1401 73.3484 97.164 73.1614C97.189 72.9352 97.189 72.7072 97.164 72.4809C97.1401 72.2934 97.1195 72.4461 97.1195 72.8206ZM95.431 89.2371C95.6011 89.2605 95.8537 89.2605 95.9916 89.235C96.1295 89.2101 95.9905 89.1904 95.6812 89.1914C95.3731 89.1924 95.2602 89.2127 95.431 89.2371ZM78.9997 89.4449C79.1388 89.4703 79.3407 89.4693 79.448 89.4433C79.5553 89.4173 79.4413 89.3966 79.1944 89.3976C78.948 89.3986 78.8601 89.4199 78.9997 89.4449ZM99.8014 91.0468C99.8014 91.2489 99.8242 91.3315 99.8526 91.2302C99.8811 91.1094 99.8811 90.9843 99.8526 90.8635C99.8248 90.7627 99.8014 90.8453 99.8014 91.0468ZM93.8592 96.3571C93.9671 96.3831 94.1434 96.3831 94.2513 96.3571C94.3598 96.3301 94.2713 96.3088 94.0555 96.3088C93.8397 96.3088 93.7513 96.3301 93.8592 96.3571ZM80.3462 96.6745C80.5699 96.6979 80.7956 96.6976 81.0192 96.6734C81.1877 96.6495 81.0225 96.6308 80.6521 96.6314C80.2828 96.6319 80.1443 96.6511 80.3462 96.6745ZM86.5727 103.46C86.5738 103.748 86.5955 103.854 86.6216 103.694C86.6466 103.535 86.6466 103.299 86.6199 103.17C86.5932 103.041 86.5721 103.172 86.5727 103.46ZM86.5827 110.059C86.5827 110.693 86.6016 110.938 86.6238 110.605C86.6461 110.272 86.6461 109.753 86.6233 109.453C86.601 109.153 86.5827 109.425 86.5827 110.059ZM91.9682 112.049C91.9682 112.798 91.986 113.091 92.0077 112.7C92.0295 112.246 92.0295 111.792 92.0077 111.338C91.9854 110.98 91.9676 111.299 91.9682 112.049ZM65.9328 151.559C66.0401 151.585 66.217 151.585 66.3249 151.559C66.4328 151.533 66.3444 151.511 66.1286 151.511C65.9128 151.511 65.8243 151.532 65.9328 151.559Z" fill="#BCBCBC"/>
<path fill-rule="evenodd" clip-rule="evenodd" d="M7.74368 7.6918L7.41386 8.03255L7.77816 7.72504C7.97839 7.55518 8.14302 7.40247 8.14302 7.38429C8.14302 7.30326 8.05069 7.37442 7.74368 7.6918ZM6.93555 9.5514C6.93555 9.75295 6.95779 9.83554 6.98672 9.73477C7.01452 9.63347 7.01452 9.46881 6.98672 9.36752C6.95835 9.26727 6.93555 9.34986 6.93555 9.5514Z" fill="#F4839A"/>
<path fill-rule="evenodd" clip-rule="evenodd" d="M128.543 60.4078C128.543 89.9049 128.556 101.956 128.571 87.1887C128.587 72.421 128.587 48.2872 128.571 33.5573C128.556 18.828 128.543 30.9108 128.543 60.4078ZM87.6063 22.2267C87.9099 22.5145 88.1836 22.7503 88.2147 22.7503C88.2453 22.7503 88.0217 22.5145 87.718 22.2267C87.4144 21.939 87.1402 21.7031 87.1096 21.7031C87.0784 21.7031 87.302 21.939 87.6063 22.2267ZM70.5527 24.8717L70.1094 25.3169L70.586 24.9029C71.0293 24.5175 71.1144 24.4266 71.0293 24.4266C71.0109 24.4266 70.7968 24.6271 70.5527 24.8717ZM103.862 54.4109L103.532 54.7511L103.897 54.4436C104.097 54.2742 104.261 54.1215 104.261 54.1034C104.261 54.0223 104.169 54.0935 103.862 54.4109M95.1764 63.2165C95.1764 63.2346 95.3405 63.3879 95.5407 63.5567L95.9056 63.8642L95.5763 63.524C95.2693 63.2071 95.1764 63.1354 95.1764 63.2165ZM110.536 127.473L110.149 127.866L110.57 127.505C110.961 127.169 111.043 127.08 110.957 127.08C110.938 127.08 110.749 127.257 110.536 127.473ZM118.729 143.559C118.729 143.577 118.894 143.73 119.094 143.899L119.459 144.207L119.129 143.867C118.822 143.549 118.729 143.478 118.729 143.559Z" fill="#CCCCCC"/>
</svg>
