<svg width="24" height="25" viewBox="0 0 24 25" fill="none" xmlns="http://www.w3.org/2000/svg">
<ellipse id="Ellipse 1" cx="11.8589" cy="12.458" rx="11.4312" ry="11.6338" fill="black"/>
<g id="Ellipse 2">
<path d="M21.4587 12.4581C21.4587 17.9405 17.1606 22.3849 11.8587 22.3849C6.55683 22.3849 2.25879 17.9405 2.25879 12.4581C2.25879 6.97564 6.55683 2.53125 11.8587 2.53125C17.1606 2.53125 21.4587 6.97564 21.4587 12.4581Z" fill="#646464"/>
<path d="M21.4587 12.4581C21.4587 17.9405 17.1606 22.3849 11.8587 22.3849C6.55683 22.3849 2.25879 17.9405 2.25879 12.4581C2.25879 6.97564 6.55683 2.53125 11.8587 2.53125C17.1606 2.53125 21.4587 6.97564 21.4587 12.4581Z" stroke="black"/>
</g>
<path id="Vector 1" d="M11.8584 4.74414V12.4571" stroke="#FF0000"/>
<g id="Ellipse 3">
<path d="M12.6002 11.6988C12.6002 12.1182 12.2678 12.4582 11.8577 12.4582C11.4477 12.4582 11.1152 12.1182 11.1152 11.6988C11.1152 11.2794 11.4477 10.9395 11.8577 10.9395C12.2678 10.9395 12.6002 11.2794 12.6002 11.6988Z" fill="white"/>
<path d="M12.6002 11.6988C12.6002 12.1182 12.2678 12.4582 11.8577 12.4582C11.4477 12.4582 11.1152 12.1182 11.1152 11.6988C11.1152 11.2794 11.4477 10.9395 11.8577 10.9395C12.2678 10.9395 12.6002 11.2794 12.6002 11.6988Z" stroke="black"/>
</g>
</svg>
