<svg width="791" height="741" viewBox="0 0 791 741" fill="none" xmlns="http://www.w3.org/2000/svg">
<g id="pipes">
<path id="Vector" d="M466.784 280.828V350.663C466.763 369.178 458.758 386.929 444.525 400.022C430.292 413.114 410.994 420.478 390.865 420.497H359.318C351.227 420.503 343.469 423.463 337.748 428.726C332.027 433.988 328.81 441.124 328.803 448.567V478.656C328.782 497.188 320.762 514.954 306.506 528.05C292.25 541.145 272.925 548.497 252.778 548.491H167.393C159.302 548.497 151.544 551.456 145.823 556.719C140.101 561.982 136.884 569.118 136.877 576.561V712.995C136.981 715.797 136.471 718.59 135.377 721.207C134.283 723.824 132.627 726.212 130.509 728.228C128.391 730.244 125.853 731.847 123.047 732.942C120.241 734.037 117.224 734.602 114.175 734.602C111.127 734.602 108.11 734.037 105.304 732.942C102.498 731.847 99.9602 730.244 97.8419 728.228C95.7236 726.212 94.0681 723.824 92.9741 721.207C91.88 718.59 91.3698 715.797 91.4738 712.995V576.561C91.4878 558.043 99.4909 540.288 113.725 527.194C127.96 514.101 147.262 506.739 167.393 506.726H252.778C260.867 506.713 268.621 503.752 274.34 498.49C280.06 493.229 283.28 486.097 283.294 478.656V448.567C283.308 430.045 291.309 412.285 305.542 399.184C319.775 386.082 339.077 378.71 359.212 378.684H390.759C398.839 378.684 406.587 375.732 412.3 370.477C418.013 365.222 421.222 358.094 421.222 350.663V280.828C421.222 273.396 418.013 266.269 412.3 261.014C406.587 255.759 398.839 252.807 390.759 252.807H94.1181C74.0056 252.755 54.7347 245.375 40.5253 232.281C26.3159 219.188 18.326 201.448 18.3051 182.948V42.111C18.5062 36.6897 20.9888 31.5522 25.2291 27.7824C29.4695 24.0127 35.136 21.9055 41.0331 21.9055C46.9302 21.9055 52.5968 24.0127 56.8371 27.7824C61.0775 31.5522 63.5601 36.6897 63.7612 42.111V182.948C63.768 190.363 66.9644 197.474 72.6521 202.729C78.3399 207.984 86.057 210.955 94.1181 210.993H390.865C410.994 211.013 430.292 218.376 444.525 231.469C458.758 244.561 466.763 262.313 466.784 280.828Z" fill="#5AAAE7"/>
<path id="Vector_2" d="M376.268 400.552L375.078 420.498H359.212C351.121 420.504 343.364 423.464 337.642 428.726C331.921 433.989 328.704 441.125 328.697 448.568V452.508L306.617 446.573C306.617 446.573 309.023 423.149 329.173 410.354C349.323 397.56 376.268 400.552 376.268 400.552Z" fill="#78B9EB"/>
<path id="Vector_3" d="M625.127 180.418V277.982C625.071 292.748 618.671 306.895 607.323 317.339C595.974 327.782 580.597 333.675 564.545 333.733H52.2319C46.3382 333.548 40.7531 331.265 36.6549 327.364C32.5567 323.463 30.266 318.251 30.266 312.827C30.266 307.402 32.5567 302.19 36.6549 298.289C40.7531 294.389 46.3382 292.105 52.2319 291.92H564.545C568.559 291.914 572.406 290.442 575.242 287.829C578.078 285.216 579.671 281.675 579.671 277.982V180.418C579.674 178.588 579.286 176.775 578.527 175.083C577.769 173.39 576.656 171.852 575.251 170.556C573.847 169.259 572.178 168.23 570.341 167.526C568.504 166.823 566.535 166.459 564.545 166.456H355.643C339.582 166.43 324.188 160.547 312.836 150.096C301.484 139.645 295.101 125.479 295.087 110.705V48.4599C295.087 42.9183 297.481 37.6037 301.74 33.6853C306 29.7668 311.778 27.5654 317.802 27.5654C323.827 27.5654 329.604 29.7668 333.864 33.6853C338.124 37.6037 340.517 42.9183 340.517 48.4599V110.705C340.517 114.404 342.113 117.952 344.953 120.569C347.794 123.187 351.648 124.661 355.669 124.667H564.571C580.632 124.693 596.026 130.577 607.378 141.028C618.73 151.479 625.113 165.645 625.127 180.418Z" fill="#5AAAE7"/>
<path id="Vector_4" d="M207.798 292.431H116.225V331.325H207.798V292.431Z" fill="#78B9EB"/>
<path id="Vector_5" d="M198.278 211.14H129.129V250.034H198.278V211.14Z" fill="#78B9EB"/>
<path id="Vector_6" d="M625.127 199.537V277.982C625.071 292.749 618.671 306.896 607.323 317.339C595.974 327.783 580.597 333.676 564.545 333.733H52.2319C48.0539 333.735 43.9566 332.674 40.3918 330.67C36.827 328.666 33.9331 325.795 32.0292 322.374C33.9344 318.956 36.8293 316.088 40.3944 314.088C43.9594 312.088 48.056 311.033 52.2319 311.039H564.545C568.559 311.032 572.406 309.561 575.242 306.948C578.078 304.335 579.67 300.793 579.67 297.101V180.345C579.674 178.515 579.285 176.702 578.527 175.01C577.769 173.318 576.656 171.779 575.251 170.483C573.847 169.186 572.178 168.157 570.341 167.454C568.504 166.75 566.535 166.387 564.545 166.383H355.643C339.596 166.358 324.213 160.484 312.864 150.049C301.514 139.613 295.122 125.466 295.087 110.705V67.5787C295.087 62.0372 297.481 56.7226 301.74 52.8042C306 48.8857 311.778 46.6843 317.802 46.6843C323.827 46.6843 329.604 48.8857 333.864 52.8042C338.124 56.7226 340.517 62.0372 340.517 67.5787V129.849C340.524 133.543 342.123 137.084 344.963 139.697C347.803 142.309 351.653 143.78 355.669 143.786H564.571C580.632 143.812 596.026 149.696 607.378 160.147C618.73 170.598 625.113 184.763 625.127 199.537Z" fill="#78B9EB"/>
<path id="Vector_7" d="M789.869 365.768C789.91 366.181 789.91 366.596 789.869 367.008C789.538 372.324 787.008 377.321 782.799 380.976C778.59 384.63 773.021 386.665 767.233 386.662H637.661C634.36 386.669 631.196 387.878 628.862 390.025C626.527 392.172 625.213 395.083 625.206 398.119V580.55C625.185 593.883 619.416 606.664 609.164 616.089C598.913 625.515 585.016 630.815 570.521 630.828H33.0076C32.5148 630.864 32.0196 630.864 31.5268 630.828C25.6628 630.459 20.1832 628.012 16.2419 624.001C12.3007 619.99 10.2054 614.729 10.3973 609.325C10.5892 603.921 13.0534 598.797 17.2709 595.031C21.4884 591.265 27.13 589.152 33.0076 589.136H570.442C572.892 589.124 575.238 588.223 576.971 586.629C578.704 585.035 579.683 582.877 579.697 580.623V398.192C579.711 384.074 585.814 370.539 596.666 360.556C607.519 350.573 622.234 344.959 637.581 344.947H767.154C773.164 344.946 778.93 347.138 783.188 351.041C787.445 354.943 789.848 360.239 789.869 365.768Z" fill="#5AAAE7"/>
<path id="Vector_8" d="M789.578 368.371C788.9 373.421 786.238 378.068 782.093 381.437C777.948 384.807 772.606 386.665 767.074 386.662H637.502C634.201 386.669 631.037 387.878 628.703 390.025C626.369 392.172 625.054 395.083 625.047 398.119V580.55C625.051 587.153 623.639 593.693 620.894 599.794C618.148 605.896 614.122 611.44 609.046 616.109C603.97 620.778 597.943 624.482 591.31 627.007C584.677 629.533 577.568 630.831 570.389 630.828H33.0076L31.6325 629.441C32.3158 624.387 34.9824 619.737 39.1312 616.364C43.2801 612.991 48.6253 611.128 54.1622 611.125H567.163C571.582 611.125 575.958 610.324 580.041 608.768C584.123 607.211 587.833 604.93 590.956 602.055C594.08 599.179 596.557 595.765 598.246 592.009C599.935 588.252 600.802 584.226 600.799 580.161V400.357C600.799 370.973 626.766 367.057 658.71 367.057H788.282L789.578 368.371Z" fill="#78B9EB"/>
<path id="Vector_9" d="M188.494 42.1115V354.579C188.439 373.22 180.364 391.083 166.034 404.264C151.704 417.445 132.285 424.873 112.02 424.925C97.5282 424.937 83.6338 430.239 73.3864 439.665C63.139 449.091 57.3759 461.872 57.3619 475.202V715.184C57.3479 720.717 54.9485 726.019 50.6902 729.927C46.4319 733.835 40.6623 736.03 34.6471 736.03C34.0124 736.03 33.4042 736.03 32.796 736.03C27.1095 735.608 21.8045 733.231 17.9379 729.372C14.0714 725.513 11.9271 720.456 11.9322 715.209V475.202C11.9602 450.793 22.5142 427.39 41.2783 410.13C60.0423 392.87 85.4838 383.161 112.02 383.136C120.249 383.123 128.138 380.11 133.957 374.757C139.775 369.405 143.051 362.149 143.065 354.579V42.1115C143.065 36.5699 145.458 31.2553 149.718 27.3369C153.978 23.4184 159.755 21.217 165.78 21.217C171.804 21.217 177.581 23.4184 181.841 27.3369C186.101 31.2553 188.494 36.5699 188.494 42.1115Z" fill="#78B9EB"/>
<path id="Vector_10" d="M188.494 42.1113V354.579C188.439 373.22 180.364 391.083 166.034 404.264C151.704 417.445 132.285 424.873 112.02 424.924C97.5283 424.937 83.6338 430.239 73.3864 439.665C63.139 449.091 57.3759 461.872 57.3619 475.202V715.184C57.3479 720.717 54.9486 726.019 50.6902 729.927C46.4319 733.835 40.6623 736.03 34.6471 736.03C34.0125 736.03 33.4042 736.03 32.7961 736.03C30.8916 732.928 29.8982 729.424 29.9137 725.862V485.881C29.9417 461.464 40.4985 438.056 59.2675 420.791C78.0365 403.526 103.485 393.815 130.028 393.789C138.257 393.777 146.146 390.764 151.964 385.411C157.783 380.059 161.059 372.803 161.073 365.233V52.7653C161.073 47.2237 163.466 41.9091 167.726 37.9907C171.986 34.0722 177.763 31.8708 183.787 31.8708C184.387 31.8708 184.995 31.8708 185.612 31.8708C187.515 34.9992 188.508 38.5265 188.494 42.1113Z" fill="#5AAAE7"/>
<path id="Vector_11" d="M247.489 736.808C244.504 736.811 241.548 736.277 238.789 735.235C236.03 734.193 233.523 732.664 231.411 730.736C229.298 728.808 227.623 726.518 226.48 723.998C225.337 721.478 224.748 718.776 224.748 716.048V114.411C224.769 101.381 230.443 88.8916 240.526 79.6808C250.609 70.4699 264.278 65.29 278.534 65.2772H552.725C554.127 65.2772 555.473 64.768 556.464 63.8615C557.456 62.955 558.013 61.7256 558.013 60.4436V20.2523C558.214 14.8658 560.697 9.76124 564.937 6.01569C569.178 2.27015 574.844 0.176514 580.741 0.176514C586.639 0.176514 592.305 2.27015 596.545 6.01569C600.786 9.76124 603.268 14.8658 603.469 20.2523V60.347C603.448 72.6606 598.087 84.4644 588.56 93.1715C579.034 101.879 566.118 106.779 552.645 106.798H278.402C277.308 106.798 276.225 106.995 275.214 107.377C274.203 107.76 273.285 108.321 272.512 109.028C271.738 109.734 271.125 110.574 270.706 111.497C270.287 112.421 270.072 113.411 270.072 114.411V716.048C270.072 721.533 267.697 726.795 263.466 730.685C259.234 734.575 253.491 736.776 247.489 736.808Z" fill="#5AAAE7"/>
<path id="Vector_12" d="M252.778 548.491V736.808C252.778 736.808 266.634 733.695 269.517 722.214V545.475L252.778 548.491Z" fill="#78B9EB"/>
<path id="Vector_13" d="M204.149 17.8359H130.583V40.6276H204.149V17.8359Z" fill="#41769E"/>
<path id="Vector_14" d="M192.274 338.711L136.611 338.64C132.61 338.635 129.361 341.615 129.356 345.295L129.348 350.598C129.342 354.279 132.581 357.267 136.583 357.272L192.246 357.344C196.248 357.349 199.496 354.369 199.502 350.688L199.51 345.386C199.515 341.705 196.276 338.717 192.274 338.711Z" fill="#41769E"/>
<path id="Vector_15" d="M114.189 431.76V380.484C114.189 375.957 110.199 372.287 105.277 372.287H98.3226C93.401 372.287 89.4112 375.957 89.4112 380.484V431.76C89.4112 436.287 93.401 439.957 98.3226 439.957H105.277C110.199 439.957 114.189 436.287 114.189 431.76Z" fill="#41769E"/>
<path id="Vector_16" d="M269.94 188.761H224.775V210.556H269.94V188.761Z" fill="#78B9EB"/>
<path id="Vector_17" d="M269.94 252.953H224.457V270.32H269.94V252.953Z" fill="#78B9EB"/>
<path id="Vector_18" d="M420.402 290.124V280.872C420.402 273.473 417.065 266.376 411.124 261.144C405.184 255.912 397.127 252.972 388.726 252.972H200.236L188.495 250.187L190.749 229.383H393.62C393.62 229.383 420.594 232.87 432.583 252.246C439.851 264.199 443.95 277.447 444.572 290.996L420.402 290.124Z" fill="#78B9EB"/>
<path id="Vector_19" d="M396.127 252.345V206.421C396.127 202.041 392.268 198.491 387.507 198.491H379.204C374.443 198.491 370.583 202.041 370.583 206.421V252.345C370.583 256.724 374.443 260.274 379.204 260.274H387.507C392.268 260.274 396.127 256.724 396.127 252.345Z" fill="#41769E"/>
<path id="Vector_20" d="M396.101 419.354V373.43C396.101 369.05 392.241 365.5 387.48 365.5H379.177C374.416 365.5 370.557 369.05 370.557 373.43V419.354C370.557 423.733 374.416 427.284 379.177 427.284H387.48C392.241 427.284 396.101 423.733 396.101 419.354Z" fill="#41769E"/>
<path id="Vector_21" d="M332.769 446.038H282.844C278.083 446.038 274.224 449.588 274.224 453.967V461.605C274.224 465.984 278.083 469.535 282.844 469.535H332.769C337.53 469.535 341.39 465.984 341.39 461.605V453.967C341.39 449.588 337.53 446.038 332.769 446.038Z" fill="#41769E"/>
<path id="Vector_22" d="M628.247 187.91H578.137C573.347 187.91 569.463 191.482 569.463 195.888V203.526C569.463 207.933 573.347 211.505 578.137 211.505H628.247C633.037 211.505 636.92 207.933 636.92 203.526V195.888C636.92 191.482 633.037 187.91 628.247 187.91Z" fill="#41769E"/>
<path id="Vector_23" d="M558.066 166.505V120.411C558.066 116.004 554.183 112.432 549.393 112.432H541.09C536.3 112.432 532.416 116.004 532.416 120.411V166.505C532.416 170.911 536.3 174.483 541.09 174.483H549.393C554.183 174.483 558.066 170.911 558.066 166.505Z" fill="#41769E"/>
<path id="Vector_24" d="M45.3302 335.241L45.3302 289.147C45.3302 284.741 41.447 281.169 36.6568 281.169H28.3535C23.5633 281.169 19.6801 284.741 19.6801 289.147L19.6801 335.241C19.6801 339.648 23.5633 343.22 28.3535 343.22H36.6568C41.447 343.22 45.3302 339.648 45.3302 335.241Z" fill="#41769E"/>
<path id="Vector_25" d="M675.369 384.425V338.33C675.369 333.924 671.486 330.352 666.696 330.352H658.392C653.602 330.352 649.719 333.924 649.719 338.33V384.425C649.719 388.831 653.602 392.403 658.392 392.403H666.696C671.486 392.403 675.369 388.831 675.369 384.425Z" fill="#41769E"/>
<path id="Vector_26" d="M790.847 388.633V342.539C790.847 338.132 786.964 334.56 782.173 334.56H773.87C769.08 334.56 765.197 338.132 765.197 342.539V388.633C765.197 393.039 769.08 396.611 773.87 396.611H782.173C786.964 396.611 790.847 393.039 790.847 388.633Z" fill="#41769E"/>
<path id="Vector_27" d="M224.378 740.189H274.488C279.278 740.189 283.161 736.617 283.161 732.211V724.573C283.161 720.167 279.278 716.595 274.488 716.595H224.378C219.588 716.595 215.705 720.167 215.705 724.573V732.211C215.705 736.617 219.588 740.189 224.378 740.189Z" fill="#41769E"/>
<path id="Vector_28" d="M89.8872 737.538H139.997C144.787 737.538 148.671 733.966 148.671 729.56V721.922C148.671 717.515 144.787 713.943 139.997 713.943H89.8872C85.097 713.943 81.2138 717.515 81.2138 721.922V729.56C81.2138 733.966 85.097 737.538 89.8872 737.538Z" fill="#41769E"/>
<path id="Vector_29" d="M9.36528 738.667L59.4723 738.16C64.2623 738.112 68.1025 734.501 68.0499 730.095L67.9586 722.458C67.9059 718.052 63.9802 714.519 59.1903 714.567L9.08325 715.074C4.29334 715.123 0.453039 718.734 0.505709 723.14L0.597006 730.777C0.649676 735.183 4.57538 738.716 9.36528 738.667Z" fill="#41769E"/>
<path id="Vector_30" d="M553.915 24.3789L604.025 24.3789C608.815 24.3789 612.698 20.8069 612.698 16.4006V8.76282C612.698 4.35652 608.815 0.784504 604.025 0.784504L553.915 0.784504C549.125 0.784504 545.241 4.35652 545.241 8.76282V16.4006C545.241 20.8069 549.125 24.3789 553.915 24.3789Z" fill="#41769E"/>
<path id="Vector_31" d="M292.655 44.8357L342.765 44.8357C347.555 44.8357 351.438 41.2637 351.438 36.8574V29.2196C351.438 24.8133 347.555 21.2413 342.765 21.2413L292.655 21.2413C287.864 21.2413 283.981 24.8133 283.981 29.2196V36.8574C283.981 41.2637 287.864 44.8357 292.655 44.8357Z" fill="#41769E"/>
<path id="Vector_32" d="M14.0741 37.7571L64.1842 37.7571C68.9744 37.7571 72.8577 34.1851 72.8577 29.7788V22.141C72.8577 17.7347 68.9744 14.1627 64.1842 14.1627L14.0741 14.1627C9.28394 14.1627 5.40073 17.7347 5.40073 22.141V29.7788C5.40073 34.1851 9.28394 37.7571 14.0741 37.7571Z" fill="#41769E"/>
<path id="Vector_33" d="M463.611 633.528V587.434C463.611 583.027 459.728 579.455 454.937 579.455H446.634C441.844 579.455 437.961 583.027 437.961 587.434V633.528C437.961 637.934 441.844 641.506 446.634 641.506H454.937C459.728 641.506 463.611 637.934 463.611 633.528Z" fill="#41769E"/>
<path id="Vector_34" d="M305.109 633.528V587.434C305.109 583.027 301.226 579.455 296.436 579.455H288.133C283.343 579.455 279.459 583.027 279.459 587.434V633.528C279.459 637.934 283.343 641.506 288.133 641.506H296.436C301.226 641.506 305.109 637.934 305.109 633.528Z" fill="#41769E"/>
<path id="Vector_35" d="M328.803 469.778V478.657C328.782 497.189 320.762 514.955 306.506 528.05C292.25 541.145 272.925 548.498 252.778 548.491H167.393C159.301 548.497 151.544 551.457 145.823 556.72C140.101 561.982 136.884 569.118 136.877 576.561V587.653L117.547 588.115V563.329C117.547 563.329 125.215 539.199 145.074 536.84C164.933 534.48 251.377 536.84 251.377 536.84C251.377 536.84 277 537.399 288.529 524.459C300.059 511.518 310.319 514.437 309.684 469.681L328.803 469.778Z" fill="#78B9EB"/>
<path id="Vector_36" d="M223.532 505.705C223.532 505.705 255.264 507.918 269.622 502.616V449.103H224.484L223.532 505.705Z" fill="#78B9EB"/>
<path id="Vector_37" d="M56.0397 612.05H224.457V630.293H57.9436L56.0397 612.05Z" fill="#78B9EB"/>
</g>
</svg>
