<svg width="87" height="81" viewBox="0 0 87 81" fill="none" xmlns="http://www.w3.org/2000/svg">
<g filter="url(#filter0_d_0_1)">
<path d="M47.1999 36.5032C47.1195 37.3025 46.7141 38.053 46.0501 38.6011C45.3849 39.1501 44.5111 39.4529 43.6016 39.4398C42.692 39.4268 41.8262 39.099 41.1751 38.5311C40.5251 37.9642 40.1388 37.2023 40.0786 36.401C40.0455 35.96 40.1118 35.5171 40.2746 35.0996C40.4373 34.682 40.6937 34.2973 41.0301 33.9707C41.3667 33.6441 41.7758 33.3831 42.233 33.2063C42.6903 33.0295 43.1843 32.9414 43.6834 32.9486C44.1826 32.9558 44.6742 33.058 45.1268 33.2478C45.5794 33.4377 45.9819 33.7103 46.31 34.0465C46.638 34.3825 46.8846 34.7745 47.0368 35.1966C47.1889 35.6186 47.2441 36.0632 47.1999 36.5032Z" fill="url(#paint0_linear_0_1)"/>
<path d="M47.1999 36.5032C47.1195 37.3025 46.7141 38.053 46.0501 38.6011C45.3849 39.1501 44.5111 39.4529 43.6016 39.4398C42.692 39.4268 41.8262 39.099 41.1751 38.5311C40.5251 37.9642 40.1388 37.2023 40.0786 36.401C40.0455 35.96 40.1118 35.5171 40.2746 35.0996C40.4373 34.682 40.6937 34.2973 41.0301 33.9707C41.3667 33.6441 41.7758 33.3831 42.233 33.2063C42.6903 33.0295 43.1843 32.9414 43.6834 32.9486C44.1826 32.9558 44.6742 33.058 45.1268 33.2478C45.5794 33.4377 45.9819 33.7103 46.31 34.0465C46.638 34.3825 46.8846 34.7745 47.0368 35.1966C47.1889 35.6186 47.2441 36.0632 47.1999 36.5032Z" stroke="black"/>
<path d="M47.1999 36.5032C47.1195 37.3025 46.7141 38.053 46.0501 38.6011C45.3849 39.1501 44.5111 39.4529 43.6016 39.4398C42.692 39.4268 41.8262 39.099 41.1751 38.5311C40.5251 37.9642 40.1388 37.2023 40.0786 36.401C40.0455 35.96 40.1118 35.5171 40.2746 35.0996C40.4373 34.682 40.6937 34.2973 41.0301 33.9707C41.3667 33.6441 41.7758 33.3831 42.233 33.2063C42.6903 33.0295 43.1843 32.9414 43.6834 32.9486C44.1826 32.9558 44.6742 33.058 45.1268 33.2478C45.5794 33.4377 45.9819 33.7103 46.31 34.0465C46.638 34.3825 46.8846 34.7745 47.0368 35.1966C47.1889 35.6186 47.2441 36.0632 47.1999 36.5032Z" stroke="black" stroke-opacity="0.2"/>
<path d="M47.1999 36.5032C47.1195 37.3025 46.7141 38.053 46.0501 38.6011C45.3849 39.1501 44.5111 39.4529 43.6016 39.4398C42.692 39.4268 41.8262 39.099 41.1751 38.5311C40.5251 37.9642 40.1388 37.2023 40.0786 36.401C40.0455 35.96 40.1118 35.5171 40.2746 35.0996C40.4373 34.682 40.6937 34.2973 41.0301 33.9707C41.3667 33.6441 41.7758 33.3831 42.233 33.2063C42.6903 33.0295 43.1843 32.9414 43.6834 32.9486C44.1826 32.9558 44.6742 33.058 45.1268 33.2478C45.5794 33.4377 45.9819 33.7103 46.31 34.0465C46.638 34.3825 46.8846 34.7745 47.0368 35.1966C47.1889 35.6186 47.2441 36.0632 47.1999 36.5032Z" stroke="black" stroke-opacity="0.2"/>
<path d="M34.4891 32.8215L32.8155 32.7975C33.3158 31.4877 34.1404 30.296 35.232 29.3189C36.3447 28.3228 37.6988 27.5823 39.1838 27.1569L39.172 28.0964L37.821 28.077L37.5439 28.073L37.3941 28.3059L34.4891 32.8215Z" fill="black"/>
<path d="M34.4891 32.8215L32.8155 32.7975C33.3158 31.4877 34.1404 30.296 35.232 29.3189C36.3447 28.3228 37.6988 27.5823 39.1838 27.1569L39.172 28.0964L37.821 28.077L37.5439 28.073L37.3941 28.3059L34.4891 32.8215Z" stroke="black"/>
<path d="M34.4891 32.8215L32.8155 32.7975C33.3158 31.4877 34.1404 30.296 35.232 29.3189C36.3447 28.3228 37.6988 27.5823 39.1838 27.1569L39.172 28.0964L37.821 28.077L37.5439 28.073L37.3941 28.3059L34.4891 32.8215Z" stroke="black" stroke-opacity="0.2"/>
<path d="M34.4891 32.8215L32.8155 32.7975C33.3158 31.4877 34.1404 30.296 35.232 29.3189C36.3447 28.3228 37.6988 27.5823 39.1838 27.1569L39.172 28.0964L37.821 28.077L37.5439 28.073L37.3941 28.3059L34.4891 32.8215Z" stroke="black" stroke-opacity="0.2"/>
<path d="M49.5079 28.2447L48.1306 28.2249L48.1429 27.2489C49.6547 27.6979 51.0282 28.4744 52.146 29.5127C53.2404 30.5292 54.0531 31.7626 54.526 33.1089L52.6951 33.0827L49.9299 28.4874L49.7863 28.2487L49.5079 28.2447Z" fill="black"/>
<path d="M49.5079 28.2447L48.1306 28.2249L48.1429 27.2489C49.6547 27.6979 51.0282 28.4744 52.146 29.5127C53.2404 30.5292 54.0531 31.7626 54.526 33.1089L52.6951 33.0827L49.9299 28.4874L49.7863 28.2487L49.5079 28.2447Z" stroke="black"/>
<path d="M49.5079 28.2447L48.1306 28.2249L48.1429 27.2489C49.6547 27.6979 51.0282 28.4744 52.146 29.5127C53.2404 30.5292 54.0531 31.7626 54.526 33.1089L52.6951 33.0827L49.9299 28.4874L49.7863 28.2487L49.5079 28.2447Z" stroke="black" stroke-opacity="0.2"/>
<path d="M49.5079 28.2447L48.1306 28.2249L48.1429 27.2489C49.6547 27.6979 51.0282 28.4744 52.146 29.5127C53.2404 30.5292 54.0531 31.7626 54.526 33.1089L52.6951 33.0827L49.9299 28.4874L49.7863 28.2487L49.5079 28.2447Z" stroke="black" stroke-opacity="0.2"/>
<path d="M38.9488 45.7957C37.4828 45.3177 36.1553 44.5357 35.0707 43.5106C34.007 42.5052 33.2096 41.297 32.7316 39.98L34.4089 40.0041L37.1949 44.4376L37.3286 44.6504L37.579 44.6705L38.9615 44.7813L38.9488 45.7957Z" fill="black"/>
<path d="M38.9488 45.7957C37.4828 45.3177 36.1553 44.5357 35.0707 43.5106C34.007 42.5052 33.2096 41.297 32.7316 39.98L34.4089 40.0041L37.1949 44.4376L37.3286 44.6504L37.579 44.6705L38.9615 44.7813L38.9488 45.7957Z" stroke="black"/>
<path d="M38.9488 45.7957C37.4828 45.3177 36.1553 44.5357 35.0707 43.5106C34.007 42.5052 33.2096 41.297 32.7316 39.98L34.4089 40.0041L37.1949 44.4376L37.3286 44.6504L37.579 44.6705L38.9615 44.7813L38.9488 45.7957Z" stroke="black" stroke-opacity="0.2"/>
<path d="M38.9488 45.7957C37.4828 45.3177 36.1553 44.5357 35.0707 43.5106C34.007 42.5052 33.2096 41.297 32.7316 39.98L34.4089 40.0041L37.1949 44.4376L37.3286 44.6504L37.579 44.6705L38.9615 44.7813L38.9488 45.7957Z" stroke="black" stroke-opacity="0.2"/>
<path d="M49.9075 44.6183L52.7828 40.2623L54.4182 40.2049C53.9112 41.4964 53.093 42.6723 52.0171 43.6421C50.9116 44.6388 49.5685 45.3866 48.0937 45.8273L48.1064 44.8226L49.4838 44.8423L49.757 44.8462L49.9075 44.6183Z" fill="black"/>
<path d="M49.9075 44.6183L52.7828 40.2623L54.4182 40.2049C53.9112 41.4964 53.093 42.6723 52.0171 43.6421C50.9116 44.6388 49.5685 45.3866 48.0937 45.8273L48.1064 44.8226L49.4838 44.8423L49.757 44.8462L49.9075 44.6183Z" stroke="black"/>
<path d="M49.9075 44.6183L52.7828 40.2623L54.4182 40.2049C53.9112 41.4964 53.093 42.6723 52.0171 43.6421C50.9116 44.6388 49.5685 45.3866 48.0937 45.8273L48.1064 44.8226L49.4838 44.8423L49.757 44.8462L49.9075 44.6183Z" stroke="black" stroke-opacity="0.2"/>
<path d="M49.9075 44.6183L52.7828 40.2623L54.4182 40.2049C53.9112 41.4964 53.093 42.6723 52.0171 43.6421C50.9116 44.6388 49.5685 45.3866 48.0937 45.8273L48.1064 44.8226L49.4838 44.8423L49.757 44.8462L49.9075 44.6183Z" stroke="black" stroke-opacity="0.2"/>
<path d="M44.1962 0.577825L44.1965 0.57783C54.4741 0.744387 64.2684 4.65664 71.4301 11.4439C78.5905 18.2299 82.533 27.3326 82.4073 36.7502L82.4073 36.7505C82.3185 43.7894 79.9615 50.6414 75.6287 56.4391C71.2955 62.2374 65.1797 66.7216 58.0512 69.3177C50.9226 71.914 43.1062 72.5035 35.5933 71.0103C28.0805 69.5172 21.2145 66.0097 15.8626 60.9377C10.5112 55.866 6.91477 49.4591 5.52135 42.5305C4.12803 35.6023 4.99855 28.4573 8.02497 21.9979C11.0517 15.5379 16.1009 10.0501 22.5399 6.23444C28.9792 2.41859 36.5162 0.448614 44.1962 0.577825ZM40.7153 63.7747L41.26 63.8269L41.2622 63.2797L41.3207 48.1496L41.3223 47.7408L40.9219 47.6573C38.4748 47.1475 36.2441 45.9952 34.4997 44.3465C32.7557 42.6981 31.5738 40.6256 31.091 38.3842L31.0071 37.9944L30.6085 37.9887L14.1359 37.7524L13.5819 37.7444L13.6316 38.2963C14.2157 44.7894 17.2526 50.8901 22.203 55.5417C27.1527 60.1925 33.7034 63.1024 40.7153 63.7747ZM40.8608 45.9814L41.4783 46.1427L41.4863 45.5048L41.5133 43.3645L41.5196 42.8645L41.0197 42.8573L39.4445 42.8348L36.5051 38.0389L35.6008 36.5634L35.5822 38.0357L33.5967 38.0072L32.9306 37.9976L33.1086 38.6399C33.5933 40.389 34.5685 41.9865 35.9305 43.2739C37.2923 44.561 38.9933 45.4934 40.8608 45.9814ZM41.1896 29.3857L41.6895 29.3929L41.6958 28.8929L41.7222 26.8012L41.7302 26.1691L41.1132 26.3059C39.2289 26.7237 37.4979 27.5988 36.1011 28.8447C34.704 30.0908 33.6914 31.6635 33.1737 33.402L32.985 34.036L33.6467 34.0455L35.6322 34.0739L35.6131 35.5848L36.5557 34.1198L39.6158 29.3631L41.1896 29.3857ZM41.3409 24.6358L41.754 24.5651L41.7557 24.1458L41.8148 8.96701L41.8169 8.42703L41.2784 8.46545C34.2674 8.96563 27.6703 11.7062 22.6313 16.2212C17.5914 20.7371 14.4264 26.7454 13.6956 33.2093L13.6335 33.7584L14.1861 33.7663L30.791 34.0045L31.193 34.0103L31.2843 33.6189C31.8049 31.3856 33.032 29.3397 34.8192 27.74C36.6068 26.1398 38.8747 25.0581 41.3409 24.6358ZM46.7838 8.5444L46.2422 8.49057L46.2353 9.03479L46.0439 24.2117L46.0387 24.6272L46.4463 24.7091C48.9009 25.2019 51.1407 26.3483 52.8873 27.9992C54.6335 29.6496 55.8086 31.73 56.2727 33.9774L56.3541 34.3712L56.7561 34.377L73.2552 34.6137L73.8078 34.6216L73.7596 34.0709C73.1911 27.5846 70.175 21.4845 65.2453 16.8252C60.3165 12.1666 53.7846 9.24013 46.7838 8.5444ZM46.633 26.361L46.0188 26.205L46.0108 26.8384L45.9841 28.9544L45.9778 29.4544L46.4777 29.4616L48.0767 29.4845L50.9896 34.3252L51.8957 35.831L51.9149 34.3075L53.874 34.3356L54.5319 34.3451L54.3636 33.7086C53.8994 31.9529 52.9337 30.3471 51.5728 29.0563C50.2122 27.7657 48.5058 26.8365 46.633 26.361ZM46.3079 42.9332L45.814 42.9261L45.8017 43.4199L45.748 45.5842L45.7319 46.2322L46.3628 46.0843C48.2402 45.6439 49.9608 44.755 51.3498 43.5028C52.739 42.2504 53.7481 40.678 54.2701 38.9417L54.4611 38.3065L53.7976 38.297L51.865 38.2693L51.8837 36.7846L50.9413 38.2476L47.9082 42.9562L46.3079 42.9332ZM45.5504 63.3456L45.5464 63.6659L45.8356 63.804L45.8882 63.8291L46.0078 63.8862L46.1398 63.8766C53.1461 63.3709 59.7369 60.6279 64.7705 56.1132C69.8049 51.5978 72.966 45.5924 73.6957 39.1324L73.7578 38.5834L73.2052 38.5754L56.7061 38.3387L56.3076 38.333L56.2138 38.7202C55.6747 40.947 54.441 42.9849 52.6561 44.5826C50.8707 46.1807 48.6117 47.2686 46.1527 47.708L45.7467 47.7806L45.7415 48.1931L45.5504 63.3456Z" fill="#D13333"/>
<path d="M44.1962 0.577825L44.1965 0.57783C54.4741 0.744387 64.2684 4.65664 71.4301 11.4439C78.5905 18.2299 82.533 27.3326 82.4073 36.7502L82.4073 36.7505C82.3185 43.7894 79.9615 50.6414 75.6287 56.4391C71.2955 62.2374 65.1797 66.7216 58.0512 69.3177C50.9226 71.914 43.1062 72.5035 35.5933 71.0103C28.0805 69.5172 21.2145 66.0097 15.8626 60.9377C10.5112 55.866 6.91477 49.4591 5.52135 42.5305C4.12803 35.6023 4.99855 28.4573 8.02497 21.9979C11.0517 15.5379 16.1009 10.0501 22.5399 6.23444C28.9792 2.41859 36.5162 0.448614 44.1962 0.577825ZM40.7153 63.7747L41.26 63.8269L41.2622 63.2797L41.3207 48.1496L41.3223 47.7408L40.9219 47.6573C38.4748 47.1475 36.2441 45.9952 34.4997 44.3465C32.7557 42.6981 31.5738 40.6256 31.091 38.3842L31.0071 37.9944L30.6085 37.9887L14.1359 37.7524L13.5819 37.7444L13.6316 38.2963C14.2157 44.7894 17.2526 50.8901 22.203 55.5417C27.1527 60.1925 33.7034 63.1024 40.7153 63.7747ZM40.8608 45.9814L41.4783 46.1427L41.4863 45.5048L41.5133 43.3645L41.5196 42.8645L41.0197 42.8573L39.4445 42.8348L36.5051 38.0389L35.6008 36.5634L35.5822 38.0357L33.5967 38.0072L32.9306 37.9976L33.1086 38.6399C33.5933 40.389 34.5685 41.9865 35.9305 43.2739C37.2923 44.561 38.9933 45.4934 40.8608 45.9814ZM41.1896 29.3857L41.6895 29.3929L41.6958 28.8929L41.7222 26.8012L41.7302 26.1691L41.1132 26.3059C39.2289 26.7237 37.4979 27.5988 36.1011 28.8447C34.704 30.0908 33.6914 31.6635 33.1737 33.402L32.985 34.036L33.6467 34.0455L35.6322 34.0739L35.6131 35.5848L36.5557 34.1198L39.6158 29.3631L41.1896 29.3857ZM41.3409 24.6358L41.754 24.5651L41.7557 24.1458L41.8148 8.96701L41.8169 8.42703L41.2784 8.46545C34.2674 8.96563 27.6703 11.7062 22.6313 16.2212C17.5914 20.7371 14.4264 26.7454 13.6956 33.2093L13.6335 33.7584L14.1861 33.7663L30.791 34.0045L31.193 34.0103L31.2843 33.6189C31.8049 31.3856 33.032 29.3397 34.8192 27.74C36.6068 26.1398 38.8747 25.0581 41.3409 24.6358ZM46.7838 8.5444L46.2422 8.49057L46.2353 9.03479L46.0439 24.2117L46.0387 24.6272L46.4463 24.7091C48.9009 25.2019 51.1407 26.3483 52.8873 27.9992C54.6335 29.6496 55.8086 31.73 56.2727 33.9774L56.3541 34.3712L56.7561 34.377L73.2552 34.6137L73.8078 34.6216L73.7596 34.0709C73.1911 27.5846 70.175 21.4845 65.2453 16.8252C60.3165 12.1666 53.7846 9.24013 46.7838 8.5444ZM46.633 26.361L46.0188 26.205L46.0108 26.8384L45.9841 28.9544L45.9778 29.4544L46.4777 29.4616L48.0767 29.4845L50.9896 34.3252L51.8957 35.831L51.9149 34.3075L53.874 34.3356L54.5319 34.3451L54.3636 33.7086C53.8994 31.9529 52.9337 30.3471 51.5728 29.0563C50.2122 27.7657 48.5058 26.8365 46.633 26.361ZM46.3079 42.9332L45.814 42.9261L45.8017 43.4199L45.748 45.5842L45.7319 46.2322L46.3628 46.0843C48.2402 45.6439 49.9608 44.755 51.3498 43.5028C52.739 42.2504 53.7481 40.678 54.2701 38.9417L54.4611 38.3065L53.7976 38.297L51.865 38.2693L51.8837 36.7846L50.9413 38.2476L47.9082 42.9562L46.3079 42.9332ZM45.5504 63.3456L45.5464 63.6659L45.8356 63.804L45.8882 63.8291L46.0078 63.8862L46.1398 63.8766C53.1461 63.3709 59.7369 60.6279 64.7705 56.1132C69.8049 51.5978 72.966 45.5924 73.6957 39.1324L73.7578 38.5834L73.2052 38.5754L56.7061 38.3387L56.3076 38.333L56.2138 38.7202C55.6747 40.947 54.441 42.9849 52.6561 44.5826C50.8707 46.1807 48.6117 47.2686 46.1527 47.708L45.7467 47.7806L45.7415 48.1931L45.5504 63.3456Z" stroke="black"/>
<path d="M44.1962 0.577825L44.1965 0.57783C54.4741 0.744387 64.2684 4.65664 71.4301 11.4439C78.5905 18.2299 82.533 27.3326 82.4073 36.7502L82.4073 36.7505C82.3185 43.7894 79.9615 50.6414 75.6287 56.4391C71.2955 62.2374 65.1797 66.7216 58.0512 69.3177C50.9226 71.914 43.1062 72.5035 35.5933 71.0103C28.0805 69.5172 21.2145 66.0097 15.8626 60.9377C10.5112 55.866 6.91477 49.4591 5.52135 42.5305C4.12803 35.6023 4.99855 28.4573 8.02497 21.9979C11.0517 15.5379 16.1009 10.0501 22.5399 6.23444C28.9792 2.41859 36.5162 0.448614 44.1962 0.577825ZM40.7153 63.7747L41.26 63.8269L41.2622 63.2797L41.3207 48.1496L41.3223 47.7408L40.9219 47.6573C38.4748 47.1475 36.2441 45.9952 34.4997 44.3465C32.7557 42.6981 31.5738 40.6256 31.091 38.3842L31.0071 37.9944L30.6085 37.9887L14.1359 37.7524L13.5819 37.7444L13.6316 38.2963C14.2157 44.7894 17.2526 50.8901 22.203 55.5417C27.1527 60.1925 33.7034 63.1024 40.7153 63.7747ZM40.8608 45.9814L41.4783 46.1427L41.4863 45.5048L41.5133 43.3645L41.5196 42.8645L41.0197 42.8573L39.4445 42.8348L36.5051 38.0389L35.6008 36.5634L35.5822 38.0357L33.5967 38.0072L32.9306 37.9976L33.1086 38.6399C33.5933 40.389 34.5685 41.9865 35.9305 43.2739C37.2923 44.561 38.9933 45.4934 40.8608 45.9814ZM41.1896 29.3857L41.6895 29.3929L41.6958 28.8929L41.7222 26.8012L41.7302 26.1691L41.1132 26.3059C39.2289 26.7237 37.4979 27.5988 36.1011 28.8447C34.704 30.0908 33.6914 31.6635 33.1737 33.402L32.985 34.036L33.6467 34.0455L35.6322 34.0739L35.6131 35.5848L36.5557 34.1198L39.6158 29.3631L41.1896 29.3857ZM41.3409 24.6358L41.754 24.5651L41.7557 24.1458L41.8148 8.96701L41.8169 8.42703L41.2784 8.46545C34.2674 8.96563 27.6703 11.7062 22.6313 16.2212C17.5914 20.7371 14.4264 26.7454 13.6956 33.2093L13.6335 33.7584L14.1861 33.7663L30.791 34.0045L31.193 34.0103L31.2843 33.6189C31.8049 31.3856 33.032 29.3397 34.8192 27.74C36.6068 26.1398 38.8747 25.0581 41.3409 24.6358ZM46.7838 8.5444L46.2422 8.49057L46.2353 9.03479L46.0439 24.2117L46.0387 24.6272L46.4463 24.7091C48.9009 25.2019 51.1407 26.3483 52.8873 27.9992C54.6335 29.6496 55.8086 31.73 56.2727 33.9774L56.3541 34.3712L56.7561 34.377L73.2552 34.6137L73.8078 34.6216L73.7596 34.0709C73.1911 27.5846 70.175 21.4845 65.2453 16.8252C60.3165 12.1666 53.7846 9.24013 46.7838 8.5444ZM46.633 26.361L46.0188 26.205L46.0108 26.8384L45.9841 28.9544L45.9778 29.4544L46.4777 29.4616L48.0767 29.4845L50.9896 34.3252L51.8957 35.831L51.9149 34.3075L53.874 34.3356L54.5319 34.3451L54.3636 33.7086C53.8994 31.9529 52.9337 30.3471 51.5728 29.0563C50.2122 27.7657 48.5058 26.8365 46.633 26.361ZM46.3079 42.9332L45.814 42.9261L45.8017 43.4199L45.748 45.5842L45.7319 46.2322L46.3628 46.0843C48.2402 45.6439 49.9608 44.755 51.3498 43.5028C52.739 42.2504 53.7481 40.678 54.2701 38.9417L54.4611 38.3065L53.7976 38.297L51.865 38.2693L51.8837 36.7846L50.9413 38.2476L47.9082 42.9562L46.3079 42.9332ZM45.5504 63.3456L45.5464 63.6659L45.8356 63.804L45.8882 63.8291L46.0078 63.8862L46.1398 63.8766C53.1461 63.3709 59.7369 60.6279 64.7705 56.1132C69.8049 51.5978 72.966 45.5924 73.6957 39.1324L73.7578 38.5834L73.2052 38.5754L56.7061 38.3387L56.3076 38.333L56.2138 38.7202C55.6747 40.947 54.441 42.9849 52.6561 44.5826C50.8707 46.1807 48.6117 47.2686 46.1527 47.708L45.7467 47.7806L45.7415 48.1931L45.5504 63.3456Z" stroke="black" stroke-opacity="0.2"/>
<path d="M44.1962 0.577825L44.1965 0.57783C54.4741 0.744387 64.2684 4.65664 71.4301 11.4439C78.5905 18.2299 82.533 27.3326 82.4073 36.7502L82.4073 36.7505C82.3185 43.7894 79.9615 50.6414 75.6287 56.4391C71.2955 62.2374 65.1797 66.7216 58.0512 69.3177C50.9226 71.914 43.1062 72.5035 35.5933 71.0103C28.0805 69.5172 21.2145 66.0097 15.8626 60.9377C10.5112 55.866 6.91477 49.4591 5.52135 42.5305C4.12803 35.6023 4.99855 28.4573 8.02497 21.9979C11.0517 15.5379 16.1009 10.0501 22.5399 6.23444C28.9792 2.41859 36.5162 0.448614 44.1962 0.577825ZM40.7153 63.7747L41.26 63.8269L41.2622 63.2797L41.3207 48.1496L41.3223 47.7408L40.9219 47.6573C38.4748 47.1475 36.2441 45.9952 34.4997 44.3465C32.7557 42.6981 31.5738 40.6256 31.091 38.3842L31.0071 37.9944L30.6085 37.9887L14.1359 37.7524L13.5819 37.7444L13.6316 38.2963C14.2157 44.7894 17.2526 50.8901 22.203 55.5417C27.1527 60.1925 33.7034 63.1024 40.7153 63.7747ZM40.8608 45.9814L41.4783 46.1427L41.4863 45.5048L41.5133 43.3645L41.5196 42.8645L41.0197 42.8573L39.4445 42.8348L36.5051 38.0389L35.6008 36.5634L35.5822 38.0357L33.5967 38.0072L32.9306 37.9976L33.1086 38.6399C33.5933 40.389 34.5685 41.9865 35.9305 43.2739C37.2923 44.561 38.9933 45.4934 40.8608 45.9814ZM41.1896 29.3857L41.6895 29.3929L41.6958 28.8929L41.7222 26.8012L41.7302 26.1691L41.1132 26.3059C39.2289 26.7237 37.4979 27.5988 36.1011 28.8447C34.704 30.0908 33.6914 31.6635 33.1737 33.402L32.985 34.036L33.6467 34.0455L35.6322 34.0739L35.6131 35.5848L36.5557 34.1198L39.6158 29.3631L41.1896 29.3857ZM41.3409 24.6358L41.754 24.5651L41.7557 24.1458L41.8148 8.96701L41.8169 8.42703L41.2784 8.46545C34.2674 8.96563 27.6703 11.7062 22.6313 16.2212C17.5914 20.7371 14.4264 26.7454 13.6956 33.2093L13.6335 33.7584L14.1861 33.7663L30.791 34.0045L31.193 34.0103L31.2843 33.6189C31.8049 31.3856 33.032 29.3397 34.8192 27.74C36.6068 26.1398 38.8747 25.0581 41.3409 24.6358ZM46.7838 8.5444L46.2422 8.49057L46.2353 9.03479L46.0439 24.2117L46.0387 24.6272L46.4463 24.7091C48.9009 25.2019 51.1407 26.3483 52.8873 27.9992C54.6335 29.6496 55.8086 31.73 56.2727 33.9774L56.3541 34.3712L56.7561 34.377L73.2552 34.6137L73.8078 34.6216L73.7596 34.0709C73.1911 27.5846 70.175 21.4845 65.2453 16.8252C60.3165 12.1666 53.7846 9.24013 46.7838 8.5444ZM46.633 26.361L46.0188 26.205L46.0108 26.8384L45.9841 28.9544L45.9778 29.4544L46.4777 29.4616L48.0767 29.4845L50.9896 34.3252L51.8957 35.831L51.9149 34.3075L53.874 34.3356L54.5319 34.3451L54.3636 33.7086C53.8994 31.9529 52.9337 30.3471 51.5728 29.0563C50.2122 27.7657 48.5058 26.8365 46.633 26.361ZM46.3079 42.9332L45.814 42.9261L45.8017 43.4199L45.748 45.5842L45.7319 46.2322L46.3628 46.0843C48.2402 45.6439 49.9608 44.755 51.3498 43.5028C52.739 42.2504 53.7481 40.678 54.2701 38.9417L54.4611 38.3065L53.7976 38.297L51.865 38.2693L51.8837 36.7846L50.9413 38.2476L47.9082 42.9562L46.3079 42.9332ZM45.5504 63.3456L45.5464 63.6659L45.8356 63.804L45.8882 63.8291L46.0078 63.8862L46.1398 63.8766C53.1461 63.3709 59.7369 60.6279 64.7705 56.1132C69.8049 51.5978 72.966 45.5924 73.6957 39.1324L73.7578 38.5834L73.2052 38.5754L56.7061 38.3387L56.3076 38.333L56.2138 38.7202C55.6747 40.947 54.441 42.9849 52.6561 44.5826C50.8707 46.1807 48.6117 47.2686 46.1527 47.708L45.7467 47.7806L45.7415 48.1931L45.5504 63.3456Z" stroke="black" stroke-opacity="0.2"/>
</g>
<defs>
<filter id="filter0_d_0_1" x="0.375031" y="0.0718384" width="86.5352" height="80.2449" filterUnits="userSpaceOnUse" color-interpolation-filters="sRGB">
<feFlood flood-opacity="0" result="BackgroundImageFix"/>
<feColorMatrix in="SourceAlpha" type="matrix" values="0 0 0 0 0 0 0 0 0 0 0 0 0 0 0 0 0 0 127 0" result="hardAlpha"/>
<feOffset dy="4"/>
<feGaussianBlur stdDeviation="2"/>
<feComposite in2="hardAlpha" operator="out"/>
<feColorMatrix type="matrix" values="0 0 0 0 0 0 0 0 0 0 0 0 0 0 0 0 0 0 0.25 0"/>
<feBlend mode="normal" in2="BackgroundImageFix" result="effect1_dropShadow_0_1"/>
<feBlend mode="normal" in="SourceGraphic" in2="effect1_dropShadow_0_1" result="shape"/>
</filter>
<linearGradient id="paint0_linear_0_1" x1="53.5099" y1="-101.415" x2="6.37167" y2="633.488" gradientUnits="userSpaceOnUse">
<stop stop-color="white" stop-opacity="0"/>
<stop offset="0.95"/>
</linearGradient>
</defs>
</svg>
