<svg width="408" height="717" viewBox="0 0 408 717" fill="none" xmlns="http://www.w3.org/2000/svg">
<g id="rocket">
<g id="layer1">
<g id="g3243">
<path id="path3217" fill-rule="evenodd" clip-rule="evenodd" d="M202.546 14.1261C174.43 37.0239 -41.6788 228.939 122.019 596.447H285.696C449.392 228.939 233.287 37.0557 205.17 14.1542L202.545 14.125L202.546 14.1261Z" fill="#ECECEC" stroke="black" stroke-width="10"/>
<path id="path3219" d="M209.321 252.064C175.268 252.064 147.571 280.435 147.571 315.28C147.571 350.126 175.268 378.468 209.321 378.468C243.374 378.468 271.1 350.126 271.1 315.28C271.1 280.435 243.374 252.064 209.321 252.064ZM209.321 259.539C239.422 259.539 263.795 284.48 263.795 315.28C263.795 346.082 239.422 370.993 209.321 370.993C179.22 370.993 154.876 346.082 154.876 315.28C154.876 284.479 179.22 259.539 209.321 259.539Z" fill="#CCCCCC"/>
<g id="g27">
<g id="g12">
<g id="g9">
<g id="path2419">
<path fill-rule="evenodd" clip-rule="evenodd" d="M93.5631 165.009L133.227 90.4446L188.57 26.2624L204.251 13.9922L263.285 77.2306L309.405 153.683L313.094 169.729L92.6387 168.785" fill="#FF0000"/>
<path d="M93.5631 165.009L133.227 90.4446L188.57 26.2624L204.251 13.9922L263.285 77.2306L309.405 153.683L313.094 169.729L92.6387 168.785" stroke="black"/>
</g>
<g id="g7">
<g id="path2408">
<path fill-rule="evenodd" clip-rule="evenodd" d="M71.4254 449.115C71.4254 449.115 -26.352 447.869 32.6851 702.069C32.6851 702.069 38.2195 489.817 89.8741 515.988" fill="#FF0000"/>
<path d="M71.4254 449.115C71.4254 449.115 -26.352 447.869 32.6851 702.069C32.6851 702.069 38.2195 489.817 89.8741 515.988" stroke="black" stroke-width="10"/>
</g>
<g id="path2410">
<path fill-rule="evenodd" clip-rule="evenodd" d="M336.574 449.115C336.574 449.115 434.351 447.869 375.314 702.069C375.314 702.069 369.78 489.817 318.125 515.988" fill="#FF0000"/>
<path d="M336.574 449.115C336.574 449.115 434.351 447.869 375.314 702.069C375.314 702.069 369.78 489.817 318.125 515.988" stroke="black" stroke-width="10"/>
</g>
</g>
</g>
<path id="path2423" fill-rule="evenodd" clip-rule="evenodd" d="M98.1758 544.44L122.158 596.352L286.347 595.408L305.717 544.439H98.1822L98.1758 544.44Z" fill="#B3B3B3" stroke="black"/>
</g>
<g id="g16">
<path id="path3209" fill-rule="evenodd" clip-rule="evenodd" d="M359.21 474.596L340.763 521.79L329.694 512.351L316.78 518.014L334.306 447.225L365.667 463.271C365.667 463.271 420.088 501.969 377.658 694.519C402.563 495.366 358.288 474.595 359.21 474.595V474.596Z" fill="#D20000"/>
<path id="path3213" fill-rule="evenodd" clip-rule="evenodd" d="M29.9173 699.238C29.9173 699.238 20.7304 493.33 83.4164 492.535C90.3339 492.447 89.8731 515.188 89.8731 515.188L64.9685 520.852L45.5984 583.146L29.9173 699.242V699.238Z" fill="#D20000"/>
</g>
<path id="path3232" fill-rule="evenodd" clip-rule="evenodd" d="M245.554 544.45C249.255 555.859 251.442 571.779 250.376 594.468C251.163 594.752 251.997 595.15 252.859 595.607L286.33 595.403L301.939 554.348C301.31 550.84 300.582 547.71 299.885 544.449H245.554V544.45Z" fill="#999999"/>
<g id="g21">
<path id="path3227" fill-rule="evenodd" clip-rule="evenodd" d="M221.794 444.799C215.568 444.327 211.635 445.324 211.635 445.324L207.013 518.001C207.013 518.001 229.234 513.511 239.714 544.455H294.159C276.475 460.072 239.675 446.149 221.793 444.794L221.794 444.799Z" fill="#CCCCCC"/>
<path id="path3241" fill-rule="evenodd" clip-rule="evenodd" d="M100.769 548.674L119.031 595.393L144.599 597.261L137.294 544.002L100.769 548.674Z" fill="#CCCCCC"/>
</g>
<g id="g25">
<path id="path2382" fill-rule="evenodd" clip-rule="evenodd" d="M202.546 14.1261C174.43 37.0239 -41.6788 228.939 122.019 596.447H285.696C449.392 228.939 233.287 37.0557 205.17 14.1542L202.545 14.125L202.546 14.1261Z" stroke="black" stroke-width="10"/>
<path id="path2394" d="M93.5635 166.896H310.33" stroke="black" stroke-width="10"/>
</g>
</g>
<g id="g37">
<g id="g31">
<path id="path2400" d="M261.972 309.669C261.972 325.439 255.849 340.564 244.951 351.716C234.053 362.867 219.272 369.132 203.86 369.132C188.448 369.132 173.667 362.867 162.769 351.716C151.871 340.564 145.749 325.439 145.749 309.669C145.749 293.898 151.871 278.773 162.769 267.622C173.667 256.47 188.448 250.205 203.86 250.205C219.272 250.205 234.053 256.47 244.951 267.622C255.849 278.773 261.972 293.898 261.972 309.669Z" fill="#B3B3B3" stroke="black" stroke-width="8" stroke-linecap="round"/>
<path id="path2402" d="M241.682 309.669C241.682 319.932 237.697 329.775 230.605 337.032C223.513 344.29 213.894 348.367 203.864 348.367C193.834 348.367 184.215 344.29 177.123 337.032C170.03 329.775 166.046 319.932 166.046 309.669C166.046 299.405 170.03 289.562 177.123 282.305C184.215 275.048 193.834 270.971 203.864 270.971C213.894 270.971 223.513 275.048 230.605 282.305C237.697 289.562 241.682 299.405 241.682 309.669Z" fill="#80E5FF" stroke="black" stroke-width="12.293" stroke-linecap="round"/>
</g>
<g id="g35">
<path id="path2417" d="M100.942 545.383H305.711" stroke="black" stroke-width="10"/>
<path id="rect2414" d="M195.561 447.227H212.164V702.068H195.561V447.227Z" fill="#FF0000" stroke="black" stroke-width="10" stroke-linecap="round"/>
</g>
</g>
<path id="path2425" fill-rule="evenodd" clip-rule="evenodd" d="M296.488 533.116C296.488 533.116 370.279 359.443 311.246 192.387C314.013 488.761 234.687 533.116 234.687 533.116H296.487H296.488Z" fill="#CCCCCC"/>
<g id="g42">
<path id="rect2429" d="M242.002 292.727L219.847 269.85L166.04 325.409L188.196 348.287L242.002 292.727Z" fill="white"/>
<path id="path2431" d="M241.682 309.671C241.682 319.934 237.697 329.777 230.605 337.034C223.513 344.292 213.894 348.369 203.864 348.369C193.834 348.369 184.215 344.292 177.123 337.034C170.03 329.777 166.046 319.934 166.046 309.671C166.046 299.407 170.03 289.564 177.123 282.307C184.215 275.05 193.834 270.973 203.864 270.973C213.894 270.973 223.513 275.05 230.605 282.307C237.697 289.564 241.682 299.407 241.682 309.671Z" stroke="black" stroke-width="12.293" stroke-linecap="round"/>
</g>
<g id="g53">
<path id="path2437" fill-rule="evenodd" clip-rule="evenodd" d="M288.188 152.741C288.188 152.741 259.593 76.2885 205.172 35.7012C254.981 133.867 229.154 152.741 229.154 152.741H288.188Z" fill="#D20000"/>
<g id="g47">
<path id="path3211" d="M336.574 449.115C336.574 449.115 434.351 447.869 375.314 702.069C375.314 702.069 369.78 489.817 318.125 515.988" stroke="black" stroke-width="10"/>
<path id="path3215" d="M71.4254 449.115C71.4254 449.115 -26.352 447.869 32.6851 702.069C32.6851 702.069 38.2195 489.817 89.8741 515.988" stroke="black" stroke-width="10"/>
</g>
<g id="g51">
<path id="path3237" fill-rule="evenodd" clip-rule="evenodd" d="M106.476 149.909C106.476 149.909 155.362 52.6878 195.948 27.2074C236.534 1.72331 107.398 151.797 106.476 149.909Z" fill="white"/>
<path id="path3239" fill-rule="evenodd" clip-rule="evenodd" d="M77.6821 408.246C74.7931 406.604 56.9322 271.864 101.162 188.004C128.434 165.543 165.539 177.355 163.776 186.669C148.502 267.354 94.8625 418.011 77.6812 408.247L77.6821 408.246Z" fill="white"/>
</g>
</g>
</g>
</g>
<g id="g59">
<path id="svg_2" d="M213.467 443.695H194.291V598.801H213.467V443.695Z" fill="#7F7F7F" stroke="black" stroke-width="5"/>
<path id="svg_3" d="M213.566 602.539H193.478V705.32H213.566V602.539Z" fill="white" stroke="black" stroke-width="5"/>
</g>
<g id="g80">
<path id="svg_4" d="M302.095 398.846H105.147V539.002H302.095V398.846Z" fill="#7F7F7F" stroke="black" stroke-width="10.2324" stroke-linecap="round"/>
<g id="g78">
<path id="svg_6" d="M145.895 600.672L123.98 701.584" stroke="black" stroke-width="10" stroke-linecap="round"/>
<path id="svg_7" d="M264.602 601.605L286.517 701.584" stroke="black" stroke-width="10" stroke-linecap="round"/>
<path id="svg_8" d="M123.98 702.518H284.69" stroke="black" stroke-width="10" stroke-linecap="round"/>
<g id="g76">
<path id="svg_9" d="M145.896 599.737V598.803" stroke="black" stroke-width="10" stroke-linecap="round"/>
<path id="svg_11" d="M148.635 601.605L260.036 602.54" stroke="black" stroke-width="10" stroke-linecap="round"/>
<path id="svg_12" d="M143.156 619.359L263.689 620.294" stroke="black" stroke-width="10" stroke-linecap="round"/>
<path id="svg_13" d="M143.156 634.309L266.428 635.243" stroke="black" stroke-width="10" stroke-linecap="round"/>
<path id="svg_14" d="M139.504 647.391H270.994" stroke="black" stroke-width="10" stroke-linecap="round"/>
<path id="svg_15" d="M134.024 660.471L273.732 661.405" stroke="black" stroke-width="10" stroke-linecap="round"/>
<path id="svg_16" d="M132.198 671.684L276.472 672.618" stroke="black" stroke-width="10" stroke-linecap="round"/>
<path id="svg_17" d="M128.546 682.896L281.038 683.831" stroke="black" stroke-width="10" stroke-linecap="round"/>
<path id="svg_18" d="M127.633 692.24H281.951" stroke="black" stroke-width="10" stroke-linecap="round"/>
<path id="svg_19" d="M127.633 698.78L282.864 697.846" stroke="black" stroke-width="10" stroke-linecap="round"/>
</g>
</g>
</g>
</g>
</svg>
